<?xml version="1.0" encoding="UTF-8"?>
<svg version="1.1" xmlns="http://www.w3.org/2000/svg" width="512" height="512">
<path d="M0 0 C3.67956291 1.56232021 6.16515793 3.83584082 9.0625 6.5625 C12.77478591 10.01462571 16.54816138 13.31925184 20.5 16.5 C24.28460334 19.55348679 27.92207537 22.70668301 31.5 26 C35.9698512 30.11378909 40.59044893 33.97087297 45.31640625 37.78515625 C48.80550916 40.66480887 52.12996921 43.70693876 55.47265625 46.75390625 C58.06962393 49.06187598 60.73404013 51.25555863 63.4375 53.4375 C68.211403 57.29825137 72.73388428 61.37437075 77.25 65.53125 C79.93737634 67.94378104 82.68965444 70.2325621 85.5 72.5 C90.30094713 76.37372558 94.86860751 80.45020847 99.39453125 84.640625 C101.93371405 87.11209775 101.93371405 87.11209775 105.11962891 88.77099609 C107.45169864 90.72982991 107.9616635 91.80119928 108.54673767 94.83520508 C108.74654563 98.57241294 108.75491612 102.28390541 108.69140625 106.0234375 C108.68782556 107.41199355 108.68647248 108.80055697 108.6872406 110.18911743 C108.68255583 113.09626942 108.6577765 116.00230793 108.61743164 118.90917969 C108.56655553 122.62029264 108.55498651 126.33018034 108.55726719 130.04160118 C108.55644789 132.90887984 108.5399363 135.77589497 108.51826286 138.64308548 C108.50876926 140.01049432 108.5028163 141.3779328 108.50058174 142.74537277 C108.44787394 158.14513871 108.44787394 158.14513871 103.24609375 163.9609375 C102.35083984 164.66089844 102.35083984 164.66089844 101.4375 165.375 C100.83808594 165.85710937 100.23867188 166.33921875 99.62109375 166.8359375 C96.18843086 169.3008376 93.63703586 169.15189227 89.43896484 169.20532227 C88.41269202 169.22037135 88.41269202 169.22037135 87.36568642 169.23572445 C85.14747141 169.26714682 82.92923855 169.29189589 80.7109375 169.31640625 C79.34284884 169.33480626 77.97476597 169.35364275 76.60668945 169.3729248 C71.52952831 169.44141246 66.4522559 169.50143962 61.375 169.5625 C44.359375 169.7790625 44.359375 169.7790625 27 170 C26.67 143.93 26.34 117.86 26 91 C9.5 91 -7 91 -24 91 C-24.33 117.07 -24.66 143.14 -25 170 C-36.240625 169.9175 -47.48125 169.835 -59.0625 169.75 C-64.37033569 169.72631348 -64.37033569 169.72631348 -69.78540039 169.70214844 C-74.13366699 169.65673828 -74.13366699 169.65673828 -76.17454529 169.63043213 C-77.58834859 169.61589647 -79.00224454 169.60904961 -80.41612244 169.60845947 C-95.72911149 169.59114103 -95.72911149 169.59114103 -101 165 C-107.23155026 158.59001962 -106.83366287 150.78268142 -106.875 142.31640625 C-106.8936451 140.89207731 -106.91286107 139.46775574 -106.93261719 138.04344177 C-106.96691755 135.06874347 -106.98032278 132.09475868 -106.98144531 129.11987305 C-106.98653003 125.32748562 -107.06523359 121.5405191 -107.1625061 117.74952793 C-107.22593945 114.81086798 -107.2389242 111.87349776 -107.23834229 108.93421745 C-107.24603054 107.53752158 -107.27147769 106.1407952 -107.31585693 104.7447834 C-107.63078275 93.89892123 -107.63078275 93.89892123 -103.58325195 89.18588257 C-100.81677886 86.91381852 -98.00289893 84.9429549 -95 83 C-93.86936843 82.04076517 -92.75926148 81.05584091 -91.6875 80.03125 C-86.2199383 74.88156979 -80.63656696 70.02367457 -74.78125 65.3125 C-71.75980812 62.8002899 -68.87558227 60.17599173 -66 57.5 C-61.41239887 53.23081848 -56.66557272 49.24241483 -51.78125 45.3125 C-48.75980812 42.8002899 -45.87558227 40.17599173 -43 37.5 C-38.41239887 33.23081848 -33.66557272 29.24241483 -28.78125 25.3125 C-25.23573234 22.3645415 -21.87377192 19.24474611 -18.50024414 16.10351562 C-14.24196829 12.16275194 -9.81153146 8.49702366 -5.27734375 4.875 C-3.39823047 3.32787414 -1.67705831 1.75953659 0 0 Z " fill="#FFFFFF" transform="translate(335,126)"/>
<path d="M0 0 C1.06154297 -0.00386719 2.12308594 -0.00773438 3.21679688 -0.01171875 C4.30154297 -0.00011719 5.38628906 0.01148438 6.50390625 0.0234375 C8.12522461 0.00603516 8.12522461 0.00603516 9.77929688 -0.01171875 C17.0350965 0.01468198 24.17813942 0.09515806 29.94067383 4.99072266 C34.75867283 10.171381 38.20738644 16.28056539 41.69140625 22.3984375 C42.78685075 24.2947966 43.88319057 26.19063882 44.98046875 28.0859375 C45.45436035 28.91480469 45.92825195 29.74367188 46.41650391 30.59765625 C46.96097168 31.52191406 47.50543945 32.44617188 48.06640625 33.3984375 C48.40685471 34.04770706 48.74730316 34.69697662 49.09806824 35.36592102 C52.15265503 40.84755937 55.11780173 43.12209452 60.8515625 45.50390625 C61.5896666 45.83586502 62.32777069 46.16782379 63.08824158 46.50984192 C65.42578481 47.558061 67.77542992 48.57406104 70.12890625 49.5859375 C72.48397239 50.61213375 74.83526256 51.64520792 77.18028259 52.69416809 C78.63318031 53.34279289 80.09212676 53.97809005 81.55763245 54.59770203 C85.88495442 56.51381615 88.47090003 58.42993438 91.06640625 62.3984375 C92.49331445 66.44524274 92.34413247 69.63834469 90.87890625 73.6484375 C88.35592589 77.47640769 86.47077428 79.93031482 82.06640625 81.3984375 C75.95273204 81.9452659 71.87184207 80.41049799 66.46484375 77.890625 C65.66535309 77.52752228 64.86586243 77.16441956 64.04214478 76.79031372 C62.36002818 76.02175283 60.68097285 75.24646019 59.00488281 74.46484375 C56.45128488 73.27802871 53.88515961 72.12232875 51.31640625 70.96875 C49.67753902 70.21538019 48.03948883 69.46022992 46.40234375 68.703125 C45.64077972 68.36223846 44.8792157 68.02135193 44.09457397 67.6701355 C39.12184164 65.31538714 36.30077582 62.86175579 33.06640625 58.3984375 C30.01866687 84.85863172 30.01866687 84.85863172 37.56884766 109.08081055 C40.00138234 111.76674748 42.51396544 114.28311445 45.22753906 116.68505859 C48.20108907 119.45568711 50.47943466 122.65281453 52.81640625 125.9609375 C53.595 126.99347656 54.37359375 128.02601563 55.17578125 129.08984375 C59.27592859 136.2651016 59.6289171 144.95878683 60.57421875 153.046875 C60.76973831 154.68663803 60.76973831 154.68663803 60.96920776 156.35952759 C61.24206408 158.66030739 61.51254277 160.96137029 61.78076172 163.26269531 C62.18946907 166.75687588 62.60990655 170.2495109 63.03125 173.7421875 C63.29628652 175.98949929 63.56063216 178.23689269 63.82421875 180.484375 C63.94918732 181.51493011 64.07415588 182.54548523 64.20291138 183.60726929 C66.20629114 201.07644976 66.20629114 201.07644976 63.37890625 206.8359375 C56.86199908 214.05737517 56.86199908 214.05737517 52.11328125 214.63671875 C46.53735742 214.81689316 43.44960035 214.17002312 39.06640625 210.3984375 C32.35561402 203.87405616 32.68770334 193.66314591 31.9453125 184.85546875 C31.73110882 182.6240985 31.51422637 180.39298408 31.29492188 178.16210938 C30.95566725 174.69251544 30.63001231 171.22465638 30.34985352 167.74975586 C29.09205648 152.4172863 27.16227913 142.36741289 16.06640625 131.3984375 C15.40640625 130.4084375 14.74640625 129.4184375 14.06640625 128.3984375 C13.00869861 131.57156041 12.86534059 134.43453914 12.67651367 137.75341797 C11.92344542 149.02068237 9.02196923 158.13532174 4.41748047 168.37207031 C2.83608248 171.91435608 1.31093967 175.47872204 -0.2109375 179.046875 C-13.51252434 210.14140216 -13.51252434 210.14140216 -19.71875 213.55078125 C-23.53307922 215.01058626 -26.93861759 215.1989151 -30.93359375 214.3984375 C-35.90460865 211.86603368 -39.42789942 208.40982616 -41.93359375 203.3984375 C-42.6930531 196.80142108 -41.34827995 191.78954818 -38.609375 185.84765625 C-38.26609665 185.0675972 -37.9228183 184.28753815 -37.56913757 183.48384094 C-36.476841 181.01069068 -35.36226684 178.54839003 -34.24609375 176.0859375 C-33.51602774 174.44665314 -32.78749933 172.80668309 -32.06054688 171.16601562 C-31.52816658 169.96738388 -31.52816658 169.96738388 -30.98503113 168.74453735 C-30.27632315 167.14675813 -29.56921969 165.54826625 -28.86372375 163.94906616 C-27.43182731 160.71283787 -25.98956078 157.50955335 -24.3972168 154.34814453 C-19.63095981 144.46316786 -19.12723813 133.67774543 -18.12109375 122.8984375 C-17.96225204 121.2933432 -17.96225204 121.2933432 -17.80020142 119.65582275 C-15.32154673 94.25741305 -15.42544087 68.88738575 -15.93359375 43.3984375 C-17.41909331 44.66186238 -18.89680564 45.9344478 -20.37109375 47.2109375 C-21.19480469 47.91863281 -22.01851562 48.62632812 -22.8671875 49.35546875 C-26.38223651 52.83064953 -26.18527324 56.52286485 -26.546875 61.26171875 C-26.66128469 62.63743862 -26.77654621 64.01308787 -26.89257812 65.38867188 C-27.07166717 67.54729507 -27.24571399 69.70578831 -27.4050293 71.8659668 C-27.56144717 73.95784629 -27.7399029 76.04692671 -27.921875 78.13671875 C-28.02024658 79.38493408 -28.11861816 80.63314941 -28.2199707 81.91918945 C-29.21916759 86.79074429 -31.36201028 90.05136595 -35.12109375 93.2734375 C-39.15715972 94.88786389 -42.65915166 95.32480976 -46.93359375 94.3984375 C-50.30730385 92.34787393 -53.15402499 89.95757502 -54.93359375 86.3984375 C-55.69350747 76.25651204 -54.75643918 66.00109582 -53.87109375 55.8984375 C-53.74492676 54.09173584 -53.74492676 54.09173584 -53.61621094 52.24853516 C-53.44653809 50.51289307 -53.44653809 50.51289307 -53.2734375 48.7421875 C-53.13989868 47.19821289 -53.13989868 47.19821289 -53.00366211 45.62304688 C-51.42834108 40.87587824 -48.3700904 37.94823585 -44.93359375 34.3984375 C-44.34985489 33.78032196 -43.76611603 33.16220642 -43.16468811 32.52536011 C-39.36642556 28.53397682 -35.47943306 24.62772511 -31.6003418 20.71508789 C-30.19390876 19.29201068 -28.79287483 17.8635778 -27.3972168 16.42993164 C-25.36027665 14.33807458 -23.30722881 12.26329111 -21.25 10.19140625 C-20.63516251 9.55389938 -20.02032501 8.91639252 -19.38685608 8.25956726 C-13.70612834 2.60593871 -8.09839512 0.02890072 0 0 Z " fill="#FFFFFF" transform="translate(97.93359375,240.6015625)"/>
<path d="M0 0 C3.86255717 1.4972834 6.53032926 4.3858655 9.453125 7.24609375 C12.03450181 9.75853171 14.7087201 12.00073514 17.5234375 14.24609375 C22.28945825 18.10047059 26.80549675 22.16844561 31.3125 26.3203125 C34.95692864 29.59003228 38.74723043 32.6555626 42.578125 35.703125 C45.2380332 37.93628781 47.66391718 40.32146536 50.0859375 42.80859375 C50.09004639 42.0722168 50.09415527 41.33583984 50.09838867 40.57714844 C50.13130742 37.2368168 50.20195064 33.89831324 50.2734375 30.55859375 C50.28213867 28.82029297 50.28213867 28.82029297 50.29101562 27.046875 C50.51086176 18.59501261 50.51086176 18.59501261 53.10546875 15.046875 C57.04877108 13.40856984 60.35192306 13.18393637 64.5859375 13.24609375 C65.33230469 13.22224609 66.07867187 13.19839844 66.84765625 13.17382812 C67.57597656 13.17576172 68.30429687 13.17769531 69.0546875 13.1796875 C69.70888672 13.1789624 70.36308594 13.1782373 71.03710938 13.17749023 C74.57642789 14.26771168 75.92324406 15.81075463 78.0859375 18.80859375 C78.68243223 22.42098748 78.47382854 25.94715571 78.30078125 29.59375 C78.26362148 31.75581538 78.22920477 33.91792932 78.19726562 36.08007812 C78.12114904 39.4700808 78.02412642 42.85520938 77.87719727 46.24291992 C76.78873972 59.86654822 76.78873972 59.86654822 82.01904297 71.82495117 C84.90850345 74.52122695 88.04875931 76.70668032 91.41531372 78.76516724 C93.52007449 80.079744 95.32699848 81.62577822 97.1640625 83.2890625 C97.69926514 83.74563232 98.23446777 84.20220215 98.78588867 84.67260742 C104.14589896 89.24917314 109.42111341 93.89877877 114.6328125 98.64453125 C118.22893708 101.81690866 121.97586177 104.79358429 125.73828125 107.765625 C128.83934494 110.46422119 130.79270654 112.51837752 131.7109375 116.55859375 C130.74690574 121.57155892 127.57782643 124.24601881 124.0859375 127.80859375 C123.57289063 128.41703125 123.05984375 129.02546875 122.53125 129.65234375 C119.99844752 132.55479848 118.59750968 133.74858354 114.72265625 134.203125 C110.47892989 133.74274223 109.05975757 132.79471973 105.8984375 129.99609375 C104.95613281 129.17496094 104.01382813 128.35382813 103.04296875 127.5078125 C102.05476549 126.6108482 101.0691217 125.71105675 100.0859375 124.80859375 C99.59399902 124.3595166 99.10206055 123.91043945 98.59521484 123.44775391 C96.57965419 121.60437352 94.56818546 119.75687731 92.56762695 117.8972168 C89.33597557 114.90440619 86.01960886 112.07131783 82.5859375 109.30859375 C78.60964324 106.10927653 74.81925452 102.7827443 71.0859375 99.30859375 C66.47592111 95.01901615 61.70810514 91.00448478 56.80078125 87.0546875 C53.97920255 84.72028785 51.28003038 82.28868777 48.5859375 79.80859375 C45.00801287 76.51527676 41.37054084 73.36208054 37.5859375 70.30859375 C32.76971205 66.41988675 28.18766508 62.32645293 23.62890625 58.140625 C20.89597777 55.63439105 18.13522019 53.16881491 15.328125 50.74609375 C13.48713653 49.15527445 11.6640266 47.54789994 9.84375 45.93359375 C8.67490108 44.91227736 7.5056287 43.89144539 6.3359375 42.87109375 C5.7805127 42.37359619 5.22508789 41.87609863 4.65283203 41.36352539 C1.44733289 38.59302364 0.48382807 37.80859375 -3.9140625 37.80859375 C-6.25827594 39.55346798 -8.37874789 41.29628483 -10.5390625 43.24609375 C-11.16079346 43.79305908 -11.78252441 44.34002441 -12.4230957 44.90356445 C-16.81944375 48.78289517 -21.15678741 52.72898164 -25.49609375 56.671875 C-28.03819894 58.91829106 -30.64785645 61.05480428 -33.2890625 63.18359375 C-37.84186757 66.86431222 -42.14823661 70.73508023 -46.4309082 74.7199707 C-50.54167207 78.52244389 -54.83672773 82.05122674 -59.19921875 85.5625 C-62.02079745 87.89689965 -64.71996962 90.32849973 -67.4140625 92.80859375 C-71.86133362 96.90210466 -76.46123713 100.73301874 -81.1640625 104.52734375 C-83.99505828 106.87578343 -86.70789848 109.31769277 -89.4140625 111.80859375 C-93.89849856 115.93529702 -98.52115975 119.82099626 -103.28125 123.625 C-105.86508545 125.76797332 -108.24884052 128.0418373 -110.6640625 130.37109375 C-113.61584379 133.0118838 -114.6623748 133.75825621 -118.6640625 134.55859375 C-126.31729602 132.79246294 -131.70814279 125.11747332 -135.9140625 118.80859375 C-135.98438194 115.7145383 -135.57138359 113.66785047 -133.66796875 111.1796875 C-129.41000268 106.77876813 -124.56793688 103.02803639 -119.8046875 99.1953125 C-116.92168678 96.81488893 -114.16327417 94.34179593 -111.4140625 91.80859375 C-106.96679138 87.71508284 -102.36688787 83.88416876 -97.6640625 80.08984375 C-93.87500843 76.94665117 -90.28136898 73.6070078 -86.66015625 70.2734375 C-83.99531084 67.88152078 -81.26574425 65.61604491 -78.4765625 63.37109375 C-73.94089807 59.7128836 -69.6570508 55.8611641 -65.39477539 51.89477539 C-61.30745244 48.11368817 -57.03363006 44.61169409 -52.6953125 41.12109375 C-49.67387062 38.60888365 -46.78964477 35.98458548 -43.9140625 33.30859375 C-39.32912739 29.04189321 -34.58599706 25.05490425 -29.703125 21.12890625 C-26.63419082 18.57575933 -23.71061132 15.90207735 -20.7890625 13.18359375 C-5.8560644 -0.56708924 -5.8560644 -0.56708924 0 0 Z " fill="#FFFFFF" transform="translate(337.9140625,68.19140625)"/>
<path d="M0 0 C6.91005885 5.22887595 10.76064245 11.77065334 12 20.3125 C12.44687915 28.37866861 9.79153192 35.19340083 4.75 41.4375 C-0.62159875 47.07479073 -6.99262317 49.72831344 -14.6875 50.25 C-22.97344992 50.0962718 -30.09891373 46.7596659 -36 41 C-42.18752936 32.89326178 -43.0461429 24.97859381 -42 15 C-39.2920856 7.57257765 -34.02086558 1.80954819 -27.1640625 -2.02734375 C-18.19313678 -6.00018228 -8.36641811 -4.8399586 0 0 Z " fill="#FFFFFF" transform="translate(125,179)"/>
<path d="M0 0 C6.66392292 0.19682473 14.17070521 2.28386721 19.64453125 6.078125 C21.1875 8.375 21.1875 8.375 21.13671875 11.640625 C20.10452012 15.70145582 18.73660222 19.32421344 17 23.125 C16.68901367 23.81875732 16.37802734 24.51251465 16.05761719 25.22729492 C8.46551016 41.93495059 8.46551016 41.93495059 4.1875 45.375 C-3.20862056 45.83725754 -8.34503583 40.84996271 -13.8125 36.375 C-14.43640625 35.93929687 -15.0603125 35.50359375 -15.703125 35.0546875 C-16.8125 33.375 -16.8125 33.375 -16.70703125 30.11328125 C-15.76535489 26.17797874 -14.40251083 23.12716163 -12.5 19.5625 C-9.88038393 14.56549035 -7.57648484 9.56706715 -5.63671875 4.265625 C-4.29430719 1.18634921 -3.33999931 0.44533324 0 0 Z " fill="#FFFFFF" transform="translate(317.8125,353.625)"/>
<path d="M0 0 C2.58893907 1.7465095 4.6636141 3.87075253 6.8125 6.125 C7.39708984 6.69476563 7.98167969 7.26453125 8.58398438 7.8515625 C11.28617192 10.60697969 12.84035731 12.50426745 14.0390625 16.2265625 C14 19 14 19 13.12890625 20.765625 C5.00529385 28.46381131 -9.28639792 39.48575986 -20.75 40.25 C-24.26164765 38.89936629 -24.6125691 38.58211162 -26.25 35.4375 C-26.85949941 33.96892168 -27.44254995 32.48911425 -28 31 C-28.2990625 30.30777344 -28.598125 29.61554688 -28.90625 28.90234375 C-30.5751945 24.892241 -31.79692926 21.38311096 -31 17 C-27.48120318 13.11718972 -22.43555526 11.07451495 -17.84765625 8.66015625 C-14.27276188 6.57602716 -11.24736366 4.0721122 -8.16796875 1.3203125 C-5.10439289 -0.5454328 -3.53842128 -0.64652636 0 0 Z " fill="#FFFFFF" transform="translate(290,402)"/>
<path d="M0 0 C4.32936681 4.32936681 5.15232018 12.58354679 5.375 18.5625 C5 22 5 22 3.76489258 23.65551758 C1.5921032 25.31073283 0.0857478 25.58585208 -2.61328125 25.94921875 C-3.98166138 26.13834839 -3.98166138 26.13834839 -5.37768555 26.33129883 C-6.34617432 26.44884521 -7.31466309 26.5663916 -8.3125 26.6875 C-9.29839111 26.81342529 -10.28428223 26.93935059 -11.30004883 27.0690918 C-31.70404412 29.53063725 -31.70404412 29.53063725 -37 26 C-38.21791109 22.34626672 -38.26104675 18.93254014 -38.3125 15.125 C-38.34150391 14.41730469 -38.37050781 13.70960938 -38.40039062 12.98046875 C-38.4423677 9.51251656 -38.18980491 7.31029569 -36.36743164 4.33105469 C-33.41434562 1.42334454 -31.78131375 1.20863925 -27.6953125 0.8203125 C-26.47199219 0.6965625 -25.24867188 0.5728125 -23.98828125 0.4453125 C-22.71339844 0.33960938 -21.43851563 0.23390625 -20.125 0.125 C-18.85785156 -0.00390625 -17.59070313 -0.1328125 -16.28515625 -0.265625 C-5.41431901 -1.29441086 -5.41431901 -1.29441086 0 0 Z " fill="#FFFFFF" transform="translate(239,427)"/>
<path d="M0 0 C0.86302734 -0.00708984 1.72605469 -0.01417969 2.61523438 -0.02148438 C8.88673544 0.04186412 8.88673544 0.04186412 11.18408203 1.69213867 C12.75844158 3.88440522 12.81119008 5.11308441 12.80078125 7.796875 C12.80182861 8.65869385 12.80287598 9.5205127 12.80395508 10.40844727 C12.7861499 11.32553467 12.76834473 12.24262207 12.75 13.1875 C12.73799561 14.12456787 12.72599121 15.06163574 12.71362305 16.02709961 C12.28616053 37.3329229 12.28616053 37.3329229 8.29296875 41.87890625 C4.56305171 43.91479804 2.58388076 43.55420173 -1.5625 42.8125 C-2.75875 42.61398437 -3.955 42.41546875 -5.1875 42.2109375 C-12.89036885 40.44569672 -12.89036885 40.44569672 -15.5625 36.4375 C-15.57421875 33.20703125 -15.57421875 33.20703125 -15.25 29.25 C-15.13440286 27.81388333 -15.01985103 26.3776822 -14.90625 24.94140625 C-14.84566406 24.20164551 -14.78507812 23.46188477 -14.72265625 22.69970703 C-14.56364553 20.45368067 -14.47350302 18.21534748 -14.40625 15.96484375 C-14.37958252 15.24772217 -14.35291504 14.53060059 -14.32543945 13.79174805 C-14.25343617 11.78334586 -14.19474344 9.77447964 -14.13671875 7.765625 C-13.5625 4.4375 -13.5625 4.4375 -12.1171875 2.01171875 C-8.19193713 -0.40705173 -4.51743552 -0.10505664 0 0 Z " fill="#FFFFFF" transform="translate(335.5625,294.5625)"/>
</svg>
