<?xml version="1.0" encoding="UTF-8"?>
<svg version="1.1" xmlns="http://www.w3.org/2000/svg" width="512" height="512">
<path d="M0 0 C1.67214409 -0.00571587 3.34428428 -0.01268479 5.01641846 -0.02079773 C9.52070153 -0.03861046 14.02478853 -0.03758327 18.52909613 -0.03185534 C22.30604748 -0.028746 26.08296212 -0.03487526 29.85990822 -0.04089409 C38.7787074 -0.05489887 47.69741071 -0.05341203 56.61621094 -0.04199219 C65.78043887 -0.03051652 74.94437395 -0.04458666 84.1085633 -0.07138866 C92.01135071 -0.09362586 99.91404674 -0.100165 107.81686318 -0.09431225 C112.52159466 -0.0909604 117.22613854 -0.09323865 121.93084335 -0.11056328 C126.35847597 -0.12615882 130.78567858 -0.12193893 135.21329498 -0.10325813 C136.82601216 -0.09960676 138.43876212 -0.10257823 140.05144882 -0.11314392 C160.91858186 -0.23928258 179.61006926 5.6108597 194.97314453 20.40405273 C210.79716363 36.83766486 215.64385166 55.98587795 215.30617332 78.07328796 C215.26512946 80.94155477 215.25432864 83.80857778 215.25154114 86.67712402 C215.23988072 94.81933575 215.18675984 102.96068623 215.08666992 111.10229492 C215.02716727 116.11255208 215.01142315 121.12139962 215.02282143 126.13197327 C215.01837906 128.02982425 214.99721027 129.92771586 214.95863914 131.82518005 C214.35747029 141.98831704 214.35747029 141.98831704 217.93569946 151.08032227 C220.21620079 152.87831487 222.35995209 154.15775793 224.97314453 155.40405273 C236.98675259 164.16397528 245.71516389 179.27846984 248.41064453 193.84155273 C248.62054392 195.35945673 248.8178463 196.87959456 248.97314453 198.40405273 C248.42529297 198.23389648 247.87744141 198.06374023 247.31298828 197.88842773 C244.53871483 197.04035715 241.75659839 196.22149829 238.97314453 195.40405273 C237.86068359 195.06760742 236.74822266 194.73116211 235.60205078 194.38452148 C202.94117253 184.99759523 168.9529284 189.42882293 139.13720703 205.43139648 C111.18350048 221.04773178 90.36351805 247.83538808 81.61149597 278.58334351 C80.07362006 284.48914861 79.14869604 290.40702856 78.33642578 296.45092773 C78.13660095 297.89411377 78.13660095 297.89411377 77.93273926 299.36645508 C77.60861944 301.71177153 77.288839 304.05758997 76.97314453 306.40405273 C56.83273963 306.42740114 36.69233747 306.44504148 16.55192184 306.45586491 C7.20062559 306.46102373 -2.15066226 306.46805857 -11.50195312 306.47949219 C-19.65143329 306.48945164 -27.80090736 306.49590918 -35.95039344 306.49814123 C-40.26645902 306.49944618 -44.58250719 306.50251851 -48.8985672 306.50978279 C-52.95978496 306.51656287 -57.02097812 306.51866562 -61.082201 306.51716042 C-62.57375027 306.51743585 -64.06530034 306.5194292 -65.55684471 306.52325821 C-67.5917031 306.52822638 -69.62657465 306.52644306 -71.66143799 306.52430725 C-72.80077412 306.52522904 -73.94011024 306.52615084 -75.11397171 306.52710056 C-77.6045184 306.42189336 -79.65650815 306.13266743 -82.02685547 305.40405273 C-82.0305011 305.95005127 -82.03414673 306.4960498 -82.03790283 307.05859375 C-82.07989198 312.7697116 -82.14935095 318.48003804 -82.234375 324.19067383 C-82.2625049 326.31852278 -82.28375893 328.44647467 -82.29785156 330.57446289 C-82.31939155 333.64319254 -82.36609918 336.71069484 -82.41748047 339.77905273 C-82.41932343 341.19359741 -82.41932343 341.19359741 -82.42120361 342.63671875 C-82.55425617 348.7117435 -83.61614112 353.30762882 -87.02685547 358.40405273 C-89.9892481 361.15076795 -93.33066042 362.2662907 -97.33544922 362.59155273 C-103.07173504 362.28200611 -106.09760777 360.52497105 -110.02685547 356.40405273 C-112.20724085 353.00758186 -112.28217046 350.20853909 -112.29428101 346.21549988 C-112.30281097 344.94431305 -112.31134094 343.67312622 -112.32012939 342.36341858 C-112.31943035 340.9566344 -112.31850728 339.54985031 -112.31738281 338.14306641 C-112.32336844 336.65944073 -112.33017406 335.17581817 -112.33773804 333.69219971 C-112.35541548 329.66054962 -112.36009453 325.62898443 -112.36136961 321.59729934 C-112.36279235 319.07311547 -112.36706459 316.54895308 -112.37236404 314.02477455 C-112.39087974 305.20237488 -112.39903394 296.38003564 -112.39746094 287.55761719 C-112.39626354 279.36321639 -112.4172825 271.16908071 -112.44894826 262.97474688 C-112.47522283 255.92139911 -112.48582337 248.86813721 -112.48455012 241.81474096 C-112.48404316 237.61063887 -112.48957555 233.40677165 -112.51090622 229.20271873 C-112.53047433 225.23730534 -112.53028841 221.27234603 -112.51587296 217.30691528 C-112.51380555 215.86351662 -112.51835984 214.42008818 -112.53059387 212.97673988 C-112.68670684 193.25629201 -106.70484631 174.99390963 -93.02685547 160.40405273 C-89.25688066 156.71101618 -85.64745522 153.2346606 -80.92910767 150.81636047 C-77.65632909 148.61343583 -77.65632909 148.61343583 -77.29428101 144.64518738 C-77.2713765 143.10296457 -77.28145747 141.56004084 -77.31738281 140.01806641 C-77.31317825 139.17350891 -77.30897369 138.32895142 -77.30464172 137.45880127 C-77.29692458 134.66248399 -77.33056643 131.86813844 -77.36279297 129.07202148 C-77.36169845 127.11826653 -77.35738673 125.16451097 -77.3500061 123.21076965 C-77.33657789 118.05582228 -77.35543777 112.90156994 -77.38446045 107.7467041 C-77.4297264 99.5362552 -77.4452482 91.32620039 -77.42491531 83.1156559 C-77.42528394 80.26682999 -77.45091064 77.41903031 -77.47860718 74.57035828 C-77.54672005 54.46873428 -72.54053914 36.46714996 -58.4465332 21.55541992 C-42.06511106 5.20473215 -22.56713379 -0.07041686 0 0 Z M-41.52685547 46.31420898 C-49.70596614 57.70958454 -49.3166838 71.58495826 -49.22216797 85.00952148 C-49.21842931 86.58563557 -49.21558638 88.16175201 -49.21359253 89.73786926 C-49.20602312 93.84940211 -49.18643369 97.96078952 -49.16418457 102.07226562 C-49.14358041 106.2824507 -49.13455992 110.4926597 -49.12451172 114.70288086 C-49.10318018 122.9366784 -49.06805419 131.17033062 -49.02685547 139.40405273 C-40.11685547 139.40405273 -31.20685547 139.40405273 -22.02685547 139.40405273 C-21.98947266 136.1878418 -21.95208984 132.97163086 -21.91357422 129.65795898 C-21.86727579 126.52027847 -21.81607236 123.38271333 -21.7644043 120.24511719 C-21.73128549 118.075593 -21.70321354 115.90598536 -21.68041992 113.73632812 C-21.64663335 110.60567885 -21.59430569 107.47578547 -21.53857422 104.34545898 C-21.52898933 102.90584557 -21.52898933 102.90584557 -21.51921082 101.43714905 C-21.30723343 91.5818455 -19.04796596 84.55117371 -12.21435547 77.35327148 C-6.12300005 71.92543871 0.47532309 70.29286115 8.5116272 70.25688171 C9.61327209 70.24972641 10.71491699 70.24257111 11.84994507 70.23519897 C13.64850449 70.23116562 13.64850449 70.23116562 15.48339844 70.22705078 C17.38919678 70.21719398 17.38919678 70.21719398 19.33349609 70.20713806 C23.53888705 70.18616538 27.74427807 70.17574044 31.94970703 70.16577148 C33.40221551 70.16172106 34.8547238 70.15760406 36.3072319 70.1534214 C43.13467324 70.1343828 49.96210388 70.1201503 56.78956664 70.11180943 C64.64768424 70.10204874 72.5055193 70.07575441 80.36353743 70.03530854 C86.45208482 70.00505538 92.54055164 69.99033179 98.62917268 69.98702842 C102.25860243 69.98468798 105.88772988 69.97586026 109.5170784 69.95056725 C113.5737381 69.92275198 117.62977416 69.92714559 121.68652344 69.93408203 C122.87341766 69.92127197 124.06031189 69.90846191 125.28317261 69.89526367 C135.61821562 69.95942152 144.66785905 72.11943132 152.31689453 79.40795898 C158.66139558 87.05427983 159.12005317 96.0179606 159.28955078 105.51733398 C159.31033188 106.48688522 159.33111298 107.45643646 159.3525238 108.45536804 C159.41773394 111.54235981 159.47677133 114.62943425 159.53564453 117.71655273 C159.5788569 119.81356638 159.62247205 121.91057176 159.66650391 124.00756836 C159.77414148 129.13964643 159.87342715 134.27179023 159.97314453 139.40405273 C168.55314453 139.40405273 177.13314453 139.40405273 185.97314453 139.40405273 C186.06383709 129.55449177 186.1370852 119.7052122 186.18039322 109.85532665 C186.2011883 105.28067079 186.22935653 100.70631764 186.27490234 96.13183594 C186.31865063 91.70976639 186.34234226 87.28798635 186.3526535 82.86571693 C186.35999324 81.1861548 186.37432487 79.50660689 186.39606476 77.82716942 C186.57638978 63.30749341 184.31210092 51.49443156 174.19580078 40.46655273 C165.983184 32.67380388 156.28220556 29.29628735 145.11265564 29.25688171 C144.43489706 29.25320503 143.75713848 29.24952834 143.05884176 29.24574023 C140.79450977 29.23475357 138.53022374 29.23086809 136.26586914 29.22705078 C134.63930111 29.22078222 133.0127345 29.21413507 131.38616943 29.20713806 C126.04928578 29.18613782 120.71240198 29.17573783 115.37548828 29.16577148 C113.53420052 29.16172209 111.6929129 29.15760511 109.85162544 29.1534214 C101.19758631 29.13437674 92.54355565 29.12014551 83.8894996 29.11180943 C73.92029006 29.10204651 63.95130311 29.07574865 53.98217195 29.03530854 C46.26389889 29.00508043 38.54568938 28.99033413 30.82735831 28.98702842 C26.22373761 28.98468514 21.62035489 28.97581939 17.01679802 28.95056725 C12.68042041 28.92716468 8.34443543 28.92310184 4.00801086 28.93332863 C2.42466482 28.93382119 0.84129865 28.92758415 -0.74198723 28.91377258 C-17.81021501 28.77332443 -30.37534846 32.86528502 -41.52685547 46.31420898 Z " fill="#FFFFFF" transform="translate(158.02685546875,47.595947265625)"/>
<path d="M0 0 C20.8049243 17.74296435 35.36815816 41.09683407 38.97265625 68.53515625 C40.05538132 83.8261056 39.58396107 98.86143461 34.97265625 113.53515625 C34.62203125 114.664375 34.27140625 115.79359375 33.91015625 116.95703125 C24.3740115 144.1085545 4.35070256 165.22890174 -21.33984375 177.78515625 C-46.70510709 188.95832133 -75.86419576 190.38567443 -101.92578125 180.76953125 C-116.91377996 174.94469325 -128.52675428 166.599227 -140.02734375 155.53515625 C-140.67316406 154.96410156 -141.31898438 154.39304687 -141.984375 153.8046875 C-159.10518159 138.20751241 -168.84544107 112.09602493 -170.14990234 89.40307617 C-171.26398041 58.8739613 -161.77315592 32.03368681 -141.02734375 9.53515625 C-140.44597656 8.87257813 -139.86460937 8.21 -139.265625 7.52734375 C-103.54694179 -31.16039877 -39.94380732 -31.3421799 0 0 Z M-106.40234375 45.22265625 C-108.52518247 49.54998133 -108.55939157 51.74672583 -108.02734375 56.53515625 C-106.08015447 60.38340915 -103.66156265 63.08815211 -100.54296875 66.0390625 C-99.69089844 66.86212891 -98.83882812 67.68519531 -97.9609375 68.53320312 C-96.16174762 70.2525163 -94.35698032 71.96601059 -92.546875 73.67382812 C-91.69996094 74.49560547 -90.85304688 75.31738281 -89.98046875 76.1640625 C-88.80726074 77.27890015 -88.80726074 77.27890015 -87.61035156 78.41625977 C-86.02734375 80.53515625 -86.02734375 80.53515625 -86.01879883 82.53295898 C-87.35760584 85.19080364 -89.06707077 86.87590599 -91.2109375 88.94140625 C-92.05591797 89.76769531 -92.90089844 90.59398437 -93.77148438 91.4453125 C-94.66029297 92.29996094 -95.54910156 93.15460938 -96.46484375 94.03515625 C-98.21808496 95.72838119 -99.96697865 97.42612237 -101.7109375 99.12890625 C-102.49009521 99.87849609 -103.26925293 100.62808594 -104.07202148 101.40039062 C-107.57934219 105.22958431 -108.48482782 108.24630313 -108.34765625 113.5078125 C-107.69224791 117.65606771 -105.23815214 120.45315726 -102.19140625 123.17578125 C-99.64232427 124.77700964 -98.14278677 124.96799824 -95.15234375 124.97265625 C-93.91871094 125.00166016 -93.91871094 125.00166016 -92.66015625 125.03125 C-85.089059 123.60464859 -79.79284831 116.53224224 -74.65234375 111.28515625 C-73.40517578 110.02445313 -73.40517578 110.02445313 -72.1328125 108.73828125 C-70.09302828 106.67505123 -68.05808089 104.60728502 -66.02734375 102.53515625 C-62.47696303 104.04227926 -60.23620988 106.10681717 -57.55078125 108.8515625 C-56.2978125 110.1209668 -56.2978125 110.1209668 -55.01953125 111.41601562 C-54.15585937 112.30095703 -53.2921875 113.18589844 -52.40234375 114.09765625 C-50.6832019 115.85113007 -48.96195362 117.602542 -47.23828125 119.3515625 C-46.47821777 120.12959229 -45.7181543 120.90762207 -44.93505859 121.70922852 C-41.39597367 125.09658661 -38.2930208 124.86804605 -33.57421875 124.8203125 C-29.86667859 124.40520448 -27.76873019 123.00240405 -25.02734375 120.53515625 C-22.29933812 116.04868009 -22.07707952 111.63698469 -23.02734375 106.53515625 C-24.78919896 103.30950405 -27.37742782 101.05136082 -30.02734375 98.53515625 C-31.29893299 97.26115739 -32.56682319 95.98346122 -33.83203125 94.703125 C-37.54052054 90.95669946 -41.27642163 87.2390562 -45.02734375 83.53515625 C-43.55441835 80.10347142 -41.63757631 77.93554016 -38.96484375 75.34765625 C-38.16820312 74.56648438 -37.3715625 73.7853125 -36.55078125 72.98046875 C-34.86848958 71.35026042 -33.18619792 69.72005208 -31.50390625 68.08984375 C-30.70726562 67.30867188 -29.910625 66.5275 -29.08984375 65.72265625 C-27.99349609 64.66111328 -27.99349609 64.66111328 -26.875 63.578125 C-23.01478453 59.30985292 -22.53301711 55.62388391 -22.640625 50.01171875 C-23.37696814 45.29614753 -26.10488014 42.99357692 -29.83984375 40.16015625 C-34.64816519 38.78635013 -38.34454336 38.63260778 -42.71484375 40.9765625 C-48.3334465 44.95117094 -52.87922932 50.42948848 -57.5703125 55.41992188 C-58.34246094 56.21720703 -59.11460937 57.01449219 -59.91015625 57.8359375 C-60.60512207 58.56981689 -61.30008789 59.30369629 -62.01611328 60.05981445 C-64.02734375 61.53515625 -64.02734375 61.53515625 -65.9934082 61.54370117 C-68.77539506 60.1642284 -70.53092496 58.33110405 -72.6875 56.09765625 C-73.56341797 55.20304687 -74.43933594 54.3084375 -75.34179688 53.38671875 C-76.24865234 52.44570313 -77.15550781 51.5046875 -78.08984375 50.53515625 C-79.88863515 48.67653244 -81.69181784 46.82214544 -83.5 44.97265625 C-84.29672119 44.14636719 -85.09344238 43.32007813 -85.91430664 42.46875 C-88.70806232 39.91224567 -90.58490757 39.56854766 -94.33984375 39.28515625 C-99.82450468 39.65699767 -102.76267629 41.10408517 -106.40234375 45.22265625 Z " fill="#FFFFFF" transform="translate(424.02734375,278.46484375)"/>
</svg>
