<?xml version="1.0" encoding="UTF-8"?>
<svg version="1.1" xmlns="http://www.w3.org/2000/svg" width="512" height="512">
<path d="M0 0 C2.63653139 2.05063553 3.75527757 3.76717716 5.25 6.75 C5.59057617 9.52075195 5.59057617 9.52075195 5.54296875 12.48828125 C5.53172974 13.93134644 5.53172974 13.93134644 5.52026367 15.40356445 C5.49295166 16.61101318 5.46563965 17.81846191 5.4375 19.0625 C5.375625 22.919375 5.31375 26.77625 5.25 30.75 C16.14 30.75 27.03 30.75 38.25 30.75 C38.09243523 23.45031448 38.09243523 23.45031448 37.88964844 16.15185547 C37.82276552 9.99970561 38.12132549 6.41686299 42.25 1.75 C45.54487979 -1.54487979 48.6402584 -2.09373757 53.25 -2.25 C58.42577738 -0.67094928 61.34315543 1.16612971 64.25 5.75 C65.2294921 8.79088324 65.36706789 11.55086638 65.34765625 14.734375 C65.34515869 15.57709961 65.34266113 16.41982422 65.34008789 17.28808594 C65.33098389 18.34801758 65.32187988 19.40794922 65.3125 20.5 C65.291875 23.8825 65.27125 27.265 65.25 30.75 C75.81 30.75 86.37 30.75 97.25 30.75 C97.13186593 23.77966713 97.13186593 23.77966713 96.97973633 16.81005859 C96.92186539 10.02609145 97.59373552 5.48004961 102.5 0.4375 C105.93542624 -1.67060246 108.2178164 -2.18047959 112.25 -2.25 C117.46230653 -0.65980479 120.23116952 1.22175428 123.25 5.75 C124.52861615 8.30723229 124.36336609 10.11737102 124.34765625 12.9765625 C124.34515869 13.90549316 124.34266113 14.83442383 124.34008789 15.79150391 C124.33098389 16.97405762 124.32187988 18.15661133 124.3125 19.375 C124.291875 23.12875 124.27125 26.8825 124.25 30.75 C135.14 30.75 146.03 30.75 157.25 30.75 C154.99952599 42.00237007 154.99952599 42.00237007 153.57006836 47.01000977 C153.25311508 48.12718887 152.9361618 49.24436798 152.60960388 50.395401 C152.27308304 51.56558273 151.93656219 52.73576447 151.58984375 53.94140625 C151.06494102 55.7810923 151.06494102 55.7810923 150.5294342 57.65794373 C149.79424692 60.23095052 149.05753484 62.80345692 148.31811523 65.37524414 C147.36933594 68.67590391 146.42716593 71.97840814 145.48692989 75.28151035 C144.58703115 78.43991998 143.68200718 81.59685865 142.77734375 84.75390625 C142.43879868 85.94230606 142.1002536 87.13070587 141.75144958 88.3551178 C141.43764847 89.44392746 141.12384735 90.53273712 140.80053711 91.65454102 C140.52455185 92.61699234 140.24856659 93.57944366 139.96421814 94.57106018 C139.25 96.75 139.25 96.75 138.25 97.75 C136.0350814 97.84701605 133.81700203 97.87186691 131.59996033 97.87025452 C130.8967349 97.87110894 130.19350947 97.87196337 129.46897417 97.87284368 C127.09509484 97.87450053 124.72128502 97.8689738 122.34741211 97.86352539 C120.65270489 97.86324354 118.95799755 97.86340122 117.26329041 97.8639679 C112.64778374 97.86425594 108.03230283 97.85835809 103.41680217 97.85139394 C98.59879736 97.84516156 93.78079203 97.84455669 88.96278381 97.84336853 C79.83257502 97.84025487 70.70237814 97.83204102 61.57217461 97.82201904 C51.18057324 97.81085898 40.78897132 97.80534772 30.39736545 97.80032361 C9.01490364 97.78985843 -12.36754743 97.77225832 -33.75 97.75 C-33.73620638 119.47239949 -33.69403928 141.19457791 -33.61790943 162.916852 C-33.58322715 173.00245403 -33.55789967 183.08791893 -33.55444336 193.17358398 C-33.55140796 201.96224577 -33.5309748 210.75066352 -33.48947543 219.539231 C-33.46810504 224.19461682 -33.45556543 228.84965536 -33.46384621 233.50509071 C-33.47136097 237.88421727 -33.45566953 242.2626387 -33.42193985 246.64163589 C-33.4136753 248.25129938 -33.4139933 249.86103258 -33.42340279 251.47068977 C-33.4349599 253.66438961 -33.41601202 255.8557533 -33.38923645 258.04927063 C-33.38647107 259.27802068 -33.38370569 260.50677073 -33.38085651 261.77275562 C-33.01704537 264.83121409 -33.01704537 264.83121409 -30.84108257 266.64498615 C-26.40996495 268.22904165 -22.32723868 268.16357776 -17.65344238 268.13095093 C-16.62772645 268.1356309 -15.60201051 268.14031087 -14.54521227 268.14513266 C-11.10357822 268.15711152 -7.66234023 268.14761389 -4.22070312 268.13818359 C-1.75520088 268.142248 0.71029955 268.14758913 3.17579651 268.15411377 C9.18000979 268.16638596 15.18406727 268.16457216 21.1882745 268.15587585 C26.06798483 268.14910081 30.94766363 268.1481818 35.82737732 268.1514473 C36.52187193 268.151907 37.21636653 268.15236669 37.93190643 268.15284032 C39.34275712 268.1537995 40.75360779 268.15477214 42.16445845 268.1557581 C55.39414507 268.16431282 68.62376932 268.15447659 81.85344571 268.138357 C93.20522551 268.12495373 104.55691327 268.1272818 115.90869141 268.14111328 C129.09102217 268.15716766 142.27329828 268.16348883 155.45563745 268.15427649 C156.86129919 268.15332084 158.26696093 268.15237773 159.67262268 268.1514473 C160.71004245 268.15075306 160.71004245 268.15075306 161.76842019 268.15004479 C166.64229327 268.14745447 171.51613168 268.15182679 176.38999939 268.15888596 C182.94977319 268.16817808 189.50939992 268.1615628 196.06916618 268.14420319 C198.479453 268.14022981 200.88975443 268.14138686 203.30003548 268.14799118 C206.58470361 268.15616289 209.86881023 268.14593752 213.15344238 268.13095093 C214.1120956 268.13764309 215.07074882 268.14433526 216.05845213 268.15123022 C222.7437178 268.18015345 222.7437178 268.18015345 228.25 264.75 C229.00835571 261.6728759 229.00835571 261.6728759 228.88923645 258.04927063 C228.89759213 257.36475411 228.9059478 256.68023759 228.91455668 255.97497815 C228.93654515 253.67591978 228.92286358 251.37844991 228.90942383 249.0793457 C228.91787368 247.43359155 228.92851624 245.78784739 228.94119263 244.14212036 C228.969409 239.66916147 228.96685509 235.19668095 228.95889878 230.72365975 C228.95577991 226.05106756 228.98078984 221.37862939 229.00285339 216.70610046 C229.04035149 207.85572278 229.05244479 199.00549877 229.0554778 190.1550495 C229.06016239 180.0801276 229.0930664 170.00536023 229.12837565 159.93050635 C229.2003827 139.2036885 229.2368385 118.47693324 229.25 97.75 C228.26 97.75 227.27 97.75 226.25 97.75 C226.25 95.75 226.25 95.75 227.6484375 94.2421875 C232.42266499 90.33600137 235.68562479 89.1124808 241.85546875 89.44140625 C244.3512508 89.76304864 246.785369 90.24591166 249.25 90.75 C249.34350336 113.67245755 249.41400867 136.59488358 249.45724869 159.51749325 C249.47786076 170.16122252 249.50595553 180.80483319 249.55175781 191.44848633 C249.59166698 200.7271152 249.61744266 210.00565816 249.62635398 219.28437048 C249.6315618 224.19593891 249.64377394 229.10726159 249.67292023 234.01875114 C249.70015375 238.64558371 249.70842898 243.27207026 249.70243073 247.89897537 C249.70352742 249.593237 249.71143395 251.2875107 249.7268219 252.9817028 C249.8148521 263.17737286 249.07546487 270.7385552 243.5 279.5 C236.15664087 286.84335913 227.73637215 288.95625267 217.58982623 289.02214891 C216.62775834 289.01836958 215.66569045 289.01459026 214.67446899 289.01069641 C213.6333834 289.01452196 212.59229781 289.01834751 211.51966417 289.02228898 C208.04381926 289.03257778 204.56814082 289.02863462 201.09228516 289.0246582 C198.59504545 289.02900695 196.09780707 289.03419064 193.60057068 289.04014587 C187.52895046 289.05214042 181.45739525 289.05468938 175.38576914 289.05234561 C170.44849294 289.05055975 165.51123014 289.05231784 160.57395554 289.05657005 C159.87020957 289.05716524 159.1664636 289.05776043 158.441392 289.05837366 C157.01154658 289.05958546 155.58170116 289.06079959 154.15185575 289.06201603 C140.75415431 289.07288292 127.35647806 289.07073313 113.95877521 289.06463119 C101.71517331 289.05946294 89.471651 289.07071654 77.22806485 289.08972941 C64.64167765 289.10912404 52.05532807 289.11736095 39.46892583 289.11360615 C32.40850351 289.11169655 25.3481489 289.1141581 18.2877388 289.12832069 C11.64748386 289.14150623 5.00736166 289.13895242 -1.63290215 289.12590981 C-4.06689572 289.12354503 -6.5009005 289.12627512 -8.93488121 289.13453293 C-12.26360543 289.14501012 -15.59179639 289.13689136 -18.92050171 289.1242218 C-19.87810815 289.13159609 -20.8357146 289.13897037 -21.82233942 289.14656812 C-31.70667374 289.06770573 -40.57642967 286.87574653 -47.75 279.75 C-52.98155288 272.99583098 -53.89933488 267.57278297 -53.89044189 259.12261963 C-53.89341302 258.24279915 -53.89638414 257.36297866 -53.8994453 256.45649695 C-53.90813047 253.5025639 -53.9096404 250.54867138 -53.91113281 247.59472656 C-53.91576112 245.47906406 -53.92078579 243.36340239 -53.92617798 241.2477417 C-53.93930286 235.49555906 -53.94574712 229.74338809 -53.95018864 223.99119282 C-53.95311924 220.39768886 -53.95722403 216.80418809 -53.96169281 213.21068573 C-53.97536802 201.96812716 -53.98503454 190.72557589 -53.9888947 179.48300958 C-53.99337555 166.50388741 -54.01092465 153.52487056 -54.0398953 140.54578042 C-54.06150969 130.51423306 -54.07159886 120.48271533 -54.07293582 110.45114493 C-54.07398402 104.45935504 -54.07989523 98.46766413 -54.09775543 92.47589874 C-54.1142318 86.83867975 -54.11639363 81.20163421 -54.10761642 75.56439972 C-54.10684582 73.49722835 -54.11119182 71.43004767 -54.12107468 69.36289978 C-54.13379173 66.53683199 -54.12791855 63.71137874 -54.11749268 60.88531494 C-54.12554908 60.07090132 -54.13360548 59.2564877 -54.14190602 58.41739488 C-54.0748948 50.62931707 -51.88511432 44.16018069 -46.55859375 38.35546875 C-38.68724462 31.36815883 -30.85997378 30.57332085 -20.75 30.75 C-20.77094727 30.05438965 -20.79189453 29.3587793 -20.81347656 28.64208984 C-20.8969698 25.46987542 -20.94876529 22.29789269 -21 19.125 C-21.05027344 17.48337891 -21.05027344 17.48337891 -21.1015625 15.80859375 C-21.17818557 9.48719066 -21.15627687 5.47044991 -16.75 0.75 C-10.76464209 -2.75086972 -6.28434004 -2.8565182 0 0 Z " fill="#FFFFFF" transform="translate(111.75,166.25)"/>
<path d="M0 0 C16.77072763 14.36486404 28.7444141 35.80438429 31.375 57.875 C32.9001217 85.71852233 27.83267746 109.7412795 8.8125 131.1875 C7.33927862 132.75560683 5.86062083 134.31863532 4.375 135.875 C3.83617187 136.48859375 3.29734375 137.1021875 2.7421875 137.734375 C-11.15164358 152.95475276 -34.43866633 161.81256139 -54.625 162.875 C-65.04964478 163.20571287 -65.04964478 163.20571287 -69.37890625 162.296875 C-73.86679725 161.38231206 -76.50454257 161.2404704 -80.5703125 163.54296875 C-83.38674747 165.7064708 -86.07966317 167.94140407 -88.75292969 170.27587891 C-92.16706689 173.19223241 -95.75383826 175.88865545 -99.3125 178.625 C-100.85889864 179.8270635 -102.40446327 181.03020063 -103.94921875 182.234375 C-108.50645165 185.78300108 -113.06555972 189.32921079 -117.625 192.875 C-118.36419678 193.45000244 -119.10339355 194.02500488 -119.86499023 194.61743164 C-123.66435898 197.57286359 -127.46440318 200.52742048 -131.265625 203.48046875 C-132.03777344 204.08052734 -132.80992187 204.68058594 -133.60546875 205.29882812 C-135.04012899 206.41371469 -136.47499767 207.52833313 -137.91015625 208.64257812 C-139.31128447 209.73160035 -140.69994494 210.83679866 -142.07763672 211.95532227 C-144.10254101 213.48127803 -146.07564352 214.77081967 -148.23876953 216.07397461 C-155.10718718 220.34785714 -155.10718718 220.34785714 -159.390625 226.96218872 C-160.51684246 232.6348206 -160.24432375 238.31593933 -160 244.0625 C-159.97795041 245.79485202 -159.96227507 247.52729745 -159.953125 249.25976562 C-159.91718441 253.46951965 -159.79520577 257.66862253 -159.625 261.875 C-165.16088533 261.89964775 -170.696739 261.91783496 -176.23266602 261.92993164 C-178.1174373 261.93497244 -180.00220465 261.94180498 -181.88696289 261.95043945 C-184.59001636 261.96251617 -187.29301831 261.96823068 -189.99609375 261.97265625 C-190.84400986 261.97781754 -191.69192596 261.98297882 -192.5655365 261.98829651 C-194.58571068 261.98849195 -196.60577934 261.93706211 -198.625 261.875 C-199.625 260.875 -199.625 260.875 -199.73852539 257.18139648 C-199.73836624 255.53628708 -199.73266988 253.89117269 -199.72265625 252.24609375 C-199.7212413 251.38186295 -199.71982635 250.51763214 -199.71836853 249.62721252 C-199.71275239 246.85560708 -199.70019719 244.0840812 -199.6875 241.3125 C-199.68248708 239.4381522 -199.67792381 237.56380315 -199.67382812 235.68945312 C-199.66362681 231.08457979 -199.64405467 226.4798794 -199.625 221.875 C-189.395 221.875 -179.165 221.875 -168.625 221.875 C-167.965 218.575 -167.305 215.275 -166.625 211.875 C-165.78346281 208.72723832 -164.91631567 205.60508674 -163.99536133 202.48144531 C-163.73987015 201.60204788 -163.48437897 200.72265045 -163.22114563 199.81660461 C-162.67175552 197.9266626 -162.12061967 196.03722732 -161.56788063 194.14826202 C-160.69338124 191.1564256 -159.82553192 188.16273436 -158.9596405 185.168396 C-156.4992383 176.66188074 -154.03248844 168.15725741 -151.5480957 159.65771484 C-150.02427435 154.44270554 -148.51270845 149.22427688 -147.00897789 144.00344086 C-146.43506044 142.01979077 -145.85651453 140.03747367 -145.27323341 138.0565567 C-144.45940737 135.29123113 -143.6612401 132.52182473 -142.86645508 129.75097656 C-142.62288269 128.93734146 -142.3793103 128.12370636 -142.12835693 127.28541565 C-140.15629407 120.30299188 -140.89250312 115.76496906 -144.4375 109.375 C-154.42253731 90.12500018 -156.03132115 64.99127753 -149.8203125 44.2734375 C-140.66696219 18.24920622 -124.64764583 -1.83293171 -99.71142578 -14.17480469 C-93.88449398 -16.82849279 -87.81560074 -18.54921072 -81.625 -20.125 C-80.71878906 -20.36992188 -79.81257813 -20.61484375 -78.87890625 -20.8671875 C-50.90455575 -27.23888044 -21.70258371 -17.76190199 0 0 Z M-119.25390625 16.5546875 C-134.21117515 33.40730498 -140.53936099 54.39122143 -139.75683594 76.72216797 C-138.76841757 92.86267385 -131.87678886 108.51936577 -121.625 120.875 C-119.99946952 122.25818698 -118.34367037 123.60940618 -116.625 124.875 C-116.38007813 124.15957031 -116.13515625 123.44414062 -115.8828125 122.70703125 C-110.06337365 107.19521667 -100.16864325 96.40273231 -85.25 89.0625 C-79.24906244 86.49191025 -73.01368053 85.12429683 -66.625 83.875 C-69.50441942 81.95538705 -72.29859312 80.62863335 -75.4375 79.1875 C-83.79495335 75.02389537 -88.16694858 69.47579455 -91.625 60.875 C-94.17235341 52.80838088 -93.41040743 43.75414677 -89.8828125 36.15625 C-85.44967992 28.11603439 -80.42802481 23.20605947 -71.86328125 19.765625 C-63.566918 17.48387491 -53.13842668 17.49892051 -45.5078125 21.69140625 C-44.88648438 22.08199219 -44.26515625 22.47257812 -43.625 22.875 C-42.69300781 23.38353516 -42.69300781 23.38353516 -41.7421875 23.90234375 C-35.25062286 27.85067636 -32.0431029 34.39420196 -29.25 41.25 C-27.29383082 52.59578124 -28.85595272 61.53392908 -35.25 71.125 C-40.36736419 77.52494408 -47.73193566 81.15911645 -55.625 82.875 C-55.625 83.205 -55.625 83.535 -55.625 83.875 C-54.3875 84.060625 -54.3875 84.060625 -53.125 84.25 C-36.60614947 87.19979474 -22.70523973 94.37256641 -12.875 108.1875 C-9.27293643 113.4424717 -6.58282219 118.80985853 -4.625 124.875 C7.6363309 116.20235132 14.42752993 99.16704909 17.375 84.875 C20.83952494 63.89403076 16.58633265 42.42705217 4.375 24.875 C-8.07892209 7.74171775 -25.81004874 -4.51501946 -46.9609375 -7.875 C-74.52654016 -11.70355593 -99.59652392 -3.48240652 -119.25390625 16.5546875 Z " fill="#FFFFFF" transform="translate(421.625,81.125)"/>
<path d="M0 0 C13.2 0 26.4 0 40 0 C40 13.2 40 26.4 40 40 C30.3784375 40.0309375 30.3784375 40.0309375 20.5625 40.0625 C18.53552979 40.071604 16.50855957 40.08070801 14.42016602 40.09008789 C12.8230801 40.09300703 11.22599345 40.09555559 9.62890625 40.09765625 C8.79194214 40.10277222 7.95497803 40.10788818 7.09265137 40.11315918 C5.06141735 40.11346924 3.03027529 40.06240188 1 40 C0 39 0 39 -0.11352539 35.30639648 C-0.11327427 33.66128709 -0.10771184 32.01617243 -0.09765625 30.37109375 C-0.09664917 29.60543091 -0.09564209 28.83976807 -0.09460449 28.05090332 C-0.08935663 25.17975373 -0.07539547 22.30862542 -0.0625 19.4375 C-0.041875 13.023125 -0.02125 6.60875 0 0 Z " fill="#FFFFFF" transform="translate(288,303)"/>
<path d="M0 0 C12.87 0 25.74 0 39 0 C40.02740398 4.10961591 40.14425528 7.81839608 40.1328125 12.01171875 C40.13376923 12.78054886 40.13472595 13.54937897 40.13571167 14.34150696 C40.13639056 15.96115196 40.13455663 17.58079972 40.13037109 19.20043945 C40.1249967 21.68902622 40.13033714 24.1774343 40.13671875 26.66601562 C40.13605835 28.23958373 40.13477797 29.81315173 40.1328125 31.38671875 C40.13483673 32.13459152 40.13686096 32.88246429 40.13894653 33.65299988 C40.11496623 38.88503377 40.11496623 38.88503377 39 40 C36.11588825 40.08864512 33.25517191 40.11528526 30.37109375 40.09765625 C29.22259949 40.09614563 29.22259949 40.09614563 28.05090332 40.09460449 C25.17975373 40.08935663 22.30862542 40.07539547 19.4375 40.0625 C13.023125 40.041875 6.60875 40.02125 0 40 C0 26.8 0 13.6 0 0 Z " fill="#FFFFFF" transform="translate(91,303)"/>
<path d="M0 0 C13.2 0 26.4 0 40 0 C40 12.87 40 25.74 40 39 C26.8 39 13.6 39 0 39 C0 26.13 0 13.26 0 0 Z " fill="#FFFFFF" transform="translate(288,369)"/>
<path d="M0 0 C13.2 0 26.4 0 40 0 C40 12.87 40 25.74 40 39 C26.8 39 13.6 39 0 39 C0 26.13 0 13.26 0 0 Z " fill="#FFFFFF" transform="translate(222,369)"/>
<path d="M0 0 C12.87 0 25.74 0 39 0 C39 13.2 39 26.4 39 40 C26.13 40 13.26 40 0 40 C0 26.8 0 13.6 0 0 Z " fill="#FFFFFF" transform="translate(157,303)"/>
<path d="M0 0 C13.2 0 26.4 0 40 0 C40 12.87 40 25.74 40 39 C26.8 39 13.6 39 0 39 C0 26.13 0 13.26 0 0 Z " fill="#FFFFFF" transform="translate(91,369)"/>
<path d="M0 0 C12.87 0 25.74 0 39 0 C39 12.87 39 25.74 39 39 C26.13 39 13.26 39 0 39 C0 26.13 0 13.26 0 0 Z " fill="#FFFFFF" transform="translate(157,369)"/>
</svg>
