<?xml version="1.0" encoding="UTF-8"?>
<svg version="1.1" xmlns="http://www.w3.org/2000/svg" width="512" height="512">
<path d="M0 0 C3.56267725 3.55828566 5.02136576 7.10638477 5.25244141 12.12158203 C4.70386754 17.53293779 2.28566138 21.16215249 -1.54052734 24.89501953 C-10.82471702 28.9463023 -19.58982898 25.53576251 -28.78271484 22.75219727 C-72.70051235 9.59940787 -120.04380292 16.92815301 -159.97802734 38.39501953 C-160.57953613 38.71051758 -161.18104492 39.02601562 -161.80078125 39.35107422 C-175.33363131 46.47362688 -186.90093804 55.90656783 -197.97802734 66.39501953 C-198.87134766 67.23548828 -199.76466797 68.07595703 -200.68505859 68.94189453 C-229.56729381 96.89505085 -249.29403581 139.02973302 -250.14584351 179.42837524 C-250.74254942 204.6071588 -250.74254942 204.6071588 -246.97802734 229.39501953 C-246.66406006 230.66055664 -246.66406006 230.66055664 -246.34375 231.95166016 C-238.11395303 264.26511633 -223.02252313 292.41334314 -199.36083984 316.00439453 C-198.00269791 317.36698939 -196.6605876 318.74721546 -195.37255859 320.17626953 C-184.33031697 332.17277894 -169.38465791 341.01691116 -154.97802734 348.39501953 C-154.3639502 348.71164551 -153.74987305 349.02827148 -153.1171875 349.35449219 C-114.19419838 369.15197537 -66.04756489 373.39294428 -24.34375 360.17675781 C4.03092921 350.80052223 27.10271317 336.74861763 49.02197266 316.39501953 C49.91142578 315.58677734 49.91142578 315.58677734 50.81884766 314.76220703 C80.95945357 286.20039476 98.46533125 242.08359549 100.15820312 201.09667969 C100.38857172 191.22230901 100.33183955 181.42699973 99.2578125 171.60327148 C97.96925504 159.53805182 97.96925504 159.53805182 100.77197266 153.83251953 C104.1736718 150.14734545 106.93709126 147.75345337 112.07275391 147.15673828 C117.59562167 146.97550428 120.7226874 147.59565117 125.02197266 151.39501953 C133.67777638 160.53170124 131.42588144 178.81559992 131.39697266 190.64501953 C131.3960965 191.52319336 131.39522034 192.40136719 131.39431763 193.30615234 C131.29110125 224.79250535 124.56979747 253.91741081 111.02197266 282.39501953 C110.66377441 283.1486377 110.30557617 283.90225586 109.93652344 284.67871094 C92.52039598 320.66672717 62.59373175 351.77035235 27.84570312 371.36572266 C26.65282495 372.03897224 25.46412275 372.71968911 24.28027344 373.40869141 C5.58842586 384.2773996 -14.85426961 391.0935586 -35.97802734 395.39501953 C-36.85152832 395.57291016 -37.7250293 395.75080078 -38.625 395.93408203 C-90.70000934 405.94583283 -147.31851002 393.42368802 -191.05908203 363.81713867 C-194.43939818 361.43469749 -197.73085148 358.95547372 -200.97802734 356.39501953 C-201.5705127 355.92805664 -202.16299805 355.46109375 -202.7734375 354.97998047 C-245.90287449 320.45243675 -274.51450444 270.97333251 -281.15332031 215.95068359 C-286.91073235 160.61993838 -271.76201914 106.24570395 -236.83740234 62.84814453 C-232.44348854 57.48313381 -227.76309554 52.41094628 -222.97802734 47.39501953 C-222.17880859 46.54294922 -221.37958984 45.69087891 -220.55615234 44.81298828 C-214.43462453 38.46140305 -207.79340308 33.02269788 -200.75732422 27.734375 C-199.61291461 26.87292726 -198.47316234 26.00523847 -197.33935547 25.12988281 C-171.9475295 5.54212477 -140.50168149 -7.15243548 -108.97802734 -12.60498047 C-107.84236328 -12.80994141 -106.70669922 -13.01490234 -105.53662109 -13.22607422 C-76.4989175 -17.54450193 -23.97907027 -19.45672771 0 0 Z " fill="#FFFFFF" transform="translate(325.97802734375,65.60498046875)"/>
<path d="M0 0 C1.875 1.1875 1.875 1.1875 3 3 C2.55021556 7.3505012 0.68579331 10.90136746 -1.25 14.75 C-14.473329 42.21488498 -15.48333813 73.91892943 -5.46533203 102.62329102 C2.92105136 125.39609251 18.00716587 146.26886188 39 159 C39.86109375 159.5671875 40.7221875 160.134375 41.609375 160.71875 C66.69248531 176.51695207 97.84130674 180.40352545 126.56689453 174.56982422 C134.70284343 172.66441536 142.55717203 169.67702566 150.36328125 166.73046875 C151.66845703 166.36888672 151.66845703 166.36888672 153 166 C155.375 167.375 155.375 167.375 157 169 C156.48618152 175.02131029 154.62443127 179.71139214 152 185.125 C151.39442261 186.38123169 151.39442261 186.38123169 150.77661133 187.6628418 C135.34330646 218.89812437 107.397966 242.03953841 74.7265625 253.55859375 C40.04684896 264.94136088 3.407272 261.26721291 -29 245 C-60.42900733 228.00452072 -84.49423258 199.23370283 -95 165 C-104.55435099 129.23922977 -100.30810385 93.09049456 -82.125 60.75 C-66.66894653 34.14390843 -42.7647077 13.86746438 -14 3 C-13.11054688 2.66097656 -12.22109375 2.32195312 -11.3046875 1.97265625 C-3.88245642 -0.68513937 -3.88245642 -0.68513937 0 0 Z " fill="#FFFFFF" transform="translate(217,131)"/>
<path d="M0 0 C0.79859436 -0.0065712 1.59718872 -0.0131424 2.41998291 -0.01991272 C5.07010997 -0.03966621 7.72018023 -0.05131448 10.37036133 -0.0612793 C11.2754928 -0.06535482 12.18062428 -0.06943035 13.11318398 -0.07362938 C17.9063456 -0.0945015 22.69947852 -0.10879677 27.49267578 -0.11816406 C32.4379971 -0.12921495 37.38286677 -0.16359623 42.32802868 -0.20333576 C46.13453492 -0.22951813 49.94093399 -0.23785747 53.74752235 -0.24144554 C55.56992954 -0.2463094 57.392332 -0.25791767 59.21465111 -0.27648354 C61.77106513 -0.3009038 64.32631687 -0.29990466 66.8828125 -0.29296875 C68.00451591 -0.31218384 68.00451591 -0.31218384 69.14888 -0.33178711 C74.60001108 -0.27810497 77.75333485 1.09856636 82.26489258 4.17700195 C86.24622992 8.46459601 86.72418027 12.00144171 86.79614258 17.61450195 C85.64979198 23.14395776 81.48375357 27.20659624 77.58813477 31.08081055 C76.6674823 32.00131195 75.74682983 32.92181335 74.79827881 33.87020874 C73.80288284 34.85539455 72.80737655 35.84046891 71.81176758 36.82543945 C70.78571548 37.8477563 69.76010783 38.8705194 68.73492432 39.89370728 C66.04982116 42.57121427 63.3587644 45.24265744 60.66638184 47.9128418 C57.91431577 50.64436246 55.16797997 53.38163139 52.42114258 56.1184082 C47.04128749 61.47688433 41.65512367 66.82896127 36.26489258 72.17700195 C37.40966064 72.18634766 38.55442871 72.19569336 39.73388672 72.20532227 C44.00396838 72.24536394 48.27334028 72.31116147 52.54296875 72.38452148 C54.3866256 72.41264917 56.23040121 72.43390434 58.07421875 72.44799805 C60.73344355 72.46954186 63.39125292 72.51624865 66.05004883 72.56762695 C67.27547142 72.56946991 67.27547142 72.56946991 68.52565002 72.5713501 C74.21990713 72.71525081 77.56315727 73.92783831 82.26489258 77.17700195 C85.5109987 80.67280854 86.55820476 83.44621853 86.82739258 88.11450195 C86.61149379 93.23438748 85.01537265 96.68581433 81.26489258 100.17700195 C77.01960388 103.35472481 73.30680341 103.61191989 68.17333984 103.58105469 C66.97238174 103.59134956 66.97238174 103.59134956 65.74716187 103.60185242 C63.10835894 103.62010933 60.47015119 103.61628454 57.83129883 103.6105957 C55.99193631 103.6151581 54.1525755 103.62046385 52.31321716 103.6264801 C48.46069406 103.63540907 44.60837828 103.6329906 40.75585938 103.62304688 C35.82503232 103.61155856 30.89492154 103.63176756 25.96418858 103.66096401 C22.16626967 103.67933268 18.36852219 103.67903221 14.57056999 103.67332649 C12.75293918 103.67317335 10.93529669 103.67921158 9.11770821 103.69161797 C6.57329842 103.70653867 4.03020904 103.69584372 1.48583984 103.67871094 C0.73915543 103.68837891 -0.00752899 103.69804687 -0.77684021 103.70800781 C-5.90387381 103.63591721 -8.77475034 102.38287205 -12.73510742 99.17700195 C-16.66457209 94.83390942 -17.1942077 91.36718055 -17.26635742 85.73950195 C-16.12000683 80.21004615 -11.95396842 76.14740767 -8.05834961 72.27319336 C-7.13769714 71.35269196 -6.21704468 70.43219055 -5.26849365 69.48379517 C-4.27309769 68.49860935 -3.2775914 67.513535 -2.28198242 66.52856445 C-1.25593032 65.5062476 -0.23032267 64.4834845 0.79486084 63.46029663 C3.479964 60.78278964 6.17102075 58.11134647 8.86340332 55.44116211 C11.61546938 52.70964144 14.36180518 49.97237252 17.10864258 47.2355957 C22.48849767 41.87711957 27.87466149 36.52504264 33.26489258 31.17700195 C32.04906494 31.16241943 30.8332373 31.14783691 29.58056641 31.1328125 C25.0609018 31.07475097 20.54173131 30.99751836 16.02246094 30.91455078 C14.06811556 30.88133841 12.11367511 30.853295 10.15917969 30.83056641 C7.34634976 30.79695262 4.53438811 30.74463341 1.72192383 30.6887207 C0.8509053 30.68233078 -0.02011322 30.67594086 -0.91752625 30.6693573 C-7.4448612 30.51188341 -10.73690258 29.12979305 -15.48510742 24.48950195 C-18.22671643 20.96457609 -19.16009999 17.62692412 -18.73510742 13.17700195 C-17.072053 7.82799651 -14.45188894 4.28014769 -9.73510742 1.17700195 C-6.64755982 -0.36677185 -3.38950428 0.01202503 0 0 Z " fill="#FFFFFF" transform="translate(380.735107421875,64.822998046875)"/>
<path d="M0 0 C0.99569504 -0.0098568 0.99569504 -0.0098568 2.01150513 -0.01991272 C4.20648314 -0.03960984 6.40139286 -0.05130021 8.59643555 -0.0612793 C9.34744223 -0.06535482 10.09844891 -0.06943035 10.87221336 -0.07362938 C14.84726052 -0.0944748 18.82227332 -0.10878311 22.79736328 -0.11816406 C26.89643858 -0.12922564 30.9949706 -0.16362638 35.09385395 -0.20333576 C38.25179533 -0.22951867 41.40960756 -0.23785734 44.56764793 -0.24144554 C46.0782863 -0.24630718 47.58891907 -0.25790926 49.09945107 -0.27648354 C51.2177768 -0.3009126 53.33470064 -0.29990421 55.453125 -0.29296875 C57.25823296 -0.30176811 57.25823296 -0.30176811 59.09980774 -0.31074524 C64.10047317 0.42372426 67.13261746 2.95858873 70.7331543 6.36450195 C73.00273383 10.14713451 73.81882769 13.76813658 73.4206543 18.17700195 C68.3756896 29.5504868 57.59421979 38.13530147 48.8581543 46.80200195 C47.74268347 47.91244156 46.62744769 49.02311734 45.51245117 50.1340332 C42.81787799 52.81774354 40.12017757 55.49827131 37.4206543 58.17700195 C38.05044189 58.19158447 38.68022949 58.20616699 39.32910156 58.22119141 C42.21436751 58.29619189 45.09854152 58.39267835 47.9831543 58.48950195 C48.97379883 58.51206055 49.96444336 58.53461914 50.98510742 58.55786133 C58.33333342 58.82640115 63.46953201 59.68494313 69.2331543 64.55200195 C72.60749747 68.60121376 73.647477 71.38039127 73.3581543 76.61450195 C72.65227789 81.54742896 71.05219974 83.78755954 67.4206543 87.17700195 C63.03262249 89.78398823 59.79738302 90.5598135 54.71606445 90.59692383 C52.74339096 90.62079163 52.74339096 90.62079163 50.73086548 90.6451416 C49.3071498 90.64640907 47.88343279 90.64658559 46.4597168 90.64575195 C44.98529778 90.65286136 43.51088151 90.66056149 42.03646851 90.66882324 C38.95156153 90.68224079 35.86691034 90.68384946 32.78198242 90.67797852 C28.84548948 90.67208784 24.91023222 90.70265847 20.97397804 90.7430954 C17.92999765 90.76905634 14.88631139 90.77184226 11.84223557 90.76820374 C10.39186882 90.76988748 8.94148739 90.77945777 7.49123001 90.79734802 C-0.5666184 90.88581084 -7.33350522 90.87575856 -13.5793457 85.17700195 C-17.01284387 81.42161334 -16.95955427 77.64956172 -17.07543945 72.7746582 C-15.77192233 65.94915515 -9.7134084 61.04592157 -4.9699707 56.37231445 C-4.24316101 55.64833466 -3.51635132 54.92435486 -2.76751709 54.17843628 C-0.45947051 51.88152815 1.85545404 49.59169699 4.1706543 47.30200195 C5.74272916 45.73996505 7.31434879 44.17746985 8.88549805 42.61450195 C12.72529581 38.79668046 16.57075518 34.98463556 20.4206543 31.17700195 C19.60387207 31.16765625 18.78708984 31.15831055 17.94555664 31.14868164 C14.22831923 31.09484688 10.5123223 31.01122202 6.7956543 30.92700195 C4.86786133 30.90573242 4.86786133 30.90573242 2.90112305 30.8840332 C-8.90200166 30.57825277 -8.90200166 30.57825277 -13.5793457 26.17700195 C-17.51647923 21.82543332 -18.20925548 18.26235918 -17.9699707 12.5793457 C-17.23250718 8.04394501 -14.8777161 5.31799412 -11.5168457 2.36450195 C-7.68330319 0.01491138 -4.39849348 0.03605247 0 0 Z " fill="#FFFFFF" transform="translate(268.579345703125,152.822998046875)"/>
</svg>
