<?xml version="1.0" encoding="UTF-8"?>
<svg version="1.1" xmlns="http://www.w3.org/2000/svg" width="512" height="512">
<path d="M0 0 C1.45688603 -0.00807831 1.45688603 -0.00807831 2.9432041 -0.01631981 C6.17098288 -0.03053306 9.3983477 -0.02351199 12.62614441 -0.01637268 C14.95132779 -0.02207976 17.27650838 -0.02904532 19.60168457 -0.03717041 C25.89932565 -0.05508088 32.19682722 -0.05393718 38.49448609 -0.04822803 C44.42735773 -0.04474051 50.36020824 -0.05270616 56.29307529 -0.05958868 C68.76333308 -0.07329451 81.23352803 -0.0678899 93.70378437 -0.05640347 C105.08844847 -0.0464766 116.47294991 -0.05940564 127.85758892 -0.08333766 C139.57282372 -0.10777732 151.28798292 -0.11732439 163.00324267 -0.11068493 C169.57023462 -0.1073207 176.13709227 -0.10969496 182.70406532 -0.12693596 C188.8823252 -0.14244902 195.06027564 -0.13840087 201.23852348 -0.11963081 C203.49871386 -0.11595683 205.75892739 -0.1190184 208.01909637 -0.1295166 C228.25898861 -0.21630962 243.2697985 2.63087637 258.52922058 16.98143005 C267.93520867 26.73578807 273.95914397 39.44985688 273.98375416 53.12033844 C273.988212 54.27179714 273.99266985 55.42325583 273.99726278 56.60960722 C273.99698623 58.50047898 273.99698623 58.50047898 273.9967041 60.42955017 C274.00000507 61.78578563 274.00373112 63.14202011 274.00784558 64.49825335 C274.01784739 68.22437948 274.02157945 71.95048951 274.02423489 75.67662716 C274.02814338 79.69591898 274.03772138 83.71519811 274.04644775 87.73448181 C274.06619741 97.44110739 274.07627675 107.147734 274.08517554 116.85437465 C274.08956115 121.42822636 274.09492727 126.00207693 274.10016441 130.57592773 C274.11717566 145.78553273 274.1316689 160.99513701 274.13891315 176.20475006 C274.14082297 180.15049236 274.14274332 184.09623465 274.1446991 188.04197693 C274.14518284 189.02264226 274.14566658 190.00330759 274.14616498 191.01369005 C274.15446182 206.89288144 274.17979336 222.77199742 274.21227977 238.65115589 C274.24537884 254.96310747 274.26336451 271.27502076 274.2665574 287.58700609 C274.26871992 296.74183867 274.27743075 305.89656129 274.30301857 315.05136108 C274.32476454 322.8495304 274.33275688 330.64756304 274.32305179 338.44575924 C274.31851827 342.42108446 274.32033763 346.39612792 274.33981323 350.37141418 C274.35752635 354.01862168 274.3563821 357.66534357 274.34091594 361.3125568 C274.33744177 363.24032854 274.3535052 365.16810587 274.37052041 367.09580564 C274.249231 383.66635263 268.06291819 397.83671064 256.69328308 409.8056488 C249.6066459 416.24008174 241.20586402 421.17651591 231.84953308 423.38768005 C231.1786692 423.55939319 230.50780533 423.73110632 229.81661224 423.90802288 C225.66172407 424.57970092 221.57871275 424.53571691 217.37626648 424.53485107 C216.41744835 424.53852776 215.45863023 424.54220445 214.47075701 424.54599255 C211.25521339 424.5570128 208.03970212 424.56087045 204.82414246 424.56468201 C202.51940305 424.57094799 200.21466466 424.57759491 197.90992737 424.58459473 C190.33771975 424.60562425 182.76551195 424.61599716 175.19328308 424.6259613 C172.58431996 424.63000949 169.97535695 424.63412643 167.36639404 424.63831139 C156.51116449 424.65517941 145.65593785 424.66981317 134.80069733 424.67706013 C131.98592121 424.67896983 129.1711451 424.68089019 126.35636902 424.68284607 C125.3070477 424.68357168 125.3070477 424.68357168 124.23652798 424.68431195 C112.91622313 424.69260393 101.59602423 424.71792781 90.2757656 424.75042675 C78.6375428 424.78356441 66.99937918 424.80118271 55.36110926 424.80470437 C48.83314717 424.80705168 42.30535258 424.81597085 35.7774353 424.84116554 C29.6312777 424.86450342 23.48539718 424.86865633 17.3392067 424.85840416 C15.09029848 424.85791006 12.84137636 424.86419313 10.59251022 424.87796021 C-10.61340694 425.0004556 -25.60198459 421.67037636 -41.15046692 406.38768005 C-41.72925598 405.82178162 -42.30804504 405.25588318 -42.90437317 404.6728363 C-53.06068238 393.82706485 -55.4523799 381.11007151 -55.41789246 366.87078857 C-55.42163176 365.48736406 -55.4262344 364.10394166 -55.4316231 362.72052258 C-55.44383415 358.92855223 -55.44359487 355.13667024 -55.44123435 351.34468472 C-55.4408257 347.25113835 -55.45187001 343.15762012 -55.46134949 339.06408691 C-55.47795054 331.04721173 -55.48345865 323.03036597 -55.48457424 315.01347504 C-55.48552523 308.49486155 -55.48963808 301.97625775 -55.49597549 295.45764732 C-55.51358621 276.96637786 -55.52281474 258.47513159 -55.52131455 239.98385368 C-55.52123463 238.98733367 -55.52115472 237.99081366 -55.52107239 236.96409607 C-55.52099063 235.96635574 -55.52090887 234.96861541 -55.52082463 233.94064053 C-55.52001199 217.7763696 -55.53914448 201.61219192 -55.56734912 185.44794796 C-55.59609697 168.84099952 -55.60988834 152.23409653 -55.60816157 135.62712258 C-55.60749828 126.30747966 -55.61296374 116.98793446 -55.63451767 107.66831398 C-55.65275458 99.73218407 -55.65705629 91.79619617 -55.64349882 83.86005435 C-55.63698154 79.81396225 -55.63680678 75.7681424 -55.65420532 71.72207642 C-55.66999666 68.01146377 -55.66701137 64.30133786 -55.64963706 60.59073665 C-55.64514243 58.62653896 -55.66017688 56.66232581 -55.67611635 54.69818765 C-55.57566188 41.70125548 -51.62992793 31.87946403 -44.15046692 21.38768005 C-43.40796692 20.33580505 -42.66546692 19.28393005 -41.90046692 18.20018005 C-30.4900741 6.53046012 -16.29336328 -0.11026843 0 0 Z M38.84953308 73.38768005 C38.24754089 73.91490662 37.64554871 74.44213318 37.02531433 74.9853363 C21.08627109 89.51252956 12.08156919 113.21263163 10.72306824 134.35594177 C9.84886862 157.79228692 15.60980016 177.50588039 27.84953308 197.38768005 C30.43774953 194.8182188 32.99391526 192.23565411 35.50578308 189.59080505 C52.88972288 171.40278925 73.52553195 162.64261974 97.84953308 157.38768005 C97.00648621 156.9719574 97.00648621 156.9719574 96.14640808 156.5478363 C85.05929428 150.9477125 76.91033839 144.73841033 72.54093933 132.74705505 C69.49448715 122.35125214 70.65421428 113.37476641 74.84953308 103.38768005 C80.71318627 93.42689198 88.59823629 88.11496948 99.61125183 85.0790863 C109.65528214 82.93458285 118.80758012 84.6451644 127.53703308 90.07518005 C135.5857554 95.84864518 141.09550355 103.1008057 143.43156433 112.8056488 C145.16050269 123.4862867 143.26913373 132.25598234 138.03703308 141.63768005 C132.15209763 149.03588463 126.72073597 152.90657512 117.84953308 156.38768005 C118.17953308 157.04768005 118.50953308 157.70768005 118.84953308 158.38768005 C121.55901767 159.05147361 124.23755595 159.61495864 126.97453308 160.13768005 C146.24400725 164.16775949 161.76559615 172.60608166 175.84953308 186.38768005 C176.85306824 187.36801208 176.85306824 187.36801208 177.87687683 188.3681488 C179.54990773 190.02703145 181.202144 191.70340913 182.84953308 193.38768005 C184.1816807 194.72219805 185.51475597 196.05579207 186.84953308 197.38768005 C193.08376148 188.14709786 197.50798737 179.01124793 200.84953308 168.38768005 C201.19113464 167.31518005 201.53273621 166.24268005 201.88468933 165.13768005 C208.17157572 141.2767531 203.75630751 114.64397293 191.94084167 93.24217224 C189.01677671 88.27322425 185.55393015 83.80224651 181.84953308 79.38768005 C181.17535339 78.53947693 180.50117371 77.6912738 179.80656433 76.81736755 C166.09674593 60.40674065 146.49001574 50.7525133 125.84953308 46.38768005 C124.96136902 46.1968988 124.07320496 46.00611755 123.15812683 45.80955505 C90.740201 41.67598246 62.40976798 50.90024044 38.84953308 73.38768005 Z M4.84953308 277.38768005 C3.88070237 280.57098097 3.44004192 282.46931115 4.81462002 285.55208778 C7.94279329 288.37385486 11.27829662 287.93247993 15.28314209 287.88215637 C16.58956528 287.88939962 16.58956528 287.88939962 17.92238086 287.89678919 C20.85225718 287.90809628 23.78126769 287.89071381 26.71110535 287.8735199 C28.80680071 287.87566485 30.90249492 287.87954118 32.9981842 287.88502502 C38.69848887 287.8947386 44.39848151 287.87939034 50.09874845 287.85911894 C56.05424234 287.84158667 62.00972604 287.84507226 67.96524048 287.84584045 C77.96668234 287.84396597 87.96800301 287.8265813 97.96940613 287.79930115 C109.54662678 287.76784022 121.12371469 287.75730516 132.700975 287.75877225 C143.82127772 287.75999132 154.94153702 287.74979468 166.06182671 287.73318863 C170.80223364 287.72611207 175.54262522 287.72246058 180.28303719 287.72140121 C185.86030467 287.71939777 191.43745991 287.70723277 197.0146904 287.68706894 C199.06663132 287.68120838 201.11858516 287.67877033 203.17053413 287.67992401 C205.96144616 287.68089968 208.75203987 287.66965114 211.54290771 287.65510559 C212.77425763 287.6597514 212.77425763 287.6597514 214.03048331 287.66449106 C218.40778872 287.7992723 218.40778872 287.7992723 221.84953308 285.38768005 C222.33668152 280.860048 222.33668152 280.860048 220.85193634 276.68841267 C217.64047585 274.60229371 214.20546316 274.97971914 210.49858093 275.01345825 C209.63650481 275.00948385 208.77442868 275.00550944 207.88622904 275.0014146 C204.98646143 274.99176063 202.08717793 275.0036284 199.18742371 275.0153656 C197.1130556 275.01293866 195.03868865 275.00922029 192.96432495 275.00430298 C187.32185698 274.99487701 181.67956196 275.00433378 176.03710747 275.01763511 C170.14080139 275.02892855 164.24450409 275.02484373 158.34819031 275.02288818 C148.44512599 275.02200454 138.54213003 275.0331003 128.63908386 275.05149841 C117.17890161 275.07266709 105.71881954 275.07617632 94.25862169 275.06993645 C83.24831852 275.06424776 72.23805075 275.06988262 61.22775269 275.08111 C56.53561755 275.08576255 51.84350401 275.08662701 47.15136719 275.08452415 C41.62909639 275.0826447 36.106928 275.0907187 30.58468056 275.10658455 C28.55412024 275.1108381 26.52354955 275.1116708 24.49298668 275.10889435 C21.728706 275.10568728 18.96473414 275.11471702 16.20048523 275.12698364 C14.98517742 275.12131466 14.98517742 275.12131466 13.74531794 275.11553115 C9.91479436 275.14575678 8.11421192 275.2112275 4.84953308 277.38768005 Z M4.84953308 320.38768005 C3.59800049 322.72863537 3.59800049 322.72863537 3.84953308 325.38768005 C5.24439781 328.17201835 5.24439781 328.17201835 7.84953308 330.38768005 C10.84723613 330.88477947 13.27854846 331.05588391 16.27604675 331.00914001 C17.13418818 331.01552884 17.99232962 331.02191766 18.87647533 331.02850008 C21.75728933 331.0437832 24.63673533 331.02326705 27.51750183 331.00291443 C29.58054562 331.00641463 31.64358672 331.01207206 33.70661926 331.01972961 C39.31408872 331.0340017 44.92106923 331.0168921 50.52849197 330.99344444 C56.3909565 330.97336945 62.25340006 330.97921325 68.1158905 330.98155212 C77.96175726 330.98149852 87.80743235 330.96171984 97.65324402 330.92967224 C109.04359687 330.89277794 120.43369855 330.88399633 131.82410336 330.89096975 C142.77195574 330.89727049 153.71972179 330.88652841 164.66755676 330.86700439 C169.33096037 330.85882012 173.99431991 330.85612274 178.6577301 330.85769653 C184.14724519 330.85857415 189.63652081 330.84439242 195.12597275 330.81847 C197.14320592 330.81129514 199.16046454 330.80923089 201.17770767 330.81258774 C203.92640652 330.81628993 206.67440163 330.80159897 209.42301941 330.78208923 C210.22573871 330.78741716 211.028458 330.79274508 211.85550213 330.79823446 C215.07752048 330.75864119 217.4619818 330.59081201 220.34103394 329.08177948 C222.18244433 327.3197105 222.18244433 327.3197105 222.41203308 323.88768005 C222.23155911 320.33624527 222.23155911 320.33624527 219.84101105 318.69273949 C215.99782934 317.01611656 212.53973378 316.9717463 208.42338562 317.00672913 C207.57734599 317.00204915 206.73130635 316.99736918 205.85962915 316.99254739 C203.02602599 316.98058587 200.19290542 316.99005916 197.35929871 316.99949646 C195.32728798 316.99543128 193.29527947 316.9900897 191.26327515 316.98356628 C185.74476142 316.9698806 180.22641579 316.97519656 174.70789909 316.98470354 C168.93532225 316.99229361 163.1627599 316.98525634 157.3901825 316.98054504 C147.69577955 316.9750856 138.00144515 316.9822841 128.30705261 316.99656677 C117.09564105 317.01289361 105.88439315 317.00760524 94.67298555 316.99108756 C85.05079131 316.97747811 75.42864636 316.97555039 65.8064456 316.98340356 C60.05790747 316.98808304 54.30944629 316.98869734 48.56091309 316.9787941 C43.15676517 316.97013463 37.75282846 316.97612782 32.34870338 316.99347687 C30.36413232 316.99744714 28.37954351 316.99629844 26.39497948 316.98968887 C23.68830568 316.98150475 20.98231095 316.99175707 18.27568054 317.00672913 C17.48822905 317.00003696 16.70077756 316.9933448 15.8894639 316.98644984 C11.38106128 317.03490244 8.41261681 317.54977183 4.84953308 320.38768005 Z M47.84953308 364.38768005 C47.26602803 366.9305863 47.26602803 366.9305863 47.84953308 369.38768005 C49.50561266 371.61700118 50.39418176 372.31280647 53.16246796 372.76799679 C54.07759911 372.77042668 54.99273026 372.77285658 55.93559265 372.77536011 C57.51292931 372.79021706 57.51292931 372.79021706 59.12213135 372.80537415 C60.85214638 372.79862167 60.85214638 372.79862167 62.61711121 372.79173279 C63.83192673 372.79859604 65.04674225 372.80545929 66.29837036 372.81253052 C69.63112087 372.8277118 72.96331286 372.82928842 76.29605675 372.82358813 C79.07702617 372.82050088 81.85794476 372.82658345 84.63890696 372.83262688 C91.19825361 372.84667978 97.75747005 372.84510417 104.31681824 372.83372498 C111.08740626 372.822239 117.8575984 372.83632535 124.62813425 372.86312145 C130.43883766 372.88525906 136.24941661 372.89192037 142.06015921 372.88604504 C145.53171868 372.88267001 149.00302427 372.88512636 152.47454834 372.90229607 C156.34384258 372.92059759 160.2126476 372.90659808 164.08195496 372.88938904 C165.23529831 372.89905701 166.38864166 372.90872498 167.57693481 372.91868591 C168.62849258 372.90885178 169.68005035 372.89901764 170.76347351 372.8888855 C171.67860466 372.88867621 172.59373581 372.88846693 173.53659821 372.8882513 C175.99320075 372.57607652 175.99320075 372.57607652 177.6752243 370.55166721 C179.11454805 368.33955884 179.11454805 368.33955884 178.72453308 365.26268005 C178.09131351 362.09062179 178.09131351 362.09062179 174.84953308 360.38768005 C172.5016344 360.08089725 172.5016344 360.08089725 169.84613037 360.12025452 C168.81284607 360.11172455 167.77956177 360.10319458 166.71496582 360.09440613 C165.58189499 360.0953125 164.44882416 360.09621887 163.28141785 360.09715271 C162.08771576 360.09043549 160.89401367 360.08371826 159.66413879 360.07679749 C156.38931935 360.06103908 153.11465201 360.05444158 149.83979917 360.05316591 C147.10615336 360.05126683 144.37253189 360.04390929 141.63889545 360.03682172 C135.18980834 360.02053542 128.74077707 360.01565303 122.29167175 360.01707458 C115.63813325 360.01827646 108.9849189 359.99716633 102.33146244 359.96558726 C96.61926928 359.93944141 90.9071821 359.92870655 85.19492954 359.9299854 C81.78312247 359.9304955 78.37160352 359.92478667 74.95985603 359.9036293 C71.15530893 359.88409872 67.35160263 359.88975716 63.54704285 359.90184021 C62.41599625 359.8906012 61.28494965 359.87936218 60.11962891 359.86778259 C58.56547272 359.88036606 58.56547272 359.88036606 56.97991943 359.89320374 C55.63072843 359.89156943 55.63072843 359.89156943 54.25428104 359.88990211 C51.0662811 360.54981162 49.85903691 361.88064745 47.84953308 364.38768005 Z " fill="#FFFFFF" transform="translate(129.1504669189453,45.61231994628906)"/>
<path d="M0 0 C13.96428571 0 13.96428571 0 19 3 C21.56361571 5.83215661 22.38052733 7.68768433 22.45166016 11.48974609 C22.4740274 12.37101166 22.49639465 13.25227722 22.5194397 14.1602478 C22.52591522 15.1051004 22.53239075 16.049953 22.5390625 17.0234375 C22.55141937 18.00236969 22.56377625 18.98130188 22.57650757 19.98989868 C22.59606255 22.05928577 22.60730393 24.12876573 22.61083984 26.19824219 C22.62492291 29.35770454 22.69225961 32.51320834 22.76171875 35.671875 C22.77411811 37.68487828 22.78333726 39.69790417 22.7890625 41.7109375 C22.82913925 43.12214371 22.82913925 43.12214371 22.87002563 44.56185913 C22.82399496 49.02480866 22.47334065 52.26599854 19.38818359 55.64306641 C15 58 15 58 0 58 C0 38.86 0 19.72 0 0 Z " fill="#FFFFFF" transform="translate(416,356)"/>
<path d="M0 0 C16 0 16 0 21 4 C22.15630852 6.31261703 22.15040238 7.70312102 22.19287109 10.27856445 C22.21696548 11.60553093 22.21696548 11.60553093 22.24154663 12.95930481 C22.28599715 17.00696052 22.32706141 21.05445222 22.35009766 25.10229492 C22.36665841 27.23717143 22.39394988 29.37199246 22.43212891 31.5065918 C22.48689333 34.5841143 22.50877113 37.66033711 22.5234375 40.73828125 C22.54610687 41.69052078 22.56877625 42.64276031 22.59213257 43.62385559 C22.57730315 48.2760746 22.53887378 50.31091693 19.59228516 54.07885742 C12.55202456 59.29639469 12.7155666 57 0 57 C0 38.19 0 19.38 0 0 Z " fill="#FFFFFF" transform="translate(416,272)"/>
<path d="M0 0 C15 0 15 0 21 4 C22.15837176 6.31674352 22.14443667 7.6986108 22.17700195 10.27856445 C22.18983719 11.16320877 22.20267242 12.04785309 22.21589661 12.95930481 C22.22328354 13.91761703 22.23067047 14.87592926 22.23828125 15.86328125 C22.246353 16.84741501 22.25442474 17.83154877 22.26274109 18.84550476 C22.27658665 20.93108353 22.28730668 23.016685 22.29516602 25.10229492 C22.31237493 28.28933755 22.35625667 31.47534191 22.40039062 34.66210938 C22.41051779 36.68749236 22.41903382 38.71288418 22.42578125 40.73828125 C22.44328934 41.69052078 22.46079742 42.64276031 22.47883606 43.62385559 C22.46470139 47.94363998 22.41092939 50.33467319 20.09838867 54.07885742 C13.78330169 59.86052345 11.81812001 57 0 57 C0 38.19 0 19.38 0 0 Z " fill="#FFFFFF" transform="translate(416,102)"/>
<path d="M0 0 C15 0 15 0 21 4 C22.15630852 6.31261703 22.15040238 7.70312102 22.19287109 10.27856445 C22.21696548 11.60553093 22.21696548 11.60553093 22.24154663 12.95930481 C22.28599715 17.00696052 22.32706141 21.05445222 22.35009766 25.10229492 C22.36665841 27.23717143 22.39394988 29.37199246 22.43212891 31.5065918 C22.48689333 34.5841143 22.50877113 37.66033711 22.5234375 40.73828125 C22.54610687 41.69052078 22.56877625 42.64276031 22.59213257 43.62385559 C22.57730315 48.2760746 22.53887378 50.31091693 19.59228516 54.07885742 C12.55202456 59.29639469 12.7155666 57 0 57 C0 38.19 0 19.38 0 0 Z " fill="#FFFFFF" transform="translate(416,187)"/>
</svg>
