<?xml version="1.0" encoding="UTF-8"?>
<svg version="1.1" xmlns="http://www.w3.org/2000/svg" width="512" height="512">
<path d="M0 0 C1.72055672 -0.00842072 3.44110421 -0.01894918 5.16163635 -0.03141785 C9.81880764 -0.05841113 14.475442 -0.05377967 19.13265681 -0.04171729 C23.02675465 -0.03457233 26.92075405 -0.04309455 30.81484419 -0.05162269 C40.00425759 -0.07155757 49.19341073 -0.06602542 58.3828125 -0.04394531 C67.84995766 -0.02158378 77.31642083 -0.03918149 86.78350157 -0.0769946 C94.92476552 -0.10826502 103.06581876 -0.11613346 111.20713526 -0.10504085 C116.06384933 -0.09856497 120.92017003 -0.10050244 125.7768383 -0.12436485 C130.34492969 -0.14566777 134.9120616 -0.13757341 139.480093 -0.10727119 C141.15175967 -0.10096126 142.82350138 -0.10476235 144.49511337 -0.11968231 C159.69410621 -0.24429513 159.69410621 -0.24429513 166.4161005 4.96814251 C172.36514399 11.03325107 174.22664847 16.97309884 174.23226929 25.32130432 C174.23884267 26.50287948 174.23884267 26.50287948 174.24554884 27.70832485 C174.25893876 30.35665907 174.2651162 33.00496002 174.27124023 35.65332031 C174.2791412 37.54884491 174.28741015 39.44436801 174.29602051 41.33988953 C174.32224649 47.57382774 174.33755111 53.80777269 174.35180664 60.04174805 C174.35716653 62.18829795 174.36254404 64.33484781 174.367939 66.48139763 C174.38957068 75.41242293 174.40830618 84.34344643 174.41956139 93.27449131 C174.43579166 106.0689728 174.46894393 118.86315017 174.52596223 131.65751702 C174.56469252 140.65553622 174.58419789 149.65347419 174.58948195 158.65157455 C174.59313183 164.02426392 174.60511433 169.39662896 174.63758469 174.76922798 C174.66771859 179.82789002 174.67395805 184.88603238 174.66220093 189.94476509 C174.66198062 191.79664042 174.67024981 193.64854022 174.68785477 195.50033188 C174.85350886 213.93556307 174.85350886 213.93556307 169.07836914 221.6628418 C166.72680664 223.91674805 166.72680664 223.91674805 164.45336914 225.2253418 C163.69797852 225.68038086 162.94258789 226.13541992 162.16430664 226.60424805 C158.0752744 228.67939362 154.82161442 228.7944649 150.28634644 228.81001282 C149.5918458 228.81368951 148.89734516 228.81736619 148.18179905 228.8211543 C145.84897512 228.83218855 143.51619573 228.83603456 141.18334961 228.83984375 C139.51280069 228.84610871 137.84225316 228.85275554 136.17170715 228.85975647 C130.67966686 228.88079919 125.18762628 228.8911605 119.69555664 228.90112305 C117.80405793 228.90517082 115.91255936 228.90928775 114.02106094 228.91347313 C105.13262318 228.93252693 96.24419373 228.94675637 87.35573947 228.9550851 C77.10179014 228.96485224 66.84805698 228.9911573 56.5941838 229.03158599 C48.665384 229.06177234 40.73664606 229.07655645 32.80778992 229.07986611 C28.0740113 229.08221414 23.34046356 229.09114214 18.60674667 229.11632729 C14.14975384 229.13965647 9.6931431 229.14382183 5.23610497 229.1335659 C3.60473673 229.13307157 1.97334938 229.1393616 0.34203911 229.15312195 C-9.30911994 229.22994218 -17.24981045 228.89540227 -25.26147461 222.91674805 C-25.78870117 222.35858398 -26.31592773 221.80041992 -26.85913086 221.2253418 C-27.4044043 220.66975586 -27.94967773 220.11416992 -28.51147461 219.54174805 C-31.99665841 214.8980544 -32.21092639 210.29083036 -32.18232727 204.661026 C-32.18615282 203.86061101 -32.18997836 203.06019602 -32.19391984 202.23552603 C-32.20422974 199.5563644 -32.20026152 196.87741789 -32.19628906 194.19824219 C-32.20063663 192.27622784 -32.20581993 190.35421523 -32.21177673 188.4322052 C-32.22517274 183.21323708 -32.22574475 177.99434135 -32.22321343 172.77535939 C-32.22214419 168.4188877 -32.22702588 164.06243068 -32.23181885 159.70596212 C-32.24291601 149.4289636 -32.24335019 139.15200162 -32.23730469 128.875 C-32.23126301 118.2714123 -32.24358039 107.66795722 -32.26487476 97.06439215 C-32.28248436 87.96107959 -32.28849315 78.85780927 -32.28523701 69.7544803 C-32.28342308 64.31721576 -32.28607144 58.88004584 -32.29995155 53.44279671 C-32.31251489 48.33002905 -32.3105999 43.21746834 -32.29754066 38.1047039 C-32.29517212 36.22858994 -32.29791949 34.35246148 -32.30616379 32.47636414 C-32.31660943 29.91454906 -32.30854831 27.3534312 -32.29585266 24.79164124 C-32.30322695 24.04990302 -32.31060123 23.3081648 -32.31819898 22.54394966 C-32.24610091 15.62473414 -29.6273188 10.62289124 -24.92163086 5.6628418 C-17.88742652 -1.00234115 -9.03270049 -0.05093869 0 0 Z " fill="#FFFFFF" transform="translate(82.921630859375,50.337158203125)"/>
<path d="M0 0 C1.05277954 -0.00807831 1.05277954 -0.00807831 2.12682736 -0.01631981 C4.46666008 -0.03056908 6.80592464 -0.02350343 9.14578247 -0.01637268 C10.82825168 -0.0220779 12.51071702 -0.02904275 14.19317627 -0.03717041 C18.755252 -0.05510149 23.31713537 -0.05393337 27.87923574 -0.04822803 C31.69129033 -0.04513569 35.503308 -0.05122922 39.31535733 -0.05726677 C48.310947 -0.07131061 57.3064417 -0.06975225 66.30203247 -0.05836487 C75.57361136 -0.04688725 84.84490086 -0.06095363 94.11644161 -0.08776134 C102.0843706 -0.10993484 110.05220887 -0.1165519 118.02016652 -0.11068493 C122.77563921 -0.10731768 127.53092647 -0.10971487 132.28637314 -0.12693596 C136.75985403 -0.14242901 141.23290717 -0.13842347 145.70637131 -0.11963081 C147.34459859 -0.11595126 148.98285772 -0.11903489 150.6210556 -0.1295166 C160.13138602 -0.18570276 167.56551636 -0.20154156 175.04470825 6.3525238 C175.58353638 7.00350037 176.1223645 7.65447693 176.67752075 8.32518005 C177.23181763 8.97357849 177.7861145 9.62197693 178.35720825 10.2900238 C182.13528886 15.7733462 182.10430664 20.80450699 182.10891724 27.25169373 C182.11724075 28.2409787 182.12556427 29.23026367 182.13414001 30.24952698 C182.15822321 33.5182744 182.16701113 36.78682208 182.1736145 40.0556488 C182.18258365 42.33383238 182.19170555 44.61201537 182.20097351 46.89019775 C182.2174626 51.66744924 182.22516322 56.44463066 182.22805786 61.22190857 C182.23343471 67.32716601 182.2710871 73.43175965 182.31680202 79.53682995 C182.34662886 84.24419524 182.35378269 88.95140198 182.35478401 93.65885353 C182.3589768 95.90860845 182.37137303 98.15836426 182.39230156 100.40802574 C182.41932529 103.56473606 182.4143566 106.71992466 182.40188599 109.87669373 C182.42413742 111.25567085 182.42413742 111.25567085 182.44683838 112.6625061 C182.37125179 119.42234055 180.63933529 124.77889504 176.80252075 130.38768005 C171.29693112 135.49148371 167.44465157 137.50989216 159.92074585 137.53485107 C159.20456518 137.53852776 158.48838451 137.54220445 157.75050139 137.54599255 C155.33847205 137.55705034 152.92648574 137.56087677 150.51443481 137.56468201 C148.78990542 137.5709451 147.06537738 137.57759176 145.34085083 137.58459473 C140.64650594 137.60201923 135.95217124 137.61256052 131.25780201 137.62080026 C128.3259876 137.62594754 125.39417637 137.6320234 122.4623642 137.63831139 C113.29254486 137.65736785 104.1227336 137.6715978 94.95289826 137.67992336 C84.36214907 137.68969725 73.7716088 137.71601885 63.18093324 137.75642425 C54.99912406 137.78656982 46.81737481 137.80139076 38.63551116 137.80470437 C33.74699758 137.80705672 28.85870708 137.81604102 23.97025299 137.84116554 C19.37047111 137.86442391 14.77105954 137.86868853 10.17123413 137.85840416 C8.4837801 137.85790814 6.79630799 137.86424818 5.10890961 137.87796021 C2.80290572 137.89564917 0.49823506 137.88858893 -1.80776978 137.87542725 C-3.0975259 137.8778156 -4.38728203 137.88020395 -5.71612167 137.88266468 C-11.2965983 137.08922417 -15.03708844 133.8336645 -18.94747925 129.95018005 C-19.519823 129.39459412 -20.09216675 128.83900818 -20.68185425 128.2665863 C-24.83924632 123.11270593 -24.49946459 117.62158458 -24.50387573 111.30833435 C-24.51219925 110.29632965 -24.52052277 109.28432495 -24.52909851 108.24165344 C-24.55318044 104.89836267 -24.56196857 101.55526709 -24.568573 98.2118988 C-24.57754076 95.88408348 -24.58666263 93.55626874 -24.59593201 91.22845459 C-24.6124197 86.34865417 -24.62012173 81.46892235 -24.62301636 76.58909607 C-24.62839951 70.34464421 -24.66607862 64.10083943 -24.71176052 57.85657024 C-24.74154306 53.04806174 -24.74874019 48.23970882 -24.74974251 43.4311161 C-24.75394246 41.12946929 -24.76636761 38.82782192 -24.78726006 36.5262661 C-24.81419754 33.30210022 -24.80934097 30.07943133 -24.79684448 26.85520935 C-24.81167877 25.90999924 -24.82651306 24.96478912 -24.84179688 23.99093628 C-24.76333097 16.86045341 -22.73264107 12.03776667 -17.75475216 6.89805126 C-12.25081375 2.02707614 -7.30563328 0.01417358 0 0 Z " fill="#FFFFFF" transform="translate(75.19747924804688,323.61231994628906)"/>
<path d="M0 0 C1.05549545 -0.00852997 2.11099091 -0.01705994 3.19847107 -0.02584839 C4.34611938 -0.02494202 5.4937677 -0.02403564 6.67619324 -0.02310181 C7.89302292 -0.02981903 9.1098526 -0.03653625 10.36355591 -0.04345703 C13.69434575 -0.05918574 17.02488621 -0.06581125 20.35569596 -0.0670886 C22.43944946 -0.06851251 24.52317702 -0.07278667 26.60692406 -0.07808304 C33.88458789 -0.09657517 41.16217857 -0.10475481 48.43986511 -0.10317993 C55.21037932 -0.10197923 61.98057438 -0.12306942 68.75100785 -0.15466726 C74.57455524 -0.18087175 80.39799867 -0.19154547 86.22160453 -0.19026911 C89.69498816 -0.18976063 93.16808813 -0.19537977 96.64141273 -0.21662521 C100.51901688 -0.23969678 104.396188 -0.23046115 108.27384949 -0.21841431 C109.41542511 -0.22965332 110.55700073 -0.24089233 111.73316956 -0.25247192 C119.50790472 -0.19117038 124.93913638 0.94033824 130.91130066 6.26742554 C131.45012878 6.92742554 131.98895691 7.58742554 132.54411316 8.26742554 C133.09841003 8.92742554 133.65270691 9.58742554 134.22380066 10.26742554 C136.73769205 13.74610768 137.91818308 16.37398592 137.92980957 20.6942749 C137.93689438 21.57458878 137.94397919 22.45490265 137.95127869 23.3618927 C137.94880127 24.31991287 137.94632385 25.27793304 137.94377136 26.26498413 C137.94888229 27.28005539 137.95399323 28.29512665 137.95925903 29.34095764 C137.97316857 32.69931928 137.9721971 36.057476 137.96989441 39.41586304 C137.97378081 41.74989905 137.97811537 44.08393436 137.98287964 46.41796875 C137.99034495 51.31214693 137.99004845 56.20625297 137.98478699 61.10043335 C137.97899442 67.37073237 137.99591695 73.6407358 138.01913166 79.91098595 C138.03386793 84.73227666 138.03474079 89.5534962 138.03162193 94.37480545 C138.03213528 96.68645437 138.03737545 98.99810725 138.04743385 101.30973434 C138.05977744 104.54371045 138.05301843 107.7771109 138.04142761 111.01107788 C138.04907135 111.96504959 138.05671509 112.9190213 138.06459045 113.90190125 C138.00467189 121.47000726 135.95482996 126.69599431 130.66911316 132.26742554 C124.21982418 137.79394272 118.17345166 137.98041617 109.93840027 137.89852905 C108.68051193 137.90568436 107.4226236 137.91283966 106.12661743 137.92021179 C102.6967064 137.9386353 99.26757846 137.92584658 95.83770061 137.90612149 C92.23751558 137.88966155 88.63737731 137.89855788 85.03717041 137.90364075 C78.99402953 137.90815298 72.95119905 137.89234485 66.90812683 137.86434937 C59.93356492 137.8322866 52.95956218 137.83232149 45.9849605 137.84956414 C39.2583716 137.86545715 32.53198661 137.85867887 25.80540657 137.84162712 C22.95027257 137.83477641 20.095303 137.8357685 17.24017143 137.84317207 C13.24994501 137.85229364 9.26057445 137.82824035 5.27043152 137.8008728 C4.0925708 137.80739868 2.91471008 137.81392456 1.70115662 137.82064819 C-5.93809492 137.73162429 -10.48636586 136.75322853 -16.25666809 131.52133179 C-16.71428528 130.96316772 -17.17190247 130.40500366 -17.64338684 129.82992554 C-18.11389465 129.2743396 -18.58440247 128.71875366 -19.06916809 128.14633179 C-22.73956185 122.68051321 -22.62748729 117.56210731 -22.62141418 111.18807983 C-22.62813141 110.17607513 -22.63484863 109.16407043 -22.64176941 108.12139893 C-22.66075654 104.77809733 -22.66467407 101.43499643 -22.66682434 98.09164429 C-22.67325203 95.76382871 -22.67998037 93.43601395 -22.68699646 91.10820007 C-22.69897121 86.22839485 -22.7026771 81.34866043 -22.70149231 76.46884155 C-22.70128917 70.22447852 -22.72858533 63.98057088 -22.76303673 57.73631573 C-22.7853055 52.92780992 -22.78932984 48.11941368 -22.78827286 43.31086159 C-22.79062907 41.00922896 -22.79945368 38.70759333 -22.81493759 36.40601158 C-22.83459524 33.18200437 -22.8287596 29.95897881 -22.81672668 26.73495483 C-22.8279657 25.78974472 -22.83920471 24.84453461 -22.8507843 23.87068176 C-22.78496509 16.9093325 -21.31052285 11.33591749 -16.36604309 6.24398804 C-15.71506653 5.79797241 -15.06408997 5.35195679 -14.39338684 4.89242554 C-13.7449884 4.43094116 -13.09658997 3.96945679 -12.42854309 3.49398804 C-8.28054181 1.06852733 -4.80822267 0.01762878 0 0 Z " fill="#FFFFFF" transform="translate(324.3308868408203,323.7325744628906)"/>
<path d="M0 0 C2.26338715 -0.00067487 4.52677423 -0.00164642 6.79016113 -0.00289917 C11.51717829 -0.00436752 16.24417647 -0.00224943 20.97119141 0.00244141 C27.00291709 0.00813814 33.03459827 0.00485451 39.06632233 -0.00113106 C43.73513112 -0.00476002 48.40392952 -0.00358738 53.07273865 -0.00100327 C55.29568996 -0.00034045 57.51864224 -0.00113962 59.74159241 -0.00348282 C93.25469526 -0.03106395 93.25469526 -0.03106395 101.71875 6.1328125 C108.03629129 12.84922096 109.26791337 18.15751128 109.05078125 27.2890625 C108.59151774 32.60571305 107.31152298 36.1766326 103.71875 40.1328125 C98.3585427 44.55427947 93.67210388 47.24382431 86.64183044 47.28671265 C85.59197464 47.29531311 84.54211884 47.30391357 83.46044922 47.31277466 C81.73290405 47.31916458 81.73290405 47.31916458 79.97045898 47.32568359 C78.15047142 47.33794983 78.15047142 47.33794983 76.29371643 47.35046387 C72.26742888 47.37533024 68.24117894 47.39199411 64.21484375 47.40625 C62.82608598 47.41161171 61.43732828 47.41698922 60.04857063 47.42238235 C54.26752211 47.44401198 48.48647634 47.4627448 42.70539761 47.47400475 C34.43713192 47.49021746 26.16933813 47.5233283 17.9012503 47.58040559 C12.07942573 47.61921529 6.25772676 47.6386507 0.43577629 47.64392531 C-3.03668359 47.64756528 -6.50863989 47.65943912 -9.98095894 47.69202805 C-13.86317594 47.72794044 -17.74481019 47.72370985 -21.62719727 47.71630859 C-23.33348801 47.7409166 -23.33348801 47.7409166 -25.07424927 47.76602173 C-33.96358491 47.69688733 -40.60400947 45.49709639 -47.21875 39.4453125 C-51.33527621 32.83392192 -53.05095708 26.27989215 -51.91796875 18.51953125 C-50.11061394 11.74472274 -45.88808298 7.10431919 -40.28125 3.1328125 C-28.49266432 -2.27841333 -12.70631943 -0.01339363 0 0 Z " fill="#FFFFFF" transform="translate(353.28125,231.8671875)"/>
<path d="M0 0 C1.63799561 -0.01506844 1.63799561 -0.01506844 3.30908203 -0.03044128 C4.51269882 -0.03627228 5.71631561 -0.04210327 6.95640564 -0.04811096 C8.2199588 -0.05789474 9.48351196 -0.06767853 10.78535461 -0.07775879 C14.98418604 -0.10916757 19.18303737 -0.12942015 23.38194275 -0.14796448 C24.09680871 -0.1512618 24.81167467 -0.15455912 25.54820323 -0.15795636 C32.29397626 -0.18874972 39.03975378 -0.21545156 45.78557682 -0.23237514 C54.40533973 -0.25425454 63.02447753 -0.29615777 71.64399058 -0.36581272 C77.70866128 -0.41314992 83.77316399 -0.43732197 89.83801359 -0.44457203 C93.45753791 -0.4495158 97.07635808 -0.46447136 100.69568062 -0.50431633 C104.7413024 -0.54826464 108.78555257 -0.54426452 112.83140564 -0.53639221 C114.02085281 -0.55639282 115.21029999 -0.57639343 116.43579102 -0.59700012 C124.1485729 -0.52975293 129.06414495 0.95828534 134.8467865 6.16062927 C140.89605695 12.4835954 141.4852588 17.97070754 141.35069275 26.60984802 C140.58031635 32.03831427 138.44849539 35.98742107 134.5967865 39.84812927 C133.78467712 40.68924255 133.78467712 40.68924255 132.9561615 41.54734802 C126.23711048 46.68617778 119.72100801 46.60610526 111.55259705 46.59642029 C110.32893433 46.60649612 109.10527161 46.61657196 107.8445282 46.62695312 C104.50329697 46.65049904 101.16262519 46.66048153 97.82134986 46.66240048 C95.72918122 46.66453994 93.63707038 46.67095785 91.54491615 46.67889214 C84.23249747 46.70660733 76.9202423 46.71890257 69.60777283 46.71653748 C62.81323357 46.71473648 56.01940987 46.74637535 49.22505158 46.79376847 C43.37338866 46.83311761 37.52195846 46.84908407 31.67016441 46.84717125 C28.18319061 46.84640981 24.69685331 46.85476478 21.21001244 46.8867054 C17.31611581 46.92140444 13.4231851 46.90743466 9.52915955 46.88938904 C7.81826897 46.91467682 7.81826897 46.91467682 6.07281494 46.94047546 C-2.50607372 46.83979525 -8.33629721 44.35967167 -14.80289173 38.72255802 C-18.86700606 34.3977794 -20.11125753 29.45417305 -20.1844635 23.70750427 C-19.67666735 15.43042709 -17.23068292 9.76145042 -11.0282135 4.22312927 C-7.14150145 1.00375834 -5.06974891 0.03657178 0 0 Z " fill="#FFFFFF" transform="translate(321.15321350097656,50.83937072753906)"/>
<path d="M0 0 C1.22570709 -0.0071553 2.45141418 -0.01431061 3.71426392 -0.02168274 C7.04738217 -0.03560904 10.37892757 -0.02735201 13.71191525 -0.00759244 C17.21639366 0.00891078 20.72082548 -0.00003476 24.22532654 -0.00511169 C30.1068907 -0.00961915 35.98813543 0.00615429 41.86962891 0.03417969 C48.64992902 0.0662407 55.42965383 0.06620583 62.20999485 0.04896492 C68.75931606 0.03305137 75.30842823 0.03986328 81.8577404 0.05690193 C84.63307261 0.06373824 87.40823552 0.06277556 90.18356514 0.05535698 C94.06530481 0.04620907 97.94646307 0.07033275 101.828125 0.09765625 C103.53733879 0.08786743 103.53733879 0.08786743 105.28108215 0.07788086 C112.78603549 0.16742127 119.58101031 1.06263071 125.22818851 6.41026974 C130.0848056 11.77214538 131.63988384 15.66431752 131.66186523 23.00610352 C131.67862305 24.29258789 131.69538086 25.57907227 131.71264648 26.90454102 C131.10351597 33.1530411 128.64731494 36.83015053 123.97436523 40.88110352 C123.22413086 41.54625977 122.47389648 42.21141602 121.70092773 42.89672852 C117.62895979 45.89997398 114.05579512 46.87962824 109.03193665 46.90525818 C107.97933151 46.91523331 106.92672638 46.92520844 105.84222412 46.93548584 C104.12546478 46.93648285 104.12546478 46.93648285 102.37402344 46.9375 C100.55359779 46.94998528 100.55359779 46.94998528 98.69639587 46.96272278 C95.37374177 46.98267386 92.05133811 46.99346093 88.72864556 46.99854922 C86.64889651 47.00219946 84.56917131 47.00844309 82.48943138 47.01555061 C75.22243574 47.04003337 67.95551132 47.05309359 60.68847656 47.05664062 C53.93384216 47.06027072 47.17966358 47.09013077 40.42516834 47.13204521 C34.61178019 47.16684404 28.79854235 47.18219075 22.98505086 47.18288666 C19.51935162 47.1836765 16.05411662 47.19227768 12.58852577 47.22088432 C8.71606809 47.252135 4.84425451 47.24295954 0.97167969 47.23046875 C-0.16270538 47.24530304 -1.29709045 47.26013733 -2.46585083 47.27542114 C-10.4062897 47.20274158 -17.29206163 45.62938862 -23.3005476 40.11757565 C-28.48925087 34.16451057 -29.73473021 28.38890803 -29.65063477 20.63110352 C-28.60963273 15.06174262 -26.41433819 9.87733302 -22.65063477 5.63110352 C-15.31677836 0.66932677 -8.67418778 -0.08916453 0 0 Z " fill="#FFFFFF" transform="translate(330.650634765625,141.368896484375)"/>
</svg>
