<?xml version="1.0" encoding="UTF-8"?>
<svg version="1.1" xmlns="http://www.w3.org/2000/svg" width="512" height="512">
<path d="M0 0 C1.24492218 -0.00350464 2.48984436 -0.00700928 3.77249146 -0.01062012 C7.16722839 -0.01788575 10.56171971 -0.01622264 13.95644259 -0.00986195 C17.5223209 -0.00477208 21.08818924 -0.00950176 24.65406799 -0.01263428 C30.64163073 -0.01626573 36.62914401 -0.01149692 42.61669922 -0.00195312 C49.52065194 0.00892488 56.42448646 0.00540731 63.32843632 -0.00560594 C69.27434686 -0.01470822 75.22022201 -0.01594961 81.16613728 -0.0107286 C84.7092778 -0.00762438 88.25236293 -0.00715657 91.7954998 -0.01380157 C95.74912922 -0.02069935 99.70262834 -0.01111438 103.65625 0 C105.39822914 -0.00607269 105.39822914 -0.00607269 107.17539978 -0.01226807 C118.86932931 0.04844583 128.88369566 1.76187471 137.47485352 10.33691406 C144.95015093 19.3387459 145.83891671 28.17847442 145.796875 39.60620117 C145.80373825 40.91793808 145.8106015 42.22967499 145.81767273 43.5811615 C145.83551255 47.15563803 145.83445327 50.72986785 145.82873034 54.30437541 C145.82562521 57.29872267 145.83174557 60.29302345 145.83776909 63.28736407 C145.85178248 70.35624807 145.8502796 77.42501114 145.83886719 84.49389648 C145.82738811 91.76433303 145.84146515 99.03440059 145.86826366 106.30478853 C145.89047887 112.56837035 145.89704502 118.83183684 145.89118725 125.09545523 C145.88783045 128.82703691 145.89014706 132.55838214 145.90743828 136.28993034 C145.92589511 140.45418242 145.91166076 144.61772461 145.89453125 148.78198242 C145.9090332 150.61439484 145.9090332 150.61439484 145.92382812 152.48382568 C145.83580787 162.73270939 143.58060731 170.85176309 136.45922852 178.43457031 C129.89417681 184.23018306 123.49440499 187.36849136 114.77131653 187.40596008 C113.62608521 187.41311539 112.48085388 187.42027069 111.30091858 187.42764282 C110.04838791 187.43033173 108.79585724 187.43302063 107.50537109 187.43579102 C106.16964543 187.44205931 104.8339215 187.44870644 103.49819946 187.45570374 C99.11542974 187.47670533 94.73265983 187.48710338 90.34985352 187.49707031 C88.83817718 187.50111951 87.32650103 187.50523648 85.81482506 187.50942039 C78.71080544 187.52846455 71.60679616 187.54269646 64.50275594 187.55103236 C56.31634057 187.56079822 48.13019606 187.58710375 39.94387609 187.62753326 C33.6073992 187.65774748 27.27099973 187.6725063 20.93445224 187.67581338 C17.15417014 187.67815807 13.37417765 187.68704206 9.59397316 187.71227455 C6.0340469 187.73565329 2.47459893 187.7397497 -1.08538437 187.72951317 C-3.00284183 187.72878627 -4.92027554 187.74780893 -6.83763123 187.76757812 C-14.00783907 187.72463212 -19.35591788 186.83972926 -25.60717773 183.25878906 C-26.80407227 182.58976562 -26.80407227 182.58976562 -28.02514648 181.90722656 C-35.78450162 176.32323148 -40.00195686 168.63308104 -41.60717773 159.25878906 C-41.89813831 155.04628399 -41.90098534 150.84466175 -41.89770508 146.62329102 C-41.9044223 145.37504044 -41.91113953 144.12678986 -41.9180603 142.8407135 C-41.93374509 139.43538934 -41.940412 136.0303092 -41.94169188 132.62496591 C-41.94311947 130.49073715 -41.94740059 128.3565335 -41.95268631 126.22231102 C-41.97115974 118.75732186 -41.97936061 111.29240384 -41.9777832 103.82739258 C-41.97658365 96.90070782 -41.9976561 89.97433556 -42.02927053 83.04772979 C-42.05554474 77.07542549 -42.06614581 71.10322253 -42.06487238 65.13086098 C-42.06436586 61.57520451 -42.06987493 58.01982588 -42.09122849 54.46422768 C-42.11444805 50.48978452 -42.1050222 46.51575936 -42.09301758 42.54125977 C-42.10425659 41.3849707 -42.11549561 40.22868164 -42.1270752 39.03735352 C-42.03599753 27.09322331 -39.48830533 16.88762413 -30.97045898 8.28613281 C-21.95560648 0.55273042 -11.41508638 -0.03972476 0 0 Z M10.39282227 85.25878906 C8.65060515 88.74322328 8.80607072 92.45765951 9.39282227 96.25878906 C11.09533946 99.33348429 13.20508735 101.6649216 16.39282227 103.25878906 C18.60722036 103.3713387 20.82504985 103.41817155 23.04223633 103.43579102 C23.72539413 103.44236221 24.40855194 103.44893341 25.1124115 103.45570374 C27.37775785 103.47544532 29.64303781 103.48710241 31.90844727 103.49707031 C32.68243614 103.50114584 33.45642502 103.50522137 34.2538681 103.50942039 C38.35210402 103.53028684 42.45030642 103.54458489 46.54858398 103.55395508 C50.77659637 103.56500857 55.00408087 103.59939403 59.23190689 103.63912678 C62.48678548 103.66530856 65.74153874 103.67364837 68.99651337 103.67723656 C70.55459907 103.68210012 72.11267926 103.69370766 73.67066193 103.71227455 C75.8561393 103.73669618 78.04025724 103.73569617 80.22583008 103.72875977 C81.46778137 103.73462601 82.70973267 103.74049225 83.98931885 103.74653625 C88.05301384 103.16417873 90.20934123 101.80283427 93.39282227 99.25878906 C95.71307187 95.62709404 95.65175443 92.33241853 95.01000977 88.19238281 C93.99283423 85.005662 91.93988376 83.30886295 89.39282227 81.25878906 C86.50277264 79.81376425 83.97260267 80.0994422 80.7434082 80.06591797 C79.71867149 80.05365173 79.71867149 80.05365173 78.67323303 80.0411377 C76.40789669 80.01628627 74.14262308 79.99976679 71.87719727 79.98535156 C71.10320839 79.98002789 70.32921951 79.97470421 69.53177643 79.96921921 C65.43354787 79.94248629 61.33534977 79.92311354 57.23706055 79.90869141 C53.00892717 79.89205998 48.78157577 79.84729634 44.55373764 79.79631996 C41.29885999 79.76261872 38.04416711 79.75111082 34.78913116 79.74546432 C33.23102099 79.73875769 31.67292272 79.72355068 30.1149826 79.69957352 C27.92928446 79.6678595 25.74568341 79.66789314 23.55981445 79.67529297 C22.31786316 79.66720612 21.07591187 79.65911926 19.79632568 79.65078735 C15.26658496 80.45998005 13.63777502 82.04614418 10.39282227 85.25878906 Z " fill="#FFFFFF" transform="translate(309.607177734375,56.7412109375)"/>
<path d="M0 0 C1.24506821 -0.00350464 2.49013641 -0.00700928 3.77293396 -0.01062012 C7.16347988 -0.01787801 10.5537794 -0.01622791 13.94431114 -0.00986195 C17.50751428 -0.00476692 21.07070754 -0.00950307 24.63391113 -0.01263428 C30.61549754 -0.01626377 36.59703441 -0.0115016 42.57861328 -0.00195312 C49.47520241 0.00892948 56.37167326 0.00540318 63.26825953 -0.00560594 C69.20994399 -0.01470788 75.15159303 -0.01594992 81.09328222 -0.0107286 C84.6330544 -0.00762483 88.17277115 -0.0071554 91.71253967 -0.01380157 C95.66127044 -0.02069892 99.60987074 -0.01111493 103.55859375 0 C104.71834213 -0.00404846 105.87809052 -0.00809692 107.07298279 -0.01226807 C118.62430218 0.0477853 127.11399003 1.95375759 135.96679688 9.57128906 C141.70155219 16.2360047 145.5158567 23.04602203 145.54672241 32.03141785 C145.55951736 33.72381088 145.55951736 33.72381088 145.5725708 35.45039368 C145.57121124 37.2856385 145.57121124 37.2856385 145.56982422 39.15795898 C145.57654144 40.45789795 145.58325867 41.75783691 145.59017944 43.09716797 C145.60779975 46.65324193 145.61253326 50.20921954 145.61381102 53.76533294 C145.61523592 55.99166528 145.61951201 58.21797339 145.62480545 60.4442997 C145.64329562 68.22468231 145.65147771 76.00499654 145.64990234 83.78540039 C145.6487026 91.0154096 145.66977455 98.24511948 145.70138967 105.47505301 C145.7276291 111.69951238 145.73826638 117.9238745 145.73699152 124.14838868 C145.73648395 127.85826642 145.74205221 131.56787823 145.76334763 135.27770042 C145.78649314 139.42288689 145.77716252 143.56741273 145.76513672 147.71264648 C145.77637573 148.92602188 145.78761475 150.13939728 145.79919434 151.38954163 C145.71862241 162.36134911 143.24420321 171.28169199 135.57226562 179.31347656 C129.60974203 184.37197188 122.58304186 187.37245109 114.78477478 187.40596008 C113.07115753 187.41669304 113.07115753 187.41669304 111.32292175 187.42764282 C110.06836685 187.43033173 108.81381195 187.43302063 107.52124023 187.43579102 C106.18728458 187.44205736 104.85333067 187.44870432 103.51937866 187.45570374 C99.13597832 187.4767348 94.75257769 187.48710859 90.36914062 187.49707031 C88.85779871 187.50111891 87.34645698 187.50523587 85.83511543 187.50942039 C78.73055639 187.52847385 71.62600772 187.54270178 64.52142805 187.55103236 C56.33501245 187.56079094 48.14886824 187.58707347 39.9625482 187.62753326 C33.6269251 187.65776511 27.29137946 187.67250811 20.95568568 187.67581338 C17.17591562 187.67815679 13.39643541 187.68702331 9.61674309 187.71227455 C6.05518556 187.73568311 2.49410604 187.73973788 -1.0675087 187.72951317 C-2.98359036 187.72878752 -4.89964843 187.74779088 -6.81562805 187.76757812 C-17.21734848 187.70542812 -25.33132757 185.41117216 -32.96679688 178.17675781 C-41.36321164 168.99493231 -42.02030089 159.3010549 -42.01123047 147.31616211 C-42.01794769 146.03543823 -42.02466492 144.75471436 -42.03158569 143.43518066 C-42.04915912 139.94120621 -42.05393738 136.44732988 -42.05521727 132.9533155 C-42.05664433 130.76482944 -42.06092437 128.57636789 -42.0662117 126.38788795 C-42.0846832 118.73717302 -42.09288592 111.08652751 -42.09130859 103.43579102 C-42.09010791 96.32957021 -42.11120311 89.22365346 -42.14279592 82.11750954 C-42.16903584 75.99491961 -42.17967268 69.87242852 -42.17839777 63.74978286 C-42.17789041 60.10253132 -42.18344753 56.45555033 -42.20475388 52.80835533 C-42.2279017 48.73522874 -42.21856849 44.66277434 -42.20654297 40.58959961 C-42.22340149 38.80230186 -42.22340149 38.80230186 -42.24060059 36.97889709 C-42.16318504 26.61887547 -40.04312266 17.66767672 -32.70117188 10.04394531 C-22.62447645 0.96100683 -13.22544683 -0.04616753 0 0 Z M41.27929688 56.25878906 C40.04869267 58.71999748 40.07352457 60.51655772 39.96289062 63.26660156 C39.92099609 64.25273438 39.87910156 65.23886719 39.8359375 66.25488281 C39.79662109 67.28742188 39.75730469 68.31996094 39.71679688 69.38378906 C39.67361328 70.4240625 39.63042969 71.46433594 39.5859375 72.53613281 C39.47966808 75.11021435 39.37763105 77.68439415 39.27929688 80.25878906 C38.61397949 80.26289795 37.94866211 80.26700684 37.26318359 80.27124023 C34.2260071 80.30429326 31.19080551 80.3749494 28.15429688 80.44628906 C26.58421875 80.45499023 26.58421875 80.45499023 24.98242188 80.46386719 C18.3098537 80.58892118 18.3098537 80.58892118 12.59960938 83.68457031 C9.09571855 87.57188353 8.99535934 89.93264604 9.06054688 95.00097656 C9.3603982 98.09587061 10.27617197 99.89796328 12.27929688 102.25878906 C15.43815217 104.22675765 18.01246 104.5498945 21.70117188 104.67285156 C22.72597656 104.71152344 23.75078125 104.75019531 24.80664062 104.79003906 C25.87011719 104.82097656 26.93359375 104.85191406 28.02929688 104.88378906 C29.64771484 104.94179687 29.64771484 104.94179687 31.29882812 105.00097656 C33.95881462 105.09513538 36.61879628 105.18076294 39.27929688 105.25878906 C39.29387939 105.95963623 39.30846191 106.6604834 39.32348633 107.38256836 C39.39815175 110.57101916 39.49475163 113.75844419 39.59179688 116.94628906 C39.61435547 118.04908203 39.63691406 119.151875 39.66015625 120.28808594 C39.71333008 121.88813477 39.71333008 121.88813477 39.76757812 123.52050781 C39.79376221 124.49979248 39.81994629 125.47907715 39.84692383 126.48803711 C40.35120924 129.71962103 41.36896872 131.62150421 43.27929688 134.25878906 C47.39175556 137.12794629 50.55349532 137.72884756 55.38085938 136.91503906 C58.49228727 135.83948374 60.2285932 133.74449049 62.27929688 131.25878906 C62.60929687 130.92878906 62.93929687 130.59878906 63.27929688 130.25878906 C63.43715995 128.407042 63.53037043 126.54969797 63.59570312 124.69238281 C63.65854492 123.00532227 63.65854492 123.00532227 63.72265625 121.28417969 C63.76197266 120.10017578 63.80128906 118.91617188 63.84179688 117.69628906 C63.90657227 115.91448242 63.90657227 115.91448242 63.97265625 114.09667969 C64.07913234 111.15084122 64.18114528 108.20491477 64.27929688 105.25878906 C64.94985107 105.24420654 65.62040527 105.22962402 66.3112793 105.21459961 C69.36368509 105.13990606 72.41502272 105.04331608 75.46679688 104.94628906 C76.52189453 104.92373047 77.57699219 104.90117187 78.6640625 104.87792969 C79.68564453 104.84248047 80.70722656 104.80703125 81.75976562 104.77050781 C82.69715576 104.74432373 83.6345459 104.71813965 84.6003418 104.69116211 C87.79149327 104.17612253 89.68565894 103.1707854 92.27929688 101.25878906 C94.27339441 97.73588342 95.27929688 95.25619588 95.27929688 91.19628906 C93.83739016 86.96068809 91.39933235 83.3188068 87.27929688 81.25878906 C85.54060944 81.10612294 83.79682187 81.0094631 82.05273438 80.94238281 C81.02148438 80.90048828 79.99023438 80.85859375 78.92773438 80.81542969 C77.8475 80.77611328 76.76726562 80.73679687 75.65429688 80.69628906 C74.56632812 80.65310547 73.47835937 80.60992187 72.35742188 80.56542969 C69.66484518 80.45914377 66.97217434 80.35710849 64.27929688 80.25878906 C64.27518799 79.62376465 64.2710791 78.98874023 64.2668457 78.33447266 C64.23377589 75.43332429 64.16311941 72.53423892 64.09179688 69.63378906 C64.08599609 68.63476562 64.08019531 67.63574219 64.07421875 66.60644531 C63.91138265 60.13375408 63.91138265 60.13375408 60.85351562 54.61035156 C57.04326125 51.12966396 54.62580655 50.86703739 49.60742188 50.89941406 C45.68925451 51.50423184 43.97570871 53.42755663 41.27929688 56.25878906 Z " fill="#FFFFFF" transform="translate(96.720703125,56.7412109375)"/>
<path d="M0 0 C1.24506821 -0.00350464 2.49013641 -0.00700928 3.77293396 -0.01062012 C7.16347988 -0.01787801 10.5537794 -0.01622791 13.94431114 -0.00986195 C17.50751428 -0.00476692 21.07070754 -0.00950307 24.63391113 -0.01263428 C30.61549754 -0.01626377 36.59703441 -0.0115016 42.57861328 -0.00195312 C49.47520241 0.00892948 56.37167326 0.00540318 63.26825953 -0.00560594 C69.20994399 -0.01470788 75.15159303 -0.01594992 81.09328222 -0.0107286 C84.6330544 -0.00762483 88.17277115 -0.0071554 91.71253967 -0.01380157 C95.66127044 -0.02069892 99.60987074 -0.01111493 103.55859375 0 C104.71834213 -0.00404846 105.87809052 -0.00809692 107.07298279 -0.01226807 C118.5975941 0.04764645 127.16592217 1.82679667 136.27929688 9.25878906 C144.28672586 18.32196426 145.72662811 27.6915358 145.68334961 39.38500977 C145.69021286 40.68524078 145.69707611 41.9854718 145.70414734 43.32510376 C145.72200919 46.87284842 145.72092323 50.42034479 145.71520495 53.96812081 C145.71210188 56.93995584 145.71821817 59.91174395 145.7242437 62.88357228 C145.73826544 69.90118143 145.73674828 76.91866879 145.7253418 83.9362793 C145.71387239 91.15157669 145.72792156 98.36650187 145.75473827 105.58175021 C145.77696757 111.7977697 145.78351617 118.01367298 145.77766186 124.22972935 C145.77430713 127.93285392 145.77660715 131.63574018 145.79391289 135.33883095 C145.81239718 139.47425132 145.79812103 143.60895841 145.78100586 147.74438477 C145.79550781 149.55973473 145.79550781 149.55973473 145.81030273 151.41175842 C145.71517164 162.43449534 143.21567432 171.26813745 135.50195312 179.31347656 C129.21773899 184.81354447 122.95539268 187.37030133 114.66452026 187.40596008 C113.5207341 187.41311539 112.37694794 187.42027069 111.19850159 187.42764282 C109.32206215 187.43167618 109.32206215 187.43167618 107.40771484 187.43579102 C106.0736117 187.44205938 104.73951029 187.44870651 103.40541077 187.45570374 C99.02744758 187.47670705 94.6494842 187.48710454 90.27148438 187.49707031 C88.7610688 187.50111965 87.2506534 187.50523663 85.74023819 187.50942039 C78.64102194 187.52846608 71.54181603 187.54269684 64.44257915 187.55103236 C56.26466364 187.56079438 48.08701954 187.58708923 39.9091996 187.62753326 C33.57780259 187.65776407 27.24648307 187.67250793 20.91501534 187.67581338 C17.13861351 187.67815647 13.36250182 187.68701916 9.58617783 187.71227455 C6.02871076 187.73568201 2.47172226 187.73973833 -1.08580208 187.72951317 C-2.9994888 187.72878755 -4.9131519 187.74779055 -6.82673645 187.76757812 C-17.3471904 187.70464043 -25.34609731 185.35574792 -33.03710938 178.03613281 C-41.42231365 169.18400301 -42.16888779 158.7593404 -42.12475586 147.08911133 C-42.13161911 145.8080954 -42.13848236 144.52707947 -42.14555359 143.20724487 C-42.16336714 139.72159857 -42.16233919 136.23620561 -42.1566112 132.75052762 C-42.15350225 129.82829858 -42.1596306 126.90611701 -42.16564995 123.98389477 C-42.17965468 117.08419302 -42.17816771 110.1846152 -42.16674805 103.28491211 C-42.15526949 96.19340281 -42.16934709 89.10227182 -42.19614452 82.01081234 C-42.21837421 75.89666208 -42.22492265 69.78262995 -42.21906811 63.66844219 C-42.21571478 60.02794412 -42.21800439 56.38768846 -42.23531914 52.74722481 C-42.25380524 48.68386376 -42.2395269 44.62122848 -42.22241211 40.55786133 C-42.23208008 39.36947159 -42.24174805 38.18108185 -42.25170898 36.9566803 C-42.16083131 26.60900332 -40.03411123 17.65831944 -32.70117188 10.04394531 C-22.62447645 0.96100683 -13.22544683 -0.04616753 0 0 Z M57.90429688 70.50878906 C57.08638672 71.34023438 57.08638672 71.34023438 56.25195312 72.18847656 C54.9230671 73.54067637 53.6005114 74.89909256 52.27929688 76.25878906 C47.58911945 72.35030788 43.22863634 68.27922761 38.97851562 63.89550781 C35.77928429 60.81394935 32.87992622 60.85696835 28.60351562 60.91894531 C24.49915473 61.51907875 23.00363842 63.13576338 20.27929688 66.25878906 C18.38827499 70.34339634 18.02943566 72.34263126 19.21679688 76.69628906 C22.47754407 83.1453224 28.14486658 88.27994756 33.27929688 93.25878906 C31.62939482 97.55476045 28.4618688 100.26396553 25.21679688 103.38378906 C19.63152707 108.50149421 19.63152707 108.50149421 18.02929688 115.57128906 C18.09441466 119.62812688 18.51173982 122.12222441 21.27929688 125.25878906 C25.08433351 127.91346579 28.41676939 128.95750561 33.07617188 128.15722656 C37.99400604 126.15172682 41.5506535 121.92273989 45.27929688 118.25878906 C46.81089153 116.89324108 48.35157981 115.53777077 49.90429688 114.19628906 C50.5565625 113.6278125 51.20882812 113.05933594 51.88085938 112.47363281 C52.34234375 112.07273437 52.80382812 111.67183594 53.27929688 111.25878906 C53.61767578 112.07669922 53.61767578 112.07669922 53.96289062 112.91113281 C57.50162741 119.22205509 64.22537808 125.97545935 71.02929688 128.63378906 C74.37377032 129.43550542 75.5819229 129.17941174 79.09179688 128.25878906 C83.05779751 125.77031808 85.64523167 123.93311247 86.76367188 119.21582031 C87.0768581 115.71656657 86.8860279 113.24425591 85.02148438 110.21582031 C83.2069619 108.10169064 81.29270508 106.18465778 79.27929688 104.25878906 C77.63346354 102.5921224 75.98763021 100.92545573 74.34179688 99.25878906 C72.99013183 97.92291977 71.63686862 96.58865526 70.27929688 95.25878906 C71.87365642 91.24441951 74.72108906 88.62410818 77.77929688 85.69628906 C83.79908468 80.12584324 83.79908468 80.12584324 85.71679688 72.44628906 C85.65242587 68.77714155 85.28613082 66.57449866 82.96679688 63.69628906 C79.81502002 60.83770075 78.16409644 60.34226072 73.96679688 59.94628906 C66.9726699 60.53901169 62.56594159 65.69751131 57.90429688 70.50878906 Z " fill="#FFFFFF" transform="translate(96.720703125,268.7412109375)"/>
<path d="M0 0 C1.87960419 -0.0076664 1.87960419 -0.0076664 3.79718018 -0.01548767 C7.2147047 -0.02696228 10.63198576 -0.02946428 14.04951239 -0.02692437 C16.91207828 -0.02584975 19.77462216 -0.03075056 22.63718331 -0.03552979 C29.39583449 -0.04660068 36.15443009 -0.04707616 42.91308594 -0.04101562 C49.86363649 -0.03497843 56.81398449 -0.04728585 63.7645005 -0.06858569 C69.75204273 -0.08625344 75.73952078 -0.0921949 81.72708809 -0.08894795 C85.2943302 -0.08714305 88.86142781 -0.08969131 92.42864609 -0.10366249 C96.4108436 -0.11867724 100.39278699 -0.10922559 104.375 -0.09765625 C106.12561234 -0.10912186 106.12561234 -0.10912186 107.91159058 -0.12081909 C118.62158755 -0.05227755 128.13040843 2.02810199 136.31689453 9.2746582 C144.63586161 18.89544837 145.6165091 27.05486485 145.60742188 39.39501953 C145.6141391 40.70646439 145.62085632 42.01790924 145.6277771 43.36909485 C145.64537534 46.95190099 145.65012986 50.53461148 145.65140867 54.11745667 C145.65283437 56.36036998 145.65711188 58.60325929 145.66240311 60.84616661 C145.68088315 68.68375557 145.68907629 76.52127669 145.6875 84.35888672 C145.68629924 91.64403516 145.7073938 98.92888703 145.73898733 106.21396047 C145.76521013 112.48598227 145.77586479 118.75790756 145.77458918 125.0299837 C145.7740813 128.76831838 145.77966765 132.50638929 145.80094528 136.24466896 C145.82405648 140.41868724 145.81477024 144.59204829 145.80273438 148.76611328 C145.81397339 149.99086365 145.8252124 151.21561401 145.83679199 152.47747803 C145.7611133 162.83342166 143.42281258 170.91011445 136.24267578 178.52075195 C129.97047445 184.23316249 123.03399179 187.51311325 114.46160889 187.54208374 C113.31507339 187.55061371 112.1685379 187.55914368 110.98725891 187.56793213 C109.74348984 187.56702576 108.49972076 187.56611938 107.21826172 187.56518555 C105.88386155 187.57117561 104.54946484 187.57798225 103.21507263 187.58554077 C99.60121673 187.6031619 95.98745562 187.60789457 92.37356091 187.60917234 C90.11172446 187.61059699 87.84991187 187.61487257 85.58808136 187.62016678 C77.68565856 187.63865595 69.78330309 187.64683901 61.88085938 187.64526367 C54.5338167 187.64406337 47.18706831 187.66514651 39.84010005 187.696751 C33.51714353 187.7229737 27.19428275 187.73362843 20.87127233 187.73235285 C17.10162451 187.73184487 13.33223824 187.73743645 9.56264496 187.75870895 C6.01333642 187.77819231 2.46453616 187.7781479 -1.08479118 187.76367569 C-2.99367129 187.76061544 -4.90255199 187.77719421 -6.81135559 187.79455566 C-16.96294576 187.72100205 -25.31283553 185.54152375 -32.85888672 178.4699707 C-38.82127105 171.29468163 -41.80040784 163.03258272 -41.81681824 153.79191589 C-41.82108322 152.70276382 -41.82534821 151.61361176 -41.82974243 150.49145508 C-41.82928925 149.30640381 -41.82883606 148.12135254 -41.82836914 146.90039062 C-41.83172775 145.64454666 -41.83508636 144.3887027 -41.83854675 143.09480286 C-41.8473645 139.65665002 -41.84972395 136.21852208 -41.85036254 132.78035903 C-41.85107439 130.62960983 -41.85321129 128.47886691 -41.85585976 126.32811928 C-41.86510633 118.8170494 -41.86919557 111.30599725 -41.8684082 103.79492188 C-41.86780783 96.80638238 -41.87835344 89.81792018 -41.89415187 82.82940024 C-41.90725224 76.81902937 -41.91259104 70.80868368 -41.91195279 64.79829866 C-41.91169851 61.21321888 -41.91451112 57.6282078 -41.92513084 54.04314232 C-41.93666251 50.0410781 -41.93204975 46.03918569 -41.92602539 42.03710938 C-41.9316449 40.8581308 -41.9372644 39.67915222 -41.9430542 38.46444702 C-41.90126464 27.52897839 -40.12419212 17.74133165 -32.43310547 9.5246582 C-23.17889772 0.86240404 -12.14053349 -0.02568232 0 0 Z M10.50439453 63.8996582 C8.62202175 67.66440377 8.57549701 71.16132771 9.31689453 75.2746582 C11.66058393 79.30287435 13.22184295 80.89748182 17.63696289 82.41821289 C23.74454114 83.79325331 29.96810151 83.56011923 36.19580078 83.5402832 C37.53523326 83.54163332 38.87466525 83.54357674 40.21409607 83.54608154 C43.0087454 83.54901548 45.80326611 83.54479064 48.59790039 83.53540039 C52.16411587 83.52399567 55.73003056 83.53058261 59.29623508 83.54254532 C62.05789929 83.54980147 64.81949317 83.54745902 67.58115959 83.54228973 C69.53030978 83.54032404 71.4794628 83.54635287 73.42860413 83.55255127 C83.81241425 83.77470174 83.81241425 83.77470174 92.69189453 79.1496582 C94.75664751 75.4966337 95.52246811 72.46835913 95.31689453 68.2746582 C94.11180669 64.726344 93.12731999 62.88429962 90.13183594 60.63095093 C86.68067002 58.96811304 84.22845547 58.89397521 80.40283203 58.88647461 C79.72738342 58.88121765 79.05193481 58.87596069 78.35601807 58.87054443 C76.13440483 58.8573945 73.91351442 58.86606411 71.69189453 58.8762207 C70.14160017 58.87419851 68.59130674 58.87128586 67.04101562 58.86752319 C63.79629434 58.86310665 60.55182128 58.86950913 57.30712891 58.88354492 C53.15424845 58.90063664 49.0019497 58.89079184 44.84909058 58.87282753 C41.64912558 58.86197147 38.44929781 58.86544435 35.24932861 58.87321091 C33.71836274 58.87520789 32.18738428 58.8727713 30.65643311 58.86577225 C28.51427346 58.85812744 26.37304739 58.86980291 24.23095703 58.88647461 C23.01359863 58.88886139 21.79624023 58.89124817 20.54199219 58.89370728 C16.23103445 59.4029208 13.68765794 61.0456979 10.50439453 63.8996582 Z M9.94189453 111.0246582 C8.65772564 115.64766621 8.68207063 119.68759846 10.44189453 124.0871582 C13.50050669 127.65553905 16.89997849 129.10727202 21.54162598 129.65560913 C22.70045288 129.65799591 23.85927979 129.66038269 25.05322266 129.6628418 C25.69795029 129.66809875 26.34267792 129.67335571 27.00694275 129.67877197 C29.12092908 129.69188835 31.23415163 129.68326449 33.34814453 129.6730957 C34.82735335 129.67511886 36.30656118 129.67803232 37.7857666 129.68179321 C40.87908466 129.68620521 43.97214204 129.67982206 47.06542969 129.66577148 C51.01977542 129.64867997 54.97351021 129.65852723 58.92783356 129.67648888 C61.98029132 129.68735732 65.03260553 129.68386642 68.08506775 129.6761055 C69.54263889 129.67411193 71.00022329 129.67653299 72.45777893 129.68354416 C74.4990566 129.69120959 76.53936078 129.67948531 78.58056641 129.6628418 C79.73939331 129.66045502 80.89822021 129.65806824 82.09216309 129.65560913 C86.50791396 129.13395813 89.87023375 127.62154927 93.12939453 124.5871582 C94.85235245 121.23192437 95.55463413 118.01365375 95.31689453 114.2746582 C93.10320044 109.76212795 90.79163098 107.46175692 86.31689453 105.2746582 C83.07057771 104.81626389 83.07057771 104.81626389 79.51049805 104.87060547 C78.8464093 104.86374222 78.18232056 104.85687897 77.49810791 104.84980774 C75.31378494 104.83158127 73.13018311 104.83537102 70.94580078 104.84106445 C69.42032133 104.83650051 67.89484393 104.8311943 66.36936951 104.82518005 C63.17593012 104.81625706 59.98274093 104.81866253 56.78930664 104.82861328 C52.70590168 104.84010008 48.62336187 104.81989273 44.54007053 104.79069614 C41.39066625 104.77231007 38.24146836 104.77263136 35.09202385 104.77833366 C33.58699264 104.7784866 32.08194719 104.77246541 30.57696724 104.76004219 C28.46832858 104.74508778 26.3612761 104.75583901 24.25268555 104.77294922 C22.45662621 104.77319847 22.45662621 104.77319847 20.62428284 104.77345276 C16.10121076 105.45888433 12.78378504 107.40770665 9.94189453 111.0246582 Z " fill="#FFFFFF" transform="translate(309.68310546875,268.725341796875)"/>
</svg>
