<?xml version="1.0" encoding="UTF-8"?>
<svg version="1.1" xmlns="http://www.w3.org/2000/svg" width="512" height="512">
<path d="M0 0 C4.21233058 1.72369051 7.39538301 4.72888408 10.78302002 7.68118286 C11.80499625 8.56485128 11.80499625 8.56485128 12.84761846 9.4663716 C15.13469825 11.44939451 17.41441162 13.44060393 19.69238281 15.43408203 C20.49164901 16.13257283 21.2909152 16.83106363 22.11440158 17.55072081 C43.74300807 36.48397872 64.891704 55.93694921 85.75452149 75.70800728 C87.24641211 77.12160041 88.73938001 78.53404961 90.23236752 79.94648409 C180.15947413 165.09990327 180.15947413 165.09990327 181.85339499 218.36735249 C181.97967293 226.18429571 181.41019172 233.91558136 180.625 241.6875 C180.5585988 242.3711881 180.49219761 243.05487619 180.42378426 243.75928211 C174.63658813 302.45962116 174.63658813 302.45962116 155.984375 319.8828125 C145.52941727 328.07390143 135.03860267 330.31041324 121.9692688 330.26069641 C120.35228916 330.26643473 120.35228916 330.26643473 118.70264328 330.27228898 C115.10786423 330.28256803 111.51324643 330.27863648 107.91845703 330.2746582 C105.33402357 330.27900748 102.7495914 330.28419135 100.16516113 330.29014587 C93.88413294 330.30286466 87.60314755 330.3046901 81.32210864 330.30234561 C76.21419385 330.30055914 71.106292 330.30231914 65.99837875 330.30657005 C64.90592874 330.30746284 64.90592874 330.30746284 63.79140904 330.30837366 C62.31163789 330.30958547 60.83186674 330.3107996 59.35209559 330.31201603 C45.48938901 330.32288069 31.62670679 330.32073416 17.76399885 330.31463119 C5.09757968 330.30946292 -7.56876257 330.320717 -20.23516653 330.33972941 C-33.25890477 330.35912746 -46.28260664 330.36736036 -59.30635941 330.36360615 C-66.61104307 330.3616971 -73.91566127 330.36415276 -81.2203331 330.37832069 C-88.09043254 330.39151154 -94.96037579 330.3889478 -101.83047485 330.37590981 C-104.34790219 330.37354611 -106.86534039 330.37627124 -109.38275528 330.38453293 C-112.82711489 330.39501924 -116.27096005 330.38688403 -119.71530151 330.3742218 C-120.70433153 330.38159609 -121.69336155 330.38897037 -122.71236217 330.39656812 C-135.30883971 330.29958073 -146.8820412 326.37967668 -156.3046875 317.85546875 C-173.54965696 298.98136623 -176.25881619 266.25644157 -178.6875 241.9375 C-178.75820457 241.25582512 -178.82890915 240.57415024 -178.90175629 239.87181854 C-182.39220384 205.32568081 -175.92417164 175.75422569 -153.8800925 148.37428319 C-132.51100699 122.48333065 -108.36751993 99.02999325 -84 76 C-82.98639277 75.04076623 -81.97279577 74.08152164 -80.95920897 73.12226629 C-54.52846946 48.12556448 -27.53157985 23.77974803 0 0 Z M-72 150 C-80.74962935 161.52972601 -84.12180945 173.59531628 -83 188 C-79.33333954 210.56047137 -66.674091 228.84761506 -51 245 C-50.46213867 245.56364258 -49.92427734 246.12728516 -49.37011719 246.70800781 C-41.14916807 255.30889681 -32.57907288 262.94982126 -23 270 C-22.24509277 270.55671387 -21.49018555 271.11342773 -20.71240234 271.68701172 C-15.5111816 275.508938 -10.29889359 279.31429729 -5 283 C-4.08347656 283.639375 -3.16695313 284.27875 -2.22265625 284.9375 C0.50242076 286.24017302 1.20070349 285.96022005 4 285 C6.04310895 283.87321478 6.04310895 283.87321478 8.08984375 282.4453125 C8.86803467 281.91824707 9.64622559 281.39118164 10.44799805 280.84814453 C11.26953369 280.27950684 12.09106934 279.71086914 12.9375 279.125 C14.20750854 278.25077393 14.20750854 278.25077393 15.50317383 277.35888672 C22.73477419 272.31383926 29.41723647 266.86100743 36 261 C36.91422729 260.21061035 36.91422729 260.21061035 37.84692383 259.40527344 C59.71786244 240.50518857 80.8680802 217.8116083 85 188 C85.96199609 173.58855854 82.68679538 160.56663307 73.375 149.3125 C64.31681209 139.6934862 51.58638501 133.53543719 38.36328125 132.796875 C24.25210588 132.52427078 12.8984116 135.50783506 2 145 C-1.05058316 143.53767917 -3.88349269 141.85634932 -6.75 140.0625 C-27.75329111 127.36139476 -55.448272 131.57389205 -72 150 Z " fill="#FFFFFF" transform="translate(256,124)"/>
<path d="M0 0 C10.64028329 5.87511898 19.17029412 16.34756407 27.6953125 24.91015625 C28.9587538 26.17546731 30.22241953 27.4405543 31.48629761 28.70542908 C34.77965711 32.00256981 38.07000002 35.3027044 41.35968018 38.60351562 C44.73012396 41.98426907 48.10347232 45.36212169 51.4765625 48.74023438 C58.07052149 55.34485298 64.66129079 61.95264454 71.25 68.5625 C71.26401855 66.88293213 71.26401855 66.88293213 71.27832031 65.16943359 C71.31832161 60.99813684 71.38410805 56.82756978 71.45751953 52.65673828 C71.48567053 50.85475061 71.50691422 49.05264081 71.52099609 47.25048828 C71.54250755 44.65333802 71.58919757 42.05764705 71.640625 39.4609375 C71.64185364 38.6607016 71.64308228 37.8604657 71.64434814 37.03598022 C71.78097996 31.7675606 72.79595934 28.75896658 76.25 24.5625 C81.02949962 20.44863063 84.68721507 19.96695201 90.71875 20.03125 C91.9165509 20.02550964 91.9165509 20.02550964 93.1385498 20.01965332 C94.81943022 20.01694289 96.50035343 20.02424312 98.18115234 20.04101562 C100.74282546 20.06244 103.30169456 20.04118679 105.86328125 20.015625 C107.50261031 20.01826843 109.14193763 20.02339374 110.78125 20.03125 C111.54078979 20.02315308 112.30032959 20.01505615 113.08288574 20.00671387 C118.23128274 20.096754 121.22297855 21.09631284 125.25 24.5625 C128.21134155 28.07694264 129.23796666 29.86428322 129.31813049 34.51567078 C129.14389821 36.04122125 128.9472269 37.56431397 128.73266602 39.0847168 C128.53391927 40.82938221 128.33828684 42.57440442 128.14530945 44.31971741 C127.98402337 45.70618815 127.98402337 45.70618815 127.81947899 47.12066841 C121.94235006 96.42708254 121.94235006 96.42708254 138.76255703 141.18807697 C152.42749861 158.17194697 169.48221784 172.77840939 186.72138977 186.03135681 C187.40688369 186.5620065 188.09237761 187.09265619 188.79864407 187.63938618 C190.06689841 188.61313966 191.34528692 189.57391289 192.6358881 190.51784801 C196.95330778 193.8178953 198.55718372 196.54568406 200.25 201.5625 C200.73994091 205.32095079 200.01785172 208.36125957 197.9765625 211.5546875 C195.37806439 214.73356082 193.10180791 217.0011553 189.25 218.5625 C183.0705824 219.16050815 180.18946269 218.36322031 175.25 214.5625 C172.5583014 212.14429419 170.01479827 209.58882218 167.4671936 207.02020264 C166.70252632 206.2572442 165.93785903 205.49428576 165.15002 204.70820737 C162.59344805 202.15492508 160.04408191 199.5945688 157.49462891 197.03417969 C155.66168451 195.20067107 153.82829945 193.3676029 151.99450684 191.53494263 C148.04945414 187.59093704 144.10807079 183.64329528 140.16917801 179.69313812 C134.47424415 173.98192865 128.77377523 168.27627022 123.07195382 162.57193795 C113.82058068 153.31619095 104.57367981 144.05598934 95.32958984 134.79296875 C86.35146899 125.79648112 77.37124346 116.80210298 68.38818359 107.81054688 C67.55717634 106.97875145 67.55717634 106.97875145 66.70938106 106.13015208 C63.93000206 103.34816294 61.15058168 100.56621516 58.37114072 97.78428793 C35.32434096 74.71676528 12.28479915 51.64200633 -10.75 28.5625 C-14.54247523 30.31842405 -16.85578004 32.52709858 -19.75 35.5625 C-20.575 36.366875 -21.4 37.17125 -22.25 38 C-24.80545863 40.53772953 -24.80545863 40.53772953 -27.0625 43.4375 C-29.67341367 46.64142876 -32.70276142 49.22876773 -35.8359375 51.91015625 C-39.44881488 55.02902795 -42.63647715 58.4044261 -45.6875 62.0625 C-48.41844401 65.3046207 -51.48630278 67.85432571 -54.75 70.5625 C-55.575 71.5525 -56.4 72.5425 -57.25 73.5625 C-59.8392143 76.66955716 -62.64936486 78.97863738 -65.75 81.5625 C-66.575 82.5525 -67.4 83.5425 -68.25 84.5625 C-70.8392143 87.66955716 -73.64936486 89.97863738 -76.75 92.5625 C-78.42067133 94.55915598 -80.08752986 96.55901034 -81.75 98.5625 C-82.554375 99.201875 -83.35875 99.84125 -84.1875 100.5 C-87.03628484 102.79292438 -89.14824299 105.32124317 -91.41796875 108.171875 C-91.85753906 108.63078125 -92.29710937 109.0896875 -92.75 109.5625 C-93.41 109.5625 -94.07 109.5625 -94.75 109.5625 C-95.08 110.5525 -95.41 111.5425 -95.75 112.5625 C-97.73260426 114.24982277 -99.7332342 115.91616057 -101.75 117.5625 C-102.41 118.5525 -103.07 119.5425 -103.75 120.5625 C-104.41 120.5625 -105.07 120.5625 -105.75 120.5625 C-106.74 122.5425 -106.74 122.5425 -107.75 124.5625 C-108.41 124.5625 -109.07 124.5625 -109.75 124.5625 C-110.245 126.0475 -110.245 126.0475 -110.75 127.5625 C-112.6875 129.75 -112.6875 129.75 -114.75 131.5625 C-115.41 131.5625 -116.07 131.5625 -116.75 131.5625 C-117.08 132.5525 -117.41 133.5425 -117.75 134.5625 C-119.6875 136.75 -119.6875 136.75 -121.75 138.5625 C-122.41 138.5625 -123.07 138.5625 -123.75 138.5625 C-124.41 139.8825 -125.07 141.2025 -125.75 142.5625 C-126.41 142.5625 -127.07 142.5625 -127.75 142.5625 C-128.08 143.5525 -128.41 144.5425 -128.75 145.5625 C-130.6875 147.75 -130.6875 147.75 -132.75 149.5625 C-133.41 149.5625 -134.07 149.5625 -134.75 149.5625 C-135.41 150.8825 -136.07 152.2025 -136.75 153.5625 C-137.41 153.5625 -138.07 153.5625 -138.75 153.5625 C-139.41 154.8825 -140.07 156.2025 -140.75 157.5625 C-141.41 157.5625 -142.07 157.5625 -142.75 157.5625 C-143.08 158.5525 -143.41 159.5425 -143.75 160.5625 C-145.6875 162.75 -145.6875 162.75 -147.75 164.5625 C-148.41 164.5625 -149.07 164.5625 -149.75 164.5625 C-150.08 165.5525 -150.41 166.5425 -150.75 167.5625 C-152.73260426 169.24982277 -154.7332342 170.91616057 -156.75 172.5625 C-157.41 173.5525 -158.07 174.5425 -158.75 175.5625 C-159.41 175.5625 -160.07 175.5625 -160.75 175.5625 C-161.08 176.5525 -161.41 177.5425 -161.75 178.5625 C-163.6875 180.75 -163.6875 180.75 -165.75 182.5625 C-166.41 182.5625 -167.07 182.5625 -167.75 182.5625 C-168.41 183.8825 -169.07 185.2025 -169.75 186.5625 C-170.41 186.5625 -171.07 186.5625 -171.75 186.5625 C-172.41 187.8825 -173.07 189.2025 -173.75 190.5625 C-174.41 190.5625 -175.07 190.5625 -175.75 190.5625 C-176.08 191.5525 -176.41 192.5425 -176.75 193.5625 C-177.41 193.5625 -178.07 193.5625 -178.75 193.5625 C-179.41 194.8825 -180.07 196.2025 -180.75 197.5625 C-181.41 197.5625 -182.07 197.5625 -182.75 197.5625 C-183.08 198.5525 -183.41 199.5425 -183.75 200.5625 C-184.41 200.5625 -185.07 200.5625 -185.75 200.5625 C-186.41 201.8825 -187.07 203.2025 -187.75 204.5625 C-188.41 204.5625 -189.07 204.5625 -189.75 204.5625 C-190.018125 205.160625 -190.28625 205.75875 -190.5625 206.375 C-191.74917406 208.56097854 -192.84599113 209.97582594 -194.75 211.5625 C-195.41 211.5625 -196.07 211.5625 -196.75 211.5625 C-197.08 212.5525 -197.41 213.5425 -197.75 214.5625 C-202.96238424 218.2856316 -206.37027637 219.37262364 -212.75 218.5625 C-217.08443305 216.311929 -220.14920345 213.70450933 -222.75 209.5625 C-224.34963734 203.91044807 -223.43080021 199.6715885 -220.75 194.5625 C-218.47871538 191.60647462 -215.89149111 189.03242584 -213.23666382 186.42097473 C-212.46457569 185.64179221 -211.69248756 184.8626097 -210.89700282 184.05981559 C-208.31336838 181.45861532 -205.71228336 178.87561661 -203.11083984 176.29223633 C-201.25204796 174.42830509 -199.39425795 172.56342203 -197.53762817 170.69734192 C-193.01956959 166.16092985 -188.48820512 161.63803986 -183.95198958 157.11979154 C-180.26380113 153.44564648 -176.58072782 149.76644484 -172.90123367 146.08359337 C-172.37692001 145.55880227 -171.85260635 145.03401116 -171.3124044 144.4933173 C-170.24717613 143.42706267 -169.18196237 142.36079354 -168.11676295 141.29451009 C-158.70217614 131.87136051 -149.27503224 122.46087216 -139.84130859 113.05688477 C-130.69682878 103.94122892 -121.56328485 94.81478724 -112.44091797 85.67700195 C-102.49879163 75.71809461 -92.55030791 65.76561586 -82.59104693 55.82384127 C-81.52791346 54.76255211 -80.46478477 53.70125814 -79.40166092 52.63995934 C-78.87863134 52.11784185 -78.35560176 51.59572436 -77.8167228 51.05778513 C-74.13999368 47.38665054 -70.46772243 43.71109297 -66.79710007 40.03385353 C-62.31951284 35.54851503 -57.8347063 31.07054327 -53.34071247 26.60164098 C-51.05004823 24.32343167 -48.76371319 22.04116781 -46.4838028 19.75218964 C-44.00675972 17.26643334 -41.51768655 14.79336992 -39.02523804 12.32307434 C-38.31421979 11.60381533 -37.60320155 10.88455632 -36.8706373 10.14350158 C-26.94570162 0.38030842 -13.9056263 -5.48250499 0 0 Z " fill="#FFFFFF" transform="translate(268.75,66.4375)"/>
</svg>
