<?xml version="1.0" encoding="UTF-8"?>
<svg version="1.1" xmlns="http://www.w3.org/2000/svg" width="512" height="512">
<path d="M0 0 C19.61983548 15.6689919 31.95883864 35.17664715 42.1640625 57.83984375 C41.99075507 49.48957645 40.63272154 41.65030855 38.7890625 33.52734375 C38.57999268 32.59712402 38.37092285 31.6669043 38.15551758 30.70849609 C37.16751548 26.49035665 36.08849387 22.49352905 34.4375 18.484375 C32.60653921 13.24423261 32.60653921 13.24423261 34.1640625 9.83984375 C46.6984486 0.89363781 68.31112669 -0.60522623 83.1640625 0.83984375 C105.43034305 5.05373111 126.47210663 22.21664921 139.37451172 40.48999023 C145.94074879 50.22746373 151.2574921 60.39394387 151.31123352 72.36486816 C151.32196648 74.01300003 151.32196648 74.01300003 151.33291626 75.69442749 C151.33560516 76.89032501 151.33829407 78.08622253 151.34106445 79.31835938 C151.34763565 80.58567902 151.35420685 81.85299866 151.36097717 83.15872192 C151.38195336 87.3544998 151.39237721 91.55027776 151.40234375 95.74609375 C151.40639446 97.19608071 151.41051148 98.64606749 151.41469383 100.09605408 C151.43373561 106.91388869 151.44796573 113.73171258 151.4563058 120.54956865 C151.4660585 128.3906866 151.49233048 136.23152077 151.53280669 144.07253885 C151.56309459 150.15092647 151.57778682 156.22923337 151.58108681 162.30769491 C151.58342392 165.92936417 151.59220681 169.55072997 151.61754799 173.1723175 C151.64543926 177.22377981 151.64095918 181.27461928 151.6340332 185.32617188 C151.65324829 187.09572739 151.65324829 187.09572739 151.67285156 188.90103149 C151.60274221 200.22254877 148.9829801 210.67758295 142.1640625 219.83984375 C141.4628125 220.85046875 140.7615625 221.86109375 140.0390625 222.90234375 C133.52617344 230.3983104 123.37942272 235.30147854 113.58605957 236.14976501 C109.24623192 236.33940597 104.90586298 236.36424311 100.5625 236.37890625 C98.95545236 236.39110778 97.34840686 236.40359443 95.74136353 236.41635132 C92.38774527 236.43872146 89.03435267 236.44837084 85.68066406 236.45068359 C81.39522079 236.45598295 77.11166161 236.50745707 72.82672691 236.57019997 C69.51342427 236.61114847 66.20057593 236.62032633 62.887043 236.62080002 C61.30740947 236.62616434 59.72776967 236.64294257 58.14838791 236.67164993 C45.83935916 236.87689635 45.83935916 236.87689635 41.71607971 234.32447815 C39.97725337 232.58747303 38.6018032 230.82538318 37.1640625 228.83984375 C17.78272317 211.83917041 -6.71811296 201.57102534 -31.8359375 196.83984375 C-33.599375 196.50146484 -33.599375 196.50146484 -35.3984375 196.15625 C-76.03301002 189.80709804 -120.18973036 197.53011007 -153.8359375 221.83984375 C-161.51899351 227.57304288 -161.51899351 227.57304288 -168.06762695 234.46131897 C-170.81926515 236.60641811 -173.26042212 236.22909862 -176.703125 236.24389648 C-177.74529427 236.25419136 -177.74529427 236.25419136 -178.80851746 236.26469421 C-181.10953138 236.28301699 -183.4098661 236.27911329 -185.7109375 236.2734375 C-187.31697816 236.27800052 -188.92301686 236.28330646 -190.52905273 236.2893219 C-193.90177311 236.29826656 -197.27425697 236.29581908 -200.64697266 236.28588867 C-204.94291969 236.2744657 -209.23803655 236.29449963 -213.53387451 236.32380581 C-216.85590715 236.34228148 -220.17774569 236.34185176 -223.49981689 236.33616829 C-225.08165644 236.33601609 -226.66351001 236.34197572 -228.24530029 236.35445976 C-242.84189871 236.45332877 -253.5923786 233.62623742 -264.8359375 223.83984375 C-272.68196928 215.87769733 -276.94186322 204.37699891 -276.97637939 193.30136108 C-276.98208954 192.19971619 -276.98779968 191.09807129 -276.99368286 189.96304321 C-276.99480072 188.7640036 -276.99591858 187.56496399 -276.99707031 186.32958984 C-277.00203522 185.05905762 -277.00700012 183.78852539 -277.01211548 182.47949219 C-277.02520223 178.99982232 -277.03167756 175.52017171 -277.03612614 172.04048109 C-277.03906391 169.86223692 -277.04317011 167.68399793 -277.04763031 165.50575638 C-277.06129769 158.67831173 -277.0709671 151.85087902 -277.0748322 145.02342165 C-277.07930615 137.16535553 -277.09682626 129.30746394 -277.1258328 121.44945085 C-277.14752034 115.36090221 -277.1575403 109.27240241 -277.15887332 103.1838156 C-277.15991664 99.55444529 -277.16572224 95.92523921 -277.18369293 92.29590988 C-277.20338879 88.23932233 -277.19885663 84.18309513 -277.19238281 80.12646484 C-277.2015976 78.93957062 -277.21081238 77.75267639 -277.2203064 76.52981567 C-277.13747785 59.89370945 -270.71999286 45.31779843 -259.8359375 32.83984375 C-259.15789062 32.0303125 -258.47984375 31.22078125 -257.78125 30.38671875 C-245.62024361 16.27822023 -228.6850426 3.79013846 -209.8359375 0.83984375 C-194.44068923 -0.14558138 -172.92257229 0.49947966 -159.8359375 9.83984375 C-157.94779065 14.24290818 -159.57667256 17.99332937 -161.0859375 22.27734375 C-164.96668005 34.00703611 -167.2402142 45.47344963 -167.8359375 57.83984375 C-167.59584961 57.29271729 -167.35576172 56.74559082 -167.10839844 56.18188477 C-153.78276526 26.16787043 -133.49721931 -0.50954008 -102.515625 -13.80859375 C-67.84720772 -26.54242855 -29.51404247 -22.48108194 0 0 Z M-95.8359375 76.83984375 C-96.8878125 77.58234375 -97.9396875 78.32484375 -99.0234375 79.08984375 C-109.62037887 89.45129754 -115.69668675 102.83084532 -116.1484375 117.71484375 C-115.95480174 133.48540088 -109.90929279 146.19486774 -99.25390625 157.58203125 C-87.51463194 168.54374458 -73.33369506 171.33664226 -57.91015625 171.12109375 C-51.7021127 170.89205691 -46.45399672 169.47955009 -40.8359375 166.83984375 C-40.05347656 166.48921875 -39.27101563 166.13859375 -38.46484375 165.77734375 C-26.89228207 160.00109113 -17.60728125 150.04778291 -13.10839844 137.87060547 C-8.58245528 123.81724844 -8.2810731 110.05378209 -14.3828125 96.37109375 C-21.74337078 82.17107865 -31.99713423 72.56725458 -47.3984375 67.49609375 C-64.75176626 62.8240437 -81.43392827 66.26223361 -95.8359375 76.83984375 Z " fill="#FFFFFF" transform="translate(318.8359375,226.16015625)"/>
<path d="M0 0 C3.57116548 2.79264136 6.81588701 5.77643783 10 9 C10.63550781 9.61359375 11.27101563 10.2271875 11.92578125 10.859375 C22.80795594 22.15174252 27.60188871 37.93302248 27.4375 53.3125 C27.42614014 54.81635254 27.42614014 54.81635254 27.41455078 56.35058594 C27.02877927 73.81449063 20.10963204 88.43195918 8 101 C-7.13577848 114.1358558 -24.156293 119.19257486 -43.88867188 118.15966797 C-60.3969102 116.91124199 -75.6645315 108.50581509 -86.50390625 96.14453125 C-96.40447734 83.53639047 -101.60914252 69.74561133 -101.4375 53.6875 C-101.42992676 52.68493164 -101.42235352 51.68236328 -101.41455078 50.64941406 C-100.99990118 31.87819649 -93.20629489 17.9284626 -80 5 C-58.36821128 -15.16967475 -24.08560475 -16.29225994 0 0 Z " fill="#FFFFFF" transform="translate(293,67)"/>
<path d="M0 0 C9.78439421 8.2870854 16.5169093 19.43176145 19.265625 31.99609375 C20.63483907 48.82515109 18.77137999 63.27429131 8.265625 76.99609375 C-0.31134666 87.07841146 -12.41130052 95.08151833 -25.92578125 96.1730957 C-44.92267117 96.66405734 -59.30108269 93.57279296 -73.6328125 80.25390625 C-84.61684806 68.45321378 -88.26702183 54.13141253 -88.01953125 38.4375 C-87.75477646 32.24436671 -86.04739421 26.71861532 -83.734375 20.99609375 C-83.43402344 20.24972656 -83.13367188 19.50335938 -82.82421875 18.734375 C-77.08561518 6.08957319 -66.61682714 -2.95142228 -53.796875 -8.00390625 C-35.49427273 -14.53568996 -15.67636646 -11.48853713 0 0 Z " fill="#FFFFFF" transform="translate(428.734375,110.00390625)"/>
<path d="M0 0 C0.74636719 0.30035156 1.49273437 0.60070312 2.26171875 0.91015625 C14.90652056 6.64875982 23.94751603 17.11754786 29 29.9375 C34.4277964 45.14663784 33.01054556 60.53802805 26.375 75.0625 C19.13761128 88.7904216 7.56522012 97.17088959 -7 102 C-11.68402895 103.35067413 -16.28195886 103.2229439 -21.125 103.25 C-22.02476563 103.270625 -22.92453125 103.29125 -23.8515625 103.3125 C-38.75251509 103.39813766 -50.813973 97.08842373 -61.296875 86.828125 C-72.98701042 74.59740528 -75.50401888 60.59538834 -75.27734375 44.29296875 C-74.80800822 31.0371587 -68.14425098 19.66377577 -59.2578125 10.1015625 C-43.17740533 -4.86601372 -20.02551869 -8.09423063 0 0 Z " fill="#FFFFFF" transform="translate(139,103)"/>
</svg>
