<?xml version="1.0" encoding="UTF-8"?>
<svg version="1.1" xmlns="http://www.w3.org/2000/svg" width="512" height="512">
<path d="M0 0 C1.16228119 -0.00043808 2.32456238 -0.00087616 3.52206421 -0.00132751 C7.32584009 0.00074593 11.12916338 0.02400905 14.93286133 0.04760742 C17.58515671 0.05320852 20.23742772 0.05762394 22.88972473 0.06047058 C29.13327005 0.06975034 35.37665552 0.09430816 41.62013084 0.12451905 C48.73510093 0.15819078 55.85007914 0.17458098 62.96510923 0.18960536 C77.58595234 0.220862 92.20667022 0.2735422 106.82739258 0.34057617 C106.27508972 1.49149246 105.72278687 2.64240875 105.15374756 3.82820129 C104.42333973 5.3619331 103.69314685 6.89576729 102.96313477 8.4296875 C102.5997702 9.18542305 102.23640564 9.9411586 101.86203003 10.71979523 C98.88181527 16.99959403 96.75156852 23.2776268 95.07739258 30.02807617 C94.79355713 31.12893555 94.50972168 32.22979492 94.21728516 33.36401367 C90.07296251 49.82292885 87.30726842 66.43924094 85.82739258 83.34057617 C85.75891113 84.05552246 85.69042969 84.77046875 85.61987305 85.50708008 C83.4843056 108.32934903 87.67941391 129.72474748 102.20239258 148.09057617 C117.290731 165.76047416 136.38199725 172.99822312 158.82739258 176.34057617 C159.03493164 177.52651367 159.2424707 178.71245117 159.45629883 179.93432617 C162.27224004 195.08594723 166.42611074 208.58155125 176.82739258 220.34057617 C177.73618164 221.55680664 177.73618164 221.55680664 178.66333008 222.79760742 C187.64679439 233.35398877 202.22321823 239.27780027 215.66333008 241.12182617 C230.52987903 242.14963696 245.04304045 238.94862939 256.95239258 229.68823242 C258.82739258 228.34057617 258.82739258 228.34057617 260.82739258 228.34057617 C260.89759488 242.41420824 260.95023587 256.48781301 260.98282909 270.56158447 C260.99847354 277.09686361 261.01968987 283.63202497 261.05371094 290.16723633 C261.08634739 296.4760758 261.10425479 302.7848021 261.11202431 309.09371948 C261.11756007 311.49862448 261.12837005 313.90352341 261.14458275 316.30838013 C261.16641348 319.68122665 261.16935707 323.05360767 261.16796875 326.42651367 C261.18414749 327.91221611 261.18414749 327.91221611 261.20065308 329.42793274 C261.17035949 336.24576564 260.47655676 342.22674004 255.88989258 347.61791992 C255.20926758 348.16577148 254.52864258 348.71362305 253.82739258 349.27807617 C253.14676758 349.84397461 252.46614258 350.40987305 251.76489258 350.99291992 C247.49889672 353.96019526 243.0165405 353.47515748 238.04150391 353.45410156 C236.69485405 353.4543206 236.69485405 353.4543206 235.32099915 353.45454407 C232.35044955 353.45384681 229.37996248 353.44606314 226.40942383 353.43823242 C224.35104914 353.43636758 222.292674 353.43494399 220.23429871 353.4339447 C214.81408464 353.43012476 209.39389733 353.42029891 203.97369385 353.40924072 C198.44381065 353.39901538 192.91392313 353.39444467 187.3840332 353.3894043 C176.5318079 353.3786762 165.67960246 353.36160602 154.82739258 353.34057617 C154.83738533 354.44811752 154.83738533 354.44811752 154.84757996 355.57803345 C154.90780236 362.5515671 154.95342348 369.52506165 154.98282909 376.49878883 C154.99845536 380.0836971 155.01963738 383.66838967 155.05371094 387.25317383 C155.08641386 390.71560142 155.10426844 394.17782213 155.11202431 397.6403923 C155.12022851 399.59794697 155.14363051 401.55541893 155.1672821 403.5128479 C155.16762199 405.3140358 155.16762199 405.3140358 155.16796875 407.15161133 C155.1779615 408.73046616 155.1779615 408.73046616 155.18815613 410.34121704 C154.59296486 415.28958938 152.87236231 418.46185162 149.07739258 421.65307617 C145.36910621 423.57853256 143.0158098 424.34057617 138.82739258 424.34057617 C132.29543893 422.12622114 127.65119848 417.78122085 122.82739258 413.02807617 C121.49535995 411.73897038 120.1620278 410.45120602 118.82739258 409.16479492 C118.1699707 408.53105957 117.51254883 407.89732422 116.83520508 407.24438477 C111.79138518 402.46183278 106.72911674 398.02915377 100.82739258 394.34057617 C100.05395508 395.05342773 99.28051758 395.7662793 98.48364258 396.50073242 C93.31559258 401.25600419 88.14691648 406.00085082 82.82348633 410.58276367 C81.31149509 411.9142628 79.82951528 413.27994086 78.36254883 414.66088867 C67.93661141 424.41266773 67.93661141 424.41266773 60.26489258 424.27807617 C55.20671 422.89857183 51.90950776 421.14851972 49.17680359 416.58285522 C47.74424929 413.14080477 47.46336591 410.85678996 47.48681641 407.15161133 C47.487043 405.9508194 47.48726959 404.75002747 47.48750305 403.5128479 C47.50298691 402.23138885 47.51847076 400.94992981 47.53442383 399.62963867 C47.54002572 398.29300413 47.54429302 396.95636339 47.54728699 395.61972046 C47.55868924 392.11792714 47.58811561 388.61651275 47.62139893 385.11486816 C47.65220022 381.53520838 47.66581371 377.9554868 47.6809082 374.37573242 C47.71299053 367.36385895 47.76413013 360.3522358 47.82739258 353.34057617 C47.10457596 353.34945862 46.38175934 353.35834106 45.63703918 353.36749268 C38.76874195 353.44820383 31.90051713 353.5088244 25.03186512 353.54782486 C21.50199182 353.56855083 17.97251583 353.59658677 14.44287109 353.64233398 C10.36918699 353.69479181 6.29590908 353.71364486 2.22192383 353.73120117 C0.97659378 353.75184631 -0.26873627 353.77249146 -1.55180359 353.79376221 C-18.46634967 353.79801985 -32.47499176 347.57930765 -44.65698242 335.98901367 C-55.50433502 324.56897476 -58.33116859 313.3522242 -58.30632019 297.91221619 C-58.30971853 296.35610283 -58.30971853 296.35610283 -58.31318551 294.76855284 C-58.31950587 291.29897827 -58.3186974 287.82944296 -58.31787109 284.35986328 C-58.32086387 281.86926218 -58.32426668 279.37866155 -58.32804871 276.88806152 C-58.33596501 270.82767794 -58.33910294 264.76730973 -58.33966108 258.7069224 C-58.34013708 253.77633455 -58.34219603 248.84574989 -58.34536171 243.91516304 C-58.35416578 229.91636799 -58.35878168 215.9175806 -58.35803124 201.91878276 C-58.35799128 201.16473484 -58.35795132 200.41068692 -58.35791016 199.63378906 C-58.35786928 198.87881315 -58.35782839 198.12383724 -58.35778628 197.34598327 C-58.35738027 185.12443815 -58.36693907 172.90292391 -58.38104852 160.68138772 C-58.39544296 148.11309839 -58.40231697 135.54482409 -58.40145475 122.97652632 C-58.40112375 115.9282711 -58.40382774 108.88004822 -58.4146328 101.83180046 C-58.42473875 95.19731674 -58.42437116 88.56288936 -58.41711617 81.92839813 C-58.41607416 79.50092278 -58.41841026 77.07344311 -58.42447662 74.64597511 C-58.47510355 52.97386165 -58.2707414 33.52759384 -43.17260742 16.34057617 C-30.92859626 4.59754746 -16.74730464 -0.16831462 0 0 Z M-18.54760742 289.90307617 C-21.62378546 294.51734324 -21.7904285 298.96292231 -21.17260742 304.34057617 C-19.3751755 310.19506873 -16.65018604 313.42697052 -11.17260742 316.34057617 C-8.06926859 317.37502245 -5.94384494 317.46141041 -2.69140625 317.45410156 C-1.01000298 317.45398827 -1.01000298 317.45398827 0.70536804 317.45387268 C1.91481583 317.4487114 3.12426361 317.44355011 4.37036133 317.43823242 C5.609095 317.43681747 6.84782867 317.43540253 8.12409973 317.4339447 C11.41370795 317.42929219 14.70326718 317.42031007 17.99285889 317.40924072 C21.3511087 317.39900247 24.7093659 317.39438709 28.06762695 317.3894043 C34.6542546 317.37921774 41.24076064 317.3596433 47.82739258 317.34057617 C47.82739258 306.12057617 47.82739258 294.90057617 47.82739258 283.34057617 C40.52251161 283.25653152 33.21939654 283.17641592 25.9144516 283.13357544 C22.51225452 283.11251272 19.11046053 283.08439963 15.70849609 283.03881836 C11.79896015 282.98676828 7.88958485 282.96757999 3.97973633 282.94995117 C2.76905991 282.92930603 1.55838348 282.90866089 0.3110199 282.88739014 C-7.91400356 282.88521158 -12.77954146 283.67963658 -18.54760742 289.90307617 Z M154.82739258 283.34057617 C154.82739258 294.56057617 154.82739258 305.78057617 154.82739258 317.34057617 C177.59739258 317.34057617 200.36739258 317.34057617 223.82739258 317.34057617 C223.82739258 306.12057617 223.82739258 294.90057617 223.82739258 283.34057617 C201.05739258 283.34057617 178.28739258 283.34057617 154.82739258 283.34057617 Z " fill="#FFFFFF" transform="translate(117.172607421875,45.659423828125)"/>
<path d="M0 0 C0.76454498 -0.00559937 1.52908997 -0.01119873 2.31680298 -0.01696777 C4.78562373 -0.02882825 7.25383652 -0.02262198 9.72265625 -0.01171875 C10.56907684 -0.00989594 11.41549744 -0.00807312 12.28756714 -0.00619507 C35.73595586 0.07878192 60.23964653 1.65431536 82.09057617 10.89306641 C83.16023117 11.34380524 84.22988617 11.79454407 85.33195496 12.25894165 C86.5462896 12.77465225 86.5462896 12.77465225 87.78515625 13.30078125 C87.7875446 13.90485746 87.78993296 14.50893368 87.79239368 15.13131523 C87.85166018 29.86421198 87.92728429 44.59696288 88.02087116 59.32967949 C88.06574011 66.45447175 88.10517498 73.57921502 88.1315918 80.70410156 C88.15464432 86.91781934 88.1881225 93.13138092 88.23385781 99.34497464 C88.257693 102.63173925 88.27492929 105.91831866 88.28277016 109.20516586 C88.29243284 112.88424217 88.32051979 116.56276104 88.3527832 120.24169922 C88.35134811 121.31848434 88.34991302 122.39526947 88.34843445 123.50468445 C88.4315626 130.23435924 89.48462586 135.97194665 91.78515625 142.30078125 C91.24286377 142.75573975 90.70057129 143.21069824 90.1418457 143.67944336 C81.94502886 150.60414259 73.86450206 158.33175519 71.78515625 169.30078125 C71.60856445 171.86556691 71.4656479 174.42106905 71.34765625 176.98828125 C70.71547842 188.04890442 69.44122024 196.49185066 61.47265625 204.67578125 C55.91303215 208.03741442 50.41833072 208.8548378 44.078125 207.89453125 C35.23589101 205.60488974 29.60835482 199.85732709 24.5703125 192.53515625 C17.47025092 180.21052106 17.83814708 164.93071786 20.30859375 151.44921875 C20.44998779 150.66377686 20.59138184 149.87833496 20.73706055 149.0690918 C21.08368715 147.14582602 21.43404417 145.22323321 21.78515625 143.30078125 C20.66133545 143.28619873 19.53751465 143.27161621 18.37963867 143.2565918 C14.16172378 143.19808762 9.94431405 143.12086373 5.72680664 143.03833008 C3.91048455 143.0053236 2.09406586 142.97721829 0.27758789 142.9543457 C-14.34261352 142.76530871 -25.81995852 141.7220785 -38.21484375 133.30078125 C-39.10171875 132.72328125 -39.98859375 132.14578125 -40.90234375 131.55078125 C-49.71972116 122.97171134 -54.28713046 113.11300654 -54.6340332 100.8984375 C-54.75455705 82.56595678 -52.25876988 64.24386418 -47.76513672 46.48486328 C-47.38615633 44.9807113 -47.01864577 43.47363822 -46.66064453 41.96435547 C-43.26799788 27.68368001 -38.57883656 16.1899264 -26.21484375 7.30078125 C-17.89920116 2.23908576 -9.66800576 -0.01041383 0 0 Z " fill="#FFFFFF" transform="translate(290.21484375,45.69921875)"/>
<path d="M0 0 C1.15951172 -0.02900391 2.31902344 -0.05800781 3.51367188 -0.08789062 C10.62546523 -0.14045078 15.29111311 0.44008864 21.3125 4.3125 C25.56478334 8.67668553 27.55520747 13.09861773 27.57992554 19.18782043 C27.58845551 20.14234604 27.59698547 21.09687164 27.60577393 22.08032227 C27.60486755 23.11576172 27.60396118 24.15120117 27.60302734 25.21801758 C27.60974457 26.31780441 27.61646179 27.41759125 27.62338257 28.55070496 C27.64237924 32.18619303 27.6462877 35.82149663 27.6484375 39.45703125 C27.65486446 41.98662899 27.66159274 44.51622597 27.66860962 47.04582214 C27.68058672 52.34933495 27.68437572 57.65277912 27.68310547 62.95629883 C27.68190496 69.07244844 27.70299215 75.18824466 27.7345928 81.3043049 C27.76397481 87.20268834 27.77107944 93.10096465 27.76988602 98.99942589 C27.77224349 101.50201548 27.78107515 104.0046078 27.79655075 106.50715065 C27.81619053 110.01132981 27.8103795 113.51460447 27.79833984 117.01879883 C27.80957886 118.04816559 27.82081787 119.07753235 27.83239746 120.13809204 C27.77071586 127.21862942 26.67894637 132.90261562 21.49609375 138.15234375 C20.91988281 138.51457031 20.34367187 138.87679687 19.75 139.25 C18.88181641 139.82041016 18.88181641 139.82041016 17.99609375 140.40234375 C12.62710038 143.30483901 6.55734921 142.5763476 0.625 142.625 C-0.53451172 142.65400391 -1.69402344 142.68300781 -2.88867188 142.71289062 C-9.69512668 142.76319416 -15.08333448 142.43194925 -20.6875 138.3125 C-22.52734375 136.49609375 -22.52734375 136.49609375 -23.625 134.75 C-24.00527344 134.17121094 -24.38554687 133.59242188 -24.77734375 132.99609375 C-26.48962904 129.82873341 -26.81646011 127.20405982 -26.83467102 123.6776886 C-26.84182632 122.72591232 -26.84898163 121.77413605 -26.85635376 120.79351807 C-26.85904266 119.75088806 -26.86173157 118.70825806 -26.86450195 117.6340332 C-26.87107315 116.53453842 -26.87764435 115.43504364 -26.88441467 114.30223083 C-26.90415898 110.65591364 -26.91581329 107.00963766 -26.92578125 103.36328125 C-26.92985678 102.11830557 -26.9339323 100.87332989 -26.93813133 99.59062767 C-26.95684563 93.67995329 -26.97140958 87.76929201 -26.9797433 81.85859519 C-26.98950551 75.04804734 -27.0157995 68.23782539 -27.05624419 61.4273923 C-27.09011843 55.51941872 -27.10189459 49.61152437 -27.10594749 43.70345116 C-27.11081673 41.1952716 -27.12244022 38.6870956 -27.14098549 36.17897987 C-27.16535135 32.66503667 -27.16441591 29.1519414 -27.1574707 25.63793945 C-27.17028076 24.6054306 -27.18309082 23.57292175 -27.19628906 22.50912476 C-27.1452905 15.41529538 -26.06441075 9.73298379 -20.87109375 4.47265625 C-20.29488281 4.11042969 -19.71867187 3.74820313 -19.125 3.375 C-18.25681641 2.80458984 -18.25681641 2.80458984 -17.37109375 2.22265625 C-12.00210038 -0.67983901 -5.93234921 0.0486524 0 0 Z " fill="#FFFFFF" transform="translate(420.6875,45.6875)"/>
</svg>
