<?xml version="1.0" encoding="UTF-8"?>
<svg version="1.1" xmlns="http://www.w3.org/2000/svg" width="512" height="512">
<path d="M0 0 C16.5194011 13.47440356 28.56375283 32.26446318 31.5 53.625 C32.52523072 67.61860012 32.45915622 81.37883273 27.5 94.625 C27.149375 95.65109375 26.79875 96.6771875 26.4375 97.734375 C18.86666558 118.02841726 2.45980092 133.60479701 -16.59375 143.1796875 C-27.98617207 148.24631731 -39.46541112 150.17676713 -51.875 150.0625 C-53.05747314 150.05347656 -54.23994629 150.04445313 -55.45825195 150.03515625 C-77.24783383 149.60400547 -96.55892584 140.25541378 -112.25 125.25 C-129.23143304 107.51316513 -136.11636518 85.44839281 -135.76953125 61.37890625 C-135.01920448 38.99846971 -123.85833766 18.76081745 -107.80859375 3.5234375 C-77.94916435 -23.48841104 -31.47836753 -24.50270641 0 0 Z M-59.5 6.625 C-59.45875 8.831875 -59.4175 11.03875 -59.375 13.3125 C-59.640625 17.20703125 -59.640625 17.20703125 -60.5 20.625 C-62.84482959 22.6431644 -64.96432204 23.44069397 -67.85546875 24.5078125 C-72.99990824 26.68109122 -76.17967896 30.92777274 -78.59375 35.859375 C-81.23125129 42.94155439 -81.52952805 49.65042985 -78.51953125 56.6875 C-73.63831007 65.96369044 -64.7716122 70.049899 -55.6796875 74.515625 C-54.72932617 74.98258789 -54.72932617 74.98258789 -53.75976562 75.45898438 C-51.95808563 76.33461952 -50.14719463 77.19122594 -48.3359375 78.046875 C-45.5 79.625 -45.5 79.625 -43.5 82.625 C-43.0625 86.0625 -43.0625 86.0625 -43.5 89.625 C-46.09986087 92.2865364 -47.79477542 93.49929811 -51.48046875 94.15625 C-61.45804482 94.05902636 -68.00797253 91.72021648 -76.5 86.625 C-78.48 92.565 -80.46 98.505 -82.5 104.625 C-77.98773259 107.63317828 -75.28017874 109.29430301 -70.375 110.875 C-69.36179687 111.21015625 -68.34859375 111.5453125 -67.3046875 111.890625 C-64.33828097 112.79386623 -64.33828097 112.79386623 -60.5 112.625 C-60.5 117.245 -60.5 121.865 -60.5 126.625 C-54.89 126.625 -49.28 126.625 -43.5 126.625 C-43.5 121.675 -43.5 116.725 -43.5 111.625 C-40.53 110.635 -40.53 110.635 -37.5 109.625 C-31.41063628 106.25641581 -26.01868202 101.28800049 -23.32421875 94.7890625 C-21.09822159 86.24376533 -21.57891522 77.85724442 -25.625 70.00390625 C-31.9821796 61.93823463 -39.9218776 58.24196684 -49.16210938 54.27734375 C-56.00553541 51.21516741 -56.00553541 51.21516741 -58.6796875 48.0234375 C-59.83904079 44.63370931 -59.01177119 42.79252059 -57.5 39.625 C-52.10187809 36.92593904 -44.51316231 37.98738713 -38.97265625 39.7421875 C-36.09705239 40.95260815 -33.28513033 42.2198892 -30.5 43.625 C-29.68167278 41.73167466 -28.87057732 39.83522267 -28.0625 37.9375 C-27.61003906 36.88175781 -27.15757812 35.82601562 -26.69140625 34.73828125 C-25.64552545 32.00527471 -24.96479252 29.50457663 -24.5 26.625 C-29.78659013 22.48145639 -34.99072678 21.21262761 -41.5 19.625 C-41.83 15.335 -42.16 11.045 -42.5 6.625 C-48.11 6.625 -53.72 6.625 -59.5 6.625 Z " fill="#FFFFFF" transform="translate(408.5,316.375)"/>
<path d="M0 0 C32.34 0 64.68 0 98 0 C103.6302623 36.59670495 104.04323893 78.82704429 95 115 C63.65 115 32.3 115 0 115 C-2.38795287 95.89637706 -4.21044999 77.71811342 -4.1875 58.625 C-4.18756042 57.84540924 -4.18762085 57.06581848 -4.18768311 56.26260376 C-4.16686981 37.27579931 -2.51248359 18.84362689 0 0 Z " fill="#FFFFFF" transform="translate(194,175)"/>
<path d="M0 0 C31.02 0 62.04 0 94 0 C93.01 11.88 92.02 23.76 91 36 C90.66970858 45.56232508 90.66970858 45.56232508 90.60888672 55.10986328 C90.62506752 57.51001588 90.60874223 59.90848718 90.58984375 62.30859375 C90.63114371 80.0538091 92.51273314 97.15279765 94 115 C64.3 115 34.6 115 4 115 C1.32586032 108.3146508 -0.94686073 102.16128412 -2.625 95.25 C-2.82867187 94.45851563 -3.03234375 93.66703125 -3.2421875 92.8515625 C-6.5556304 79.47035081 -7.40418718 66.27808602 -7.375 52.5625 C-7.37545319 51.7314978 -7.37590637 50.90049561 -7.37637329 50.04431152 C-7.34841975 32.54160938 -5.0495488 16.83182932 0 0 Z " fill="#FFFFFF" transform="translate(73,175)"/>
<path d="M0 0 C30.36 0 60.72 0 92 0 C96.64805496 16.26819236 96.64805496 16.26819236 97.6875 22.6875 C97.80778564 23.40969727 97.92807129 24.13189453 98.05200195 24.87597656 C102.20630803 50.47177006 103.29959096 86.7103937 90 110 C85.65673862 108.62222826 81.54992725 106.9438735 77.375 105.125 C55.13866721 96.06245656 27.69310633 94.16918083 4.82421875 102.1015625 C2 103 2 103 -2 103 C-1.90912109 102.01233643 -1.81824219 101.02467285 -1.72460938 100.00708008 C-0.03342874 81.33956046 1.30648245 62.75290355 1.25 44 C1.24895264 43.24820465 1.24790527 42.4964093 1.24682617 41.72183228 C1.22115421 33.06598409 0.92084455 24.48726545 0.20996094 15.85546875 C-0.07745721 10.57766944 0 5.28561962 0 0 Z " fill="#FFFFFF" transform="translate(320,175)"/>
<path d="M0 0 C8.64851382 2.70266057 13.90895336 12.46882309 17.99560547 19.98730469 C27.55461108 38.54766853 33.18430474 58.77066178 37.9375 79 C38.09324493 79.65892242 38.24898987 80.31784485 38.40945435 80.99673462 C41 92.03680574 41 92.03680574 41 97.9375 C11.96 97.9375 -17.08 97.9375 -47 97.9375 C-44.24849497 73.17395471 -34.72594284 48.41775601 -23.3125 26.375 C-22.88549805 25.5490332 -22.45849609 24.72306641 -22.01855469 23.87207031 C-17.22436686 14.9748476 -10.16523563 3.17663614 0 0 Z " fill="#FFFFFF" transform="translate(247,50.0625)"/>
<path d="M0 0 C0.495 0.99 0.495 0.99 1 2 C-0.37457573 4.71826212 -1.81428873 7.35069101 -3.3125 10 C-17.54200194 36.1875332 -24.81981132 65.27924527 -32 94 C-60.71 94 -89.42 94 -119 94 C-116.74459249 87.23377747 -116.74459249 87.23377747 -115.00390625 84.40625 C-114.61605957 83.77565674 -114.22821289 83.14506348 -113.82861328 82.49536133 C-113.4107959 81.83689209 -112.99297852 81.17842285 -112.5625 80.5 C-112.12147949 79.80221436 -111.68045898 79.10442871 -111.22607422 78.38549805 C-85.52707552 38.43391976 -46.15272202 11.11476104 0 0 Z " fill="#FFFFFF" transform="translate(204,54)"/>
<path d="M0 0 C30.9036997 7.96610912 57.11180745 23.97486147 80 46 C80.67933594 46.61617187 81.35867188 47.23234375 82.05859375 47.8671875 C95.12535314 60.09180647 105.06924663 76.13849325 113 92 C84.95 92 56.9 92 28 92 C25 79 25 79 23.67578125 72.95703125 C18.91866723 51.34314915 13.00945059 30.46479638 3.8828125 10.265625 C2.36351901 6.90158079 1.08302753 3.53408985 0 0 Z " fill="#FFFFFF" transform="translate(288,56)"/>
<path d="M0 0 C26.73 0 53.46 0 81 0 C83.31 9.57 85.62 19.14 88 29 C92.61951381 43.84843725 97.49232184 57.98340617 104.15234375 71.98828125 C105.70119071 75.25738602 106.94718102 78.53286315 108 82 C80.00850189 76.53824427 55.40425152 61.22835021 34 43 C33.19691406 42.32066406 32.39382812 41.64132812 31.56640625 40.94140625 C26.57796926 36.62594558 22.21795889 32.06155067 18 27 C17.21625 26.0925 16.4325 25.185 15.625 24.25 C0 5.95731707 0 5.95731707 0 0 Z " fill="#FFFFFF" transform="translate(91,317)"/>
<path d="M0 0 C22.11 0 44.22 0 67 0 C65.96894655 4.1242138 64.50373005 6.69384009 62.3125 10.3125 C50.49530112 30.56259216 47.33108394 50.16498564 48.14697266 73.32202148 C48.16410309 74.00465561 48.18123352 74.68728973 48.19888306 75.39060974 C48.24726134 77.2686835 48.31826643 79.14613472 48.390625 81.0234375 C48 84 48 84 46.15625 85.90234375 C44 87 44 87 41.25 87.1875 C31.76306053 83.72111827 26.58166025 73.41400463 22 65 C21.68063477 64.41734375 21.36126953 63.8346875 21.03222656 63.234375 C15.87047988 53.59212739 12.23673876 43.40417818 8.75 33.0625 C8.33766113 31.84957275 7.92532227 30.63664551 7.50048828 29.38696289 C4.28828738 19.6076681 2.2614266 10.1764197 0 0 Z " fill="#FFFFFF" transform="translate(199,317)"/>
</svg>
