<?xml version="1.0" encoding="UTF-8"?>
<svg version="1.1" xmlns="http://www.w3.org/2000/svg" width="512" height="512">
<path d="M0 0 C1.68603219 0.96247182 3.31434022 2.02466431 4.9296875 3.1015625 C4.3705987 6.34427756 3.5164697 8.03213674 0.9296875 10.1015625 C0.2696875 10.1015625 -0.3903125 10.1015625 -1.0703125 10.1015625 C-1.2971875 10.6584375 -1.5240625 11.2153125 -1.7578125 11.7890625 C-3.81836544 15.41956053 -6.47679203 18.32756685 -10.2578125 20.1640625 C-12.22545887 20.95593687 -12.22545887 20.95593687 -12.99535179 22.95688248 C-14.12409162 25.20885852 -15.30475574 26.58262277 -17.08218384 28.35394287 C-17.69916641 28.97367477 -18.31614899 29.59340668 -18.951828 30.23191833 C-19.62724136 30.90014114 -20.30265472 31.56836395 -20.99853516 32.25683594 C-21.71083786 32.96943069 -22.42314056 33.68202545 -23.1570282 34.41621399 C-25.511434 36.76922701 -27.87284375 39.1150776 -30.234375 41.4609375 C-31.86863005 43.09146225 -33.50244396 44.72242926 -35.13583374 46.3538208 C-39.43537723 50.64572926 -43.74089315 54.93159764 -48.04766846 59.21624756 C-52.44164273 63.58976072 -56.82995853 67.96894329 -61.21875 72.34765625 C-69.83040014 80.93785875 -78.44836861 89.5216927 -87.0703125 98.1015625 C-85.5853125 99.0915625 -85.5853125 99.0915625 -84.0703125 100.1015625 C-53.7103125 69.7415625 -23.3503125 39.3815625 7.9296875 8.1015625 C11.12739869 9.7004181 12.59417905 10.51754943 14.95410156 12.89892578 C15.51438049 13.45935577 16.07465942 14.01978577 16.6519165 14.59719849 C17.24373718 15.19934174 17.83555786 15.80148499 18.4453125 16.421875 C19.06114197 17.04053436 19.67697144 17.65919373 20.3114624 18.29660034 C22.27229086 20.26860064 24.22604051 22.24744987 26.1796875 24.2265625 C27.50995549 25.56686414 28.8406795 26.90671333 30.171875 28.24609375 C33.429789 31.52602839 36.68137283 34.81212192 39.9296875 38.1015625 C36.68926602 41.95340424 33.44949127 45.71137329 29.80078125 49.1875 C29.07568359 49.89132813 28.35058594 50.59515625 27.60351562 51.3203125 C26.11449746 52.75601211 24.61969583 54.18573792 23.11914062 55.609375 C16.10122315 62.45856249 10.86452288 69.65090001 10.6171875 79.7265625 C10.68845124 87.10235975 12.84044046 92.51562839 17.1796875 98.4140625 C22.36186958 103.47846771 28.74025487 106.21580823 35.9921875 106.4140625 C47.37822802 106.23428291 54.14689535 100.87713053 61.9296875 93.1015625 C62.5896875 92.44849121 63.2496875 91.79541992 63.9296875 91.12255859 C68.62363103 86.47576405 73.28747453 81.80000802 77.9296875 77.1015625 C83.92469747 82.06351105 89.39395787 87.4492249 94.8671875 92.9765625 C95.74181641 93.85570312 96.61644531 94.73484375 97.51757812 95.640625 C99.65725798 97.7919971 101.79455347 99.94568042 103.9296875 102.1015625 C102.56384033 105.15931429 101.01880385 107.26037441 98.65206909 109.61968994 C97.63824661 110.63763641 97.63824661 110.63763641 96.60394287 111.67614746 C95.86307434 112.40982544 95.12220581 113.14350342 94.35888672 113.89941406 C93.57830902 114.68028381 92.79773132 115.46115356 91.99349976 116.26568604 C89.41183705 118.84595523 86.82316192 121.41906772 84.234375 123.9921875 C82.44317831 125.77965415 80.65242262 127.56756282 78.86209106 129.355896 C74.63008178 133.58104881 70.39364992 137.8017171 66.15504181 142.02024627 C61.32889035 146.82403136 56.50842687 151.63350692 51.68843055 156.44346666 C41.77516142 166.33583917 31.85477784 176.22105137 21.9296875 186.1015625 C22.2596875 186.7615625 22.5896875 187.4215625 22.9296875 188.1015625 C25.97073265 186.74293782 28.04978423 185.22223779 30.38293457 182.85517883 C31.04737076 182.18626617 31.71180695 181.51735352 32.39637756 180.82817078 C33.11442062 180.09508194 33.83246368 179.3619931 34.57226562 178.60668945 C35.33695663 177.83425903 36.10164764 177.06182861 36.88951111 176.26599121 C38.54873912 174.58911239 40.20575709 172.91004457 41.86082458 171.22905922 C44.47769115 168.57283815 47.10196171 165.92415269 49.7286377 163.27763367 C57.19557894 155.7525741 64.65288536 148.21809579 72.09521484 140.66870117 C76.64685291 136.05176116 81.21153374 131.44794355 85.78355408 126.85118675 C87.52659438 125.09384183 89.26494007 123.33182802 90.99855042 121.56517982 C93.41684013 119.10143522 95.84995616 116.65331702 98.28710938 114.20825195 C99.00515244 113.46909042 99.7231955 112.72992889 100.46299744 111.96836853 C101.45965172 110.97768875 101.45965172 110.97768875 102.47644043 109.96699524 C103.33697651 109.09564926 103.33697651 109.09564926 104.21489716 108.20670033 C105.9296875 107.1015625 105.9296875 107.1015625 108.00489044 107.2310667 C110.73066856 108.46380882 111.82295841 110.47598426 113.16796875 113.0703125 C114.83253045 117.50914369 114.63068473 121.50816632 112.70458984 125.88626099 C104.66871351 140.4435494 93.80847907 153.48483001 82.9296875 165.9765625 C82.18374203 166.83320118 81.43779655 167.68983986 80.66924667 168.57243729 C59.01246184 192.99452143 37.28187261 205.27485509 4.98394251 207.28933907 C-7.64500672 207.98141529 -20.24041431 207.94641383 -32.87962341 207.60199451 C-35.25947885 207.5390184 -37.63936375 207.48687829 -40.01953125 207.43721771 C-49.93513311 207.21992497 -59.82581193 206.80845628 -69.72330308 206.16988254 C-71.83886026 206.03669372 -73.95487906 205.91905977 -76.07143211 205.80291939 C-100.98677684 204.34570762 -100.98677684 204.34570762 -109.89575195 194.85571289 C-111.76770769 192.66456281 -113.42050158 190.47146764 -115.0703125 188.1015625 C-111.81997753 184.25417761 -108.562762 180.46817597 -104.99267578 176.91040039 C-104.25236115 176.17016129 -103.51204651 175.42992218 -102.7492981 174.66725159 C-101.97093597 173.89405075 -101.19257385 173.12084991 -100.390625 172.32421875 C-99.57786102 171.51286972 -98.76509705 170.70152069 -97.92770386 169.86558533 C-95.35259512 167.2960366 -92.7740163 164.73000282 -90.1953125 162.1640625 C-88.43987304 160.41364321 -86.68466233 158.6629945 -84.9296875 156.91210938 C-80.64587168 152.63926948 -76.35920778 148.36930351 -72.0703125 144.1015625 C-73.36905785 140.32808681 -74.83913461 137.96038431 -77.66210938 135.15332031 C-78.39627075 134.41615784 -79.13043213 133.67899536 -79.88684082 132.91949463 C-81.07594055 131.7489151 -81.07594055 131.7489151 -82.2890625 130.5546875 C-83.10274292 129.74288025 -83.91642334 128.931073 -84.75476074 128.09466553 C-86.47281908 126.38332061 -88.19446703 124.67557288 -89.91943359 122.97119141 C-92.56740162 120.35443906 -95.20449346 117.7271098 -97.83984375 115.09765625 C-99.50979399 113.43687365 -101.18034638 111.77669626 -102.8515625 110.1171875 C-103.64429565 109.32870422 -104.43702881 108.54022095 -105.25378418 107.72784424 C-105.98794556 107.00329041 -106.72210693 106.27873657 -107.47851562 105.53222656 C-108.44875671 104.57222748 -108.44875671 104.57222748 -109.43859863 103.59283447 C-111.01588404 102.01490635 -111.01588404 102.01490635 -113.0703125 101.1015625 C-111.61557151 97.76211052 -109.78333617 95.56141466 -107.21891785 92.98947144 C-106.41563553 92.17910431 -105.61235321 91.36873718 -104.784729 90.53381348 C-103.90210388 89.65366577 -103.01947876 88.77351807 -102.11010742 87.86669922 C-101.18150406 86.93298492 -100.2529007 85.99927063 -99.29615784 85.03726196 C-96.75121081 82.47893126 -94.19990186 79.92703658 -91.64698958 77.37665701 C-89.51546192 75.24619941 -87.38691907 73.11277197 -85.25832349 70.9793855 C-80.23633101 65.94630017 -75.20903123 60.9185595 -70.1784668 55.89404297 C-64.99038278 50.71200045 -59.81154619 45.52084612 -54.63714141 40.32514751 C-50.19236388 35.86275322 -45.7417998 31.40618864 -41.286578 26.95422184 C-38.62655472 24.29601133 -35.96880396 21.63562506 -33.31664085 18.96957016 C-30.35907252 15.99709121 -27.38953531 13.03685721 -24.41870117 10.07763672 C-23.10387253 8.75134247 -23.10387253 8.75134247 -21.76248169 7.39825439 C-20.9507399 6.59352692 -20.13899811 5.78879944 -19.30265808 4.95968628 C-18.25156247 3.90833905 -18.25156247 3.90833905 -17.1792326 2.83575249 C-12.30165451 -1.17513778 -5.89444521 -2.55796679 0 0 Z " fill="#FFFFFF" transform="translate(353.0703125,71.8984375)"/>
<path d="M0 0 C76.89 0 153.78 0 233 0 C233 93.78625954 233 93.78625954 228.46484375 98.64453125 C223.22111722 102.65443977 220.27209293 103.14864456 213.78948975 103.14717102 C212.93038474 103.15084771 212.07127974 103.1545244 211.18614125 103.1583125 C208.29042937 103.16937743 205.39475333 103.17319793 202.49902344 103.17700195 C200.42967107 103.18326448 198.36031984 103.18991108 196.29096985 103.19691467 C190.65657151 103.21434389 185.02218166 103.22488163 179.38776302 103.2331202 C175.86966491 103.2382662 172.35156945 103.2443421 168.83347321 103.25063133 C157.83225303 103.26968861 146.8310396 103.28391871 135.82980609 103.2922433 C123.11945359 103.30201923 110.40927508 103.32834589 97.69898391 103.36874419 C87.88236902 103.39887739 78.06580409 103.41370952 68.24914384 103.41702431 C62.38254732 103.41937796 56.51613656 103.42837937 50.64958954 103.45348549 C45.13055684 103.47672226 39.61183279 103.48101706 34.0927639 103.47072411 C32.06667493 103.47022757 30.040571 103.4765826 28.01452827 103.49028015 C25.24879532 103.50793279 22.48417795 103.50092558 19.71844482 103.48774719 C18.91629602 103.49871644 18.11414722 103.50968568 17.28769088 103.52098733 C12.06992114 103.46094635 9.16164432 102.40930935 5 99 C-17.13700839 74.46980152 0 33.04206074 0 0 Z M149.125 50 C144.64925836 56.31869408 144.19136416 61.29774363 145 69 C146.97638252 75.22111315 151.77950872 79.12138009 157.25 82.3125 C164.4806359 84.12015897 169.85137383 83.41909605 176.2578125 79.765625 C178 79 178 79 180.6875 79.625 C181.450625 80.07875 182.21375 80.5325 183 81 C188.39242258 83.7732459 194.46310626 84.08071753 200.25 82.3125 C206.10065522 79.65311127 209.62186857 76.01876408 212.3125 70.125 C213.97924613 62.54888121 213.10736553 57.95295598 209.421875 51.203125 C206.3050178 46.3737089 202.51544781 44.27279565 197 43 C191.00967667 42.26512762 186.95950373 43.02521466 181.82421875 46.22265625 C179.45098164 47.23395001 178.39106063 46.8729269 176 46 C174.948125 45.484375 173.89625 44.96875 172.8125 44.4375 C164.18764486 40.71480612 155.24976504 42.94398413 149.125 50 Z M14 46 C13.67 47.32 13.34 48.64 13 50 C15.31000664 51.15500332 16.66334973 51.13836909 19.234375 51.16113281 C20.10868164 51.17074036 20.98298828 51.1803479 21.88378906 51.19024658 C22.82963867 51.19449646 23.77548828 51.19874634 24.75 51.203125 C25.71905273 51.20882507 26.68810547 51.21452515 27.68652344 51.22039795 C29.73761908 51.22985248 31.78872994 51.23638372 33.83984375 51.24023438 C36.98724584 51.24996059 40.13400071 51.28098812 43.28125 51.3125 C45.27082944 51.31902781 47.26041357 51.32427915 49.25 51.328125 C50.66877441 51.3466452 50.66877441 51.3466452 52.11621094 51.36553955 C52.99051758 51.36253845 53.86482422 51.35953735 54.765625 51.35644531 C55.53680664 51.36009094 56.30798828 51.36373657 57.10253906 51.36749268 C57.72870117 51.24622009 58.35486328 51.12494751 59 51 C59.66 50.01 60.32 49.02 61 48 C59.23643491 45.82631697 59.23643491 45.82631697 57.05111694 45.75949097 C56.256138 45.76393219 55.46115906 45.76837341 54.64208984 45.77294922 C53.29091568 45.77317581 53.29091568 45.77317581 51.91244507 45.77340698 C50.93844757 45.78372955 49.96445007 45.79405212 48.9609375 45.8046875 C47.46694931 45.80893234 47.46694931 45.80893234 45.94277954 45.81326294 C42.75339882 45.8244816 39.56429622 45.84958919 36.375 45.875 C34.21614988 45.88502762 32.05729537 45.89415385 29.8984375 45.90234375 C24.59886301 45.92442639 19.29945137 45.95792042 14 46 Z M13 72 C13.33 73.32 13.66 74.64 14 76 C45.68 76 77.36 76 110 76 C110.33 74.68 110.66 73.36 111 72 C107.64638991 70.32319495 103.86347652 70.86201183 100.17578125 70.87060547 C99.26186615 70.86885315 98.34795105 70.86710083 97.40634155 70.86529541 C94.37504191 70.86088184 91.34380027 70.86381316 88.3125 70.8671875 C86.21264637 70.86651432 84.11279282 70.86554417 82.01293945 70.86428833 C77.60790262 70.86281203 73.20288604 70.86496376 68.79785156 70.86962891 C63.14150887 70.87532615 57.48521363 70.87204678 51.82887268 70.86605644 C47.49157349 70.86244902 43.15428561 70.86359026 38.81698608 70.86618423 C36.73090611 70.866853 34.64482512 70.86602683 32.55874634 70.86370468 C29.64720932 70.86117521 26.73574996 70.86502297 23.82421875 70.87060547 C22.95558197 70.86858124 22.08694519 70.86655701 21.19198608 70.86447144 C16.96167709 70.75985458 16.96167709 70.75985458 13 72 Z " fill="#FFFFFF" transform="translate(171,333)"/>
<path d="M0 0 C0.81984375 0.42152344 1.6396875 0.84304687 2.484375 1.27734375 C3.56203125 1.82519531 4.6396875 2.37304688 5.75 2.9375 C6.81734375 3.48277344 7.8846875 4.02804688 8.984375 4.58984375 C16.53477765 8.12053722 26.00520655 8.30019108 34.03125 6.2109375 C38.29372719 4.52905644 42.0813518 2.36372536 46 0 C51.30507014 5.17860463 56.59068299 10.37647092 61.86303711 15.58837891 C63.66001218 17.3601635 65.46144274 19.12744081 67.26733398 20.89013672 C69.85796517 23.42032221 72.43229491 25.96612885 75.00390625 28.515625 C75.81839737 29.30430969 76.63288849 30.09299438 77.47206116 30.90557861 C78.21290451 31.64604431 78.95374786 32.38651001 79.71704102 33.14941406 C80.37656265 33.79783264 81.03608429 34.44625122 81.71559143 35.11431885 C83 37 83 37 82.77745056 39.08563232 C81.79206178 41.51201996 80.6644399 43.8416952 79.5 46.1875 C75.47015152 55.00644378 75.24899621 62.67278714 78 72 C79.27741051 74.69087658 80.64021693 77.25442768 82.171875 79.80859375 C83 82 83 82 82.30880928 83.86487961 C80.75989036 86.39170183 78.98688661 88.25878141 76.88717651 90.35333252 C76.02618347 91.21707489 75.16519043 92.08081726 74.27810669 92.97073364 C73.32205287 93.91970982 72.36590342 94.86858966 71.40966797 95.81738281 C70.40403002 96.82245647 69.39883254 97.82797103 68.39404297 98.83389282 C65.66730371 101.56120591 62.9344419 104.28230848 60.2004447 107.00234318 C57.34344513 109.84684044 54.49210812 112.69700229 51.64016724 115.54656982 C46.23975589 120.94076494 40.83426652 126.32984153 35.42693722 131.71710086 C29.27070736 137.8509762 23.12015539 143.99053138 16.97007537 150.13057184 C4.31969401 162.76004796 -8.33780527 175.38236845 -21 188 C-21.89203125 187.57847656 -22.7840625 187.15695312 -23.703125 186.72265625 C-25.45882812 185.90087891 -25.45882812 185.90087891 -27.25 185.0625 C-28.41015625 184.51722656 -29.5703125 183.97195313 -30.765625 183.41015625 C-40.05701596 179.35919956 -49.30753603 180.2131948 -58.625 183.83203125 C-60.99907144 184.99954336 -62.94609137 186.34070808 -65 188 C-68.13738154 186.60919475 -70.25475281 184.98977796 -72.66699219 182.56005859 C-73.71762848 181.50919571 -73.71762848 181.50919571 -74.78948975 180.43710327 C-75.53442688 179.68184357 -76.27936401 178.92658386 -77.046875 178.1484375 C-77.81807678 177.37440582 -78.58927856 176.60037415 -79.3838501 175.80288696 C-81.84396856 173.33158077 -84.29703848 170.85340817 -86.75 168.375 C-88.41750894 166.69745948 -90.08547232 165.02037055 -91.75390625 163.34375 C-95.8412237 159.23439081 -99.92277696 155.11937353 -104 151 C-102.72587978 147.78859178 -101.38911267 144.63504181 -99.9375 141.5 C-96.02045654 132.6466081 -96.10343203 124.46892473 -99.0625 115.29296875 C-99.93701483 113.15405123 -100.89887635 111.48748642 -102.25 109.625 C-104 107 -104 107 -103.8612833 105.11039352 C-102.71906423 102.31162601 -101.11164434 100.74307212 -98.96946716 98.60870361 C-98.10143463 97.73654709 -97.2334021 96.86439056 -96.33906555 95.96580505 C-95.36998064 95.00733715 -94.4007528 94.04901373 -93.43139648 93.09082031 C-92.41583925 92.07610932 -91.40094221 91.06073722 -90.38665771 90.04475403 C-87.63108589 87.28832072 -84.86635568 84.54124126 -82.09990954 81.79572773 C-79.21042854 78.92498784 -76.32942886 76.04576227 -73.44752502 73.16741943 C-67.98886369 67.71808609 -62.52259937 62.27644583 -57.05357367 56.83751655 C-50.82769008 50.64515344 -44.61031278 44.44427977 -38.39364135 38.24267054 C-25.6052141 25.4856094 -12.80612423 12.73929475 0 0 Z M-42.625 71.97265625 C-48.6554208 80.71317687 -50.23416111 91.36154341 -48.56640625 101.68359375 C-45.9944959 112.94568564 -40.27374013 121.00438846 -30.7109375 127.41015625 C-21.32912967 132.91216747 -11.18106731 134.40607397 -0.625 131.875 C9.92075215 128.73464444 17.91129314 122.95611168 23.50390625 113.44140625 C28.35179873 104.14615942 29.64316347 94.31442484 27.31640625 83.95703125 C23.14019785 71.67100737 16.23991534 64.08963913 4.88671875 57.8359375 C-12.69458584 50.53030802 -31.16684887 58.06312183 -42.625 71.97265625 Z " fill="#FFFFFF" transform="translate(170,154)"/>
<path d="M0 0 C5.91855235 0.11968446 11.83733289 0.13000564 17.75690866 0.15248275 C28.9388114 0.21127743 40.11713755 0.36681994 51.29747301 0.55812305 C64.03718746 0.77132346 76.77708296 0.87516477 89.51814044 0.97033632 C115.70167524 1.16834254 141.88179414 1.50588695 168.06261849 1.92648482 C168.06261849 9.51648482 168.06261849 17.10648482 168.06261849 24.92648482 C91.17261849 24.92648482 14.28261849 24.92648482 -64.93738151 24.92648482 C-62.7281333 16.089492 -56.38804572 8.77617229 -48.82040381 3.81759429 C-35.36782809 -3.60931378 -14.75268321 -0.3490797 0 0 Z " fill="#FFFFFF" transform="translate(235.9373815059662,304.07351517677307)"/>
<path d="M0 0 C4.77593292 0.11522109 9.55203966 0.11688801 14.32914782 0.13227344 C22.33086407 0.17342577 30.3286952 0.2867624 38.32875109 0.45308948 C49.60575081 0.68742643 60.8811372 0.78875939 72.16016126 0.86452281 C80.94348814 0.92807563 89.72649701 1.02567758 98.50941515 1.13057971 C99.91674827 1.14705361 99.91674827 1.14705361 101.35251236 1.16386032 C106.74074594 1.22939718 112.12821424 1.31248611 117.51574945 1.4214828 C119.14506725 1.45256837 120.77448531 1.47883472 122.40396357 1.499892 C124.63026433 1.52986432 126.85543409 1.57811342 129.08128405 1.63132739 C130.32553841 1.65453838 131.56979277 1.67774938 132.8517518 1.70166373 C137.83288356 2.3272217 141.92720742 4.1180856 145.04847765 8.12667346 C149.70504276 14.5128199 148.23597765 16.71565268 148.23597765 26.12667346 C79.92597765 26.12667346 11.61597765 26.12667346 -58.76402235 26.12667346 C-45.56513782 -0.27109561 -26.32656949 -0.75027702 0 0 Z " fill="#FFFFFF" transform="translate(255.76402235031128,275.8733265399933)"/>
<path d="M0 0 C8.23036206 5.92237693 12.84835303 12.99622117 14.78515625 23.01953125 C16.07648906 33.63220891 13.66916172 41.69570938 7.25 50.25 C0.81148948 57.52777162 -6.30705549 61.50389304 -15.98828125 62.625 C-25.97665976 63.0005912 -34.05944027 60.33460161 -41.86328125 54.08203125 C-49.5361768 46.63153847 -52.74821341 39.02177773 -53.125 28.4375 C-52.95739127 18.55906034 -49.64530002 10.39101227 -42.75 3.25 C-30.09004673 -7.46600651 -14.06437752 -8.82563287 0 0 Z M-34.75 14.25 C-35.89753683 20.80635166 -35.89753683 20.80635166 -34.625 27.1875 C-32.3582494 29.68092566 -30.91694132 31.01076209 -27.75 32.25 C-26.26387431 32.07144516 -24.78392795 31.83700168 -23.3125 31.5625 C-19.28007158 30.90166725 -19.28007158 30.90166725 -16.8359375 32.5078125 C-15.1875 34.1875 -15.1875 34.1875 -12.75 37.25 C-13.678125 37.1675 -14.60625 37.085 -15.5625 37 C-18.84105222 36.89696955 -18.84105222 36.89696955 -20.625 39.25 C-20.99625 39.91 -21.3675 40.57 -21.75 41.25 C-18.05594568 43.71270288 -16.11722928 43.47985417 -11.75 43.25 C-11.028125 43.064375 -10.30625 42.87875 -9.5625 42.6875 C-7.33481439 42.14978278 -5.90542525 42.55718474 -3.75 43.25 C-4.12125 42.5075 -4.4925 41.765 -4.875 41 C-5.95893149 37.59335817 -5.27465107 37.29930214 -3.75 34.25 C-3.82774285 29.97414311 -4.35534877 27.79554729 -6.875 24.3125 C-10.49501985 21.71552924 -12.37539377 21.78129219 -16.75 22.25 C-18.42557379 22.53520405 -20.09817245 22.84955696 -21.75 23.25 C-23.4 21.27 -25.05 19.29 -26.75 17.25 C-25.96625 17.146875 -25.1825 17.04375 -24.375 16.9375 C-21.41954819 16.47404978 -21.41954819 16.47404978 -19.75 13.25 C-24.6356475 10.80717625 -29.9191314 12.36478298 -34.75 14.25 Z " fill="#FFFFFF" transform="translate(178.75,219.75)"/>
<path d="M0 0 C7.11905227 5.80683219 13.47374812 12.36285444 19.9375 18.875 C21.10979204 20.05231638 22.28231614 21.22940174 23.45507812 22.40625 C26.30606982 25.26817489 29.15389615 28.13321457 32 31 C27.11136529 36.87271053 21.88497574 42.33152519 16.5 47.75 C15.67113281 48.59949219 14.84226562 49.44898438 13.98828125 50.32421875 C7.67925802 56.67336295 2.67469911 60.39627597 -6.40625 61.06640625 C-12.82480878 60.90207568 -18.45619568 58.54380432 -23 54 C-28.08052186 47.46790047 -29.34357331 41.69785144 -28.6796875 33.625 C-27.0100817 27.17686726 -23.01925556 22.58321867 -18.359375 18.06640625 C-17.83232971 17.5436058 -17.30528442 17.02080536 -16.76226807 16.48216248 C-15.09849846 14.83501328 -13.42454791 13.19868291 -11.75 11.5625 C-10.61128536 10.43885372 -9.47325776 9.31451073 -8.3359375 8.18945312 C-5.56516123 5.45152489 -2.78521099 2.72323973 0 0 Z M-12 29 C-13.60086627 32.20173254 -13.49917089 35.52577059 -13 39 C-11.20636089 41.8100346 -9.98119065 43.50940468 -7 45 C-1.18654053 45.53365513 -1.18654053 45.53365513 3.9375 43.125 C7.09695358 39.8698054 7.33421243 37.57586762 7.29296875 33.0390625 C6.83745033 29.86865433 5.24684343 28.1807598 3 26 C-2.71872108 23.14063946 -7.77770087 24.64975241 -12 29 Z " fill="#FFFFFF" transform="translate(396,114)"/>
<path d="M0 0 C0.66 0.66 1.32 1.32 2 2 C2.556875 1.57847656 3.11375 1.15695312 3.6875 0.72265625 C8.90968966 -3.02638194 12.50578791 -5.10474536 19 -5 C24.88968853 -3.3029711 27.52506995 -0.80357977 31 4 C32.84581616 7.69163233 32.34502398 11.96194158 32 16 C30.25500298 20.36249255 27.09185704 23.6783159 23 26 C18.0784774 27.57671002 14.22122683 27.43654054 9.5625 25.1875 C7.31458389 23.92957523 5.83983272 22.83983272 4 21 C1.09132547 21.20059824 -0.01976691 22.0180726 -2.1875 24 C-6.03684392 26.73731123 -9.3100279 27.32829805 -14 27 C-19.33643393 25.40282787 -22.97104579 22.72516856 -26 18 C-27.5271547 13.41853591 -27.97545313 9.27470814 -26.05859375 4.8046875 C-23.19493649 -0.06083674 -20.40648008 -2.63740797 -15.125 -4.75 C-8.96741699 -5.47442153 -4.8194356 -3.69863662 0 0 Z " fill="#FFFFFF" transform="translate(347,385)"/>
<path d="M0 0 C3.2586636 1.4264578 5.4024854 3.16704162 7.890625 5.6953125 C8.95410156 6.76845703 8.95410156 6.76845703 10.0390625 7.86328125 C10.76867187 8.60964844 11.49828125 9.35601562 12.25 10.125 C12.99507812 10.87910156 13.74015625 11.63320312 14.5078125 12.41015625 C16.3431342 14.26900772 18.1736191 16.13237005 20 18 C14.47353435 23.76416309 9.19050613 25.63874947 1.375 26.3125 C-5.1500018 26.25035713 -11.63308699 23.577942 -17 20 C-16.42619828 16.33622257 -15.02730342 14.67232775 -12.40234375 12.109375 C-11.68369141 11.40039062 -10.96503906 10.69140625 -10.22460938 9.9609375 C-9.46986328 9.23132813 -8.71511719 8.50171875 -7.9375 7.75 C-7.17888672 7.00492188 -6.42027344 6.25984375 -5.63867188 5.4921875 C-3.76567793 3.65453306 -1.88604389 1.82424276 0 0 Z " fill="#FFFFFF" transform="translate(192,132)"/>
<path d="M0 0 C3 1 3 1 4.1328125 2.7421875 C4.46023437 3.44601562 4.78765625 4.14984375 5.125 4.875 C5.45757812 5.57367188 5.79015625 6.27234375 6.1328125 6.9921875 C9.36076784 14.46592194 9.06736798 23.10822771 6.25 30.6875 C4.74307567 34.34119352 3.54310856 35.37750125 0 37 C-2.87428425 34.27038702 -5.72059393 31.51327626 -8.5625 28.75 C-9.38169922 27.97269531 -10.20089844 27.19539063 -11.04492188 26.39453125 C-12.20024414 25.26337891 -12.20024414 25.26337891 -13.37890625 24.109375 C-14.0963501 23.41811523 -14.81379395 22.72685547 -15.55297852 22.01464844 C-17 20 -17 20 -16.95117188 17.98632812 C-15.77416584 15.52839149 -14.35307023 14.01402133 -12.40234375 12.109375 C-11.68369141 11.40039062 -10.96503906 10.69140625 -10.22460938 9.9609375 C-9.46986328 9.23132813 -8.71511719 8.50171875 -7.9375 7.75 C-7.17888672 7.00492187 -6.42027344 6.25984375 -5.63867188 5.4921875 C-3.76567793 3.65453306 -1.88604389 1.82424276 0 0 Z " fill="#FFFFFF" transform="translate(61,263)"/>
<path d="M0 0 C3.2586636 1.4264578 5.4024854 3.16704162 7.890625 5.6953125 C8.95410156 6.76845703 8.95410156 6.76845703 10.0390625 7.86328125 C10.76867187 8.60964844 11.49828125 9.35601562 12.25 10.125 C12.99507813 10.87910156 13.74015625 11.63320312 14.5078125 12.41015625 C16.3431342 14.26900772 18.1736191 16.13237005 20 18 C16.07711742 22.70341126 11.98981304 27.14273951 7.625 31.4375 C6.80708984 32.24864258 6.80708984 32.24864258 5.97265625 33.07617188 C4.65076536 34.38646723 3.32572382 35.69358284 2 37 C-1 36 -1 36 -2.1328125 34.29296875 C-2.46023437 33.59816406 -2.78765625 32.90335938 -3.125 32.1875 C-3.45757812 31.50042969 -3.79015625 30.81335938 -4.1328125 30.10546875 C-7.63298449 21.60730342 -6.31828245 13.70817148 -3.0703125 5.34765625 C-2 3 -2 3 0 0 Z " fill="#FFFFFF" transform="translate(256,196)"/>
<path d="M0 0 C1.7578125 1.38671875 1.7578125 1.38671875 2.7578125 4.38671875 C2.29632813 4.77601563 1.83484375 5.1653125 1.359375 5.56640625 C-4.46355397 10.56077615 -9.86926672 15.91470722 -15.2421875 21.38671875 C-18.39423731 19.99324499 -20.50390523 18.36186796 -22.9140625 15.91015625 C-23.57792969 15.23984375 -24.24179688 14.56953125 -24.92578125 13.87890625 C-25.60769531 13.18023437 -26.28960937 12.4815625 -26.9921875 11.76171875 C-28.03826172 10.70210938 -28.03826172 10.70210938 -29.10546875 9.62109375 C-30.82231238 7.88073172 -32.53430582 6.13586894 -34.2421875 4.38671875 C-32.24017896 0.10284515 -30.49216498 -1.07891537 -26.1328125 -2.84375 C-17.00972034 -5.27246508 -8.24789419 -4.53225869 0 0 Z " fill="#FFFFFF" transform="translate(142.2421875,342.61328125)"/>
<path d="M0 0 C1.1055189 0.93590504 2.20935453 1.87379858 3.3125 2.8125 C3.92738281 3.33457031 4.54226562 3.85664063 5.17578125 4.39453125 C8.51952278 7.3373102 8.51952278 7.3373102 10 9 C10 9.66 10 10.32 10 11 C3.73 11 -2.54 11 -9 11 C-7.25323081 7.50646162 -6.08594785 5.86054237 -3.375 3.25 C-2.74335938 2.63640625 -2.11171875 2.0228125 -1.4609375 1.390625 C-0.73777344 0.70226562 -0.73777344 0.70226562 0 0 Z " fill="#FFFFFF" transform="translate(234,263)"/>
<path d="M0 0 C2.9375 0.8125 2.9375 0.8125 4.9375 3.8125 C4.75 6.875 4.75 6.875 3.9375 9.8125 C0.9375 11.8125 0.9375 11.8125 -2.125 11.625 C-5.0625 10.8125 -5.0625 10.8125 -7.0625 7.8125 C-6.875 4.75 -6.875 4.75 -6.0625 1.8125 C-3.0625 -0.1875 -3.0625 -0.1875 0 0 Z " fill="#FFFFFF" transform="translate(394.0625,143.1875)"/>
<path d="M0 0 C5.71428571 0.71428571 5.71428571 0.71428571 7 2 C7.04080783 3.99958364 7.04254356 6.00045254 7 8 C3.2047869 6.50902342 1.38957269 4.24299151 -1 1 C-0.67 0.67 -0.34 0.34 0 0 Z " fill="#FFFFFF" transform="translate(163,247)"/>
<path d="M0 0 C1.17219543 0.78345715 2.33763668 1.57702836 3.5 2.375 C4.47453125 3.03628906 4.47453125 3.03628906 5.46875 3.7109375 C5.9740625 4.13632813 6.479375 4.56171875 7 5 C7 5.66 7 6.32 7 7 C4.625 7.125 4.625 7.125 2 7 C0 5 0 5 -0.125 2.375 C-0.08375 1.59125 -0.0425 0.8075 0 0 Z " fill="#FFFFFF" transform="translate(148,239)"/>
</svg>
