<?xml version="1.0" encoding="UTF-8"?>
<svg version="1.1" xmlns="http://www.w3.org/2000/svg" width="512" height="512">
<path d="M0 0 C10.00787307 7.23771553 15.70515043 16.61932678 22 27 C23.91715902 30.12662475 25.8410407 33.24886218 27.77246094 36.36669922 C29.06020572 38.44775838 30.33993649 40.53380488 31.61035156 42.62548828 C37.79606527 52.66768603 43.16647347 60.47322214 55.00952148 63.51635742 C59.34766396 64.21795431 63.6707946 64.29298829 68.05859375 64.4296875 C70.07488777 64.5034161 72.09116332 64.57765158 74.10742188 64.65234375 C77.25987368 64.76507947 80.41230014 64.87420138 83.56518555 64.97412109 C105.44265588 65.68123681 125.1523831 67.70052825 141.3046875 83.984375 C151.35092064 94.81868721 157.15732369 109.19190745 157 124 C156.09948566 138.81024484 150.56257288 150.3208431 143.6875 163.3125 C143.1193457 164.39756836 142.55119141 165.48263672 141.96582031 166.60058594 C139.47802324 171.34308156 136.97040213 176.07354143 134.41015625 180.77734375 C134.03866455 181.46207764 133.66717285 182.14681152 133.28442383 182.85229492 C132.32706456 184.608621 131.35929297 186.3592606 130.390625 188.109375 C128.46033854 192.1217682 127.8482185 195.83016765 127.75 200.25 C127.72421875 200.93578125 127.6984375 201.6215625 127.671875 202.328125 C128.67817592 210.5222896 132.71679175 217.70220194 136.5625 224.875 C137.3522522 226.37305176 137.3522522 226.37305176 138.15795898 227.90136719 C140.70749688 232.73126331 143.29025282 237.54174432 145.90625 242.3359375 C154.90915483 258.90251278 159.76225163 275.1958489 154.375 294.0625 C148.75077231 309.38705071 139.58787924 321.27700511 125 329 C113.97137706 333.76928973 103.13475363 335.06807126 91.25390625 335.4296875 C89.1790156 335.50332069 87.10414631 335.57755799 85.02929688 335.65234375 C81.79302717 335.76574205 78.55681414 335.87517382 75.32006836 335.97412109 C72.17246631 336.07219214 69.02583432 336.18716275 65.87890625 336.3046875 C64.44412682 336.34237747 64.44412682 336.34237747 62.98036194 336.38082886 C53.81035223 336.74771205 46.58306565 338.58844559 39.81787109 344.97900391 C36.74128754 348.39935827 34.54203905 352.18183391 32.3125 356.1875 C31.28422771 357.96136487 30.25287784 359.73344865 29.21875 361.50390625 C28.42984375 362.86153076 28.42984375 362.86153076 27.625 364.24658203 C15.08167684 385.50012749 2.7433366 403.60184978 -22.375 410.3125 C-37.56212984 413.16351354 -52.96796395 410.21196792 -66 402 C-69.58785781 399.22429338 -72.85186141 396.26362054 -76 393 C-76.51957275 392.46221924 -77.03914551 391.92443848 -77.57446289 391.37036133 C-82.89679345 385.60494131 -86.79993127 379.15264893 -90.8125 372.4375 C-91.8730724 370.69265769 -92.93784752 368.95042561 -94.00274658 367.20822144 C-96.19479295 363.62123071 -98.3801242 360.03025745 -100.54736328 356.42822266 C-106.16837083 347.13775048 -111.30684884 340.56438372 -122 337 C-131.42421003 336.0046213 -140.9085014 335.81302036 -150.375 335.5625 C-169.33876479 334.96014999 -185.85321913 333.97758768 -202 323 C-202.61488281 322.58363281 -203.22976562 322.16726563 -203.86328125 321.73828125 C-214.00676131 313.97327237 -222.20139648 299.53680074 -224 287 C-224.21432814 283.83245566 -224.27654004 280.67406553 -224.3125 277.5 C-224.34150391 276.67757813 -224.37050781 275.85515625 -224.40039062 275.0078125 C-224.53078224 261.96865072 -218.76226977 250.85461877 -212.75 239.625 C-212.07565205 238.34501302 -211.40231904 237.06449085 -210.72998047 235.78344727 C-207.94117611 230.48147176 -205.11224571 225.20114184 -202.2734375 219.92578125 C-201.89993164 219.23081543 -201.52642578 218.53584961 -201.14160156 217.81982422 C-200.20901953 216.0930693 -199.26521252 214.37238903 -198.3203125 212.65234375 C-196.33637464 208.66685911 -195.81028351 205.308131 -195.6875 200.875 C-195.65011719 200.00617188 -195.61273438 199.13734375 -195.57421875 198.2421875 C-196.81200584 188.8168363 -202.37929946 180.15161951 -206.75 171.875 C-207.37735583 170.67575502 -208.00397765 169.47612579 -208.62988281 168.27612305 C-209.85860537 165.92047234 -211.08885983 163.56565411 -212.3203125 161.21142578 C-214.47818991 157.08573981 -216.63227194 152.95895017 -218.75 148.8125 C-219.34296875 147.66394531 -219.9359375 146.51539063 -220.546875 145.33203125 C-226.03645869 132.74435682 -225.95701912 116.69756602 -221.25390625 103.8828125 C-214.00119868 87.20836333 -203.19436602 76.19671902 -186.4453125 69.04296875 C-172.97228318 64.96439865 -158.6989932 65.3794606 -144.74853516 64.97094727 C-141.70425366 64.87876161 -138.66086512 64.77029231 -135.6171875 64.66015625 C-134.70025116 64.63816666 -133.78331482 64.61617706 -132.83859253 64.59352112 C-123.10427179 64.22512123 -113.99770013 62.15574788 -107 55 C-104.30182807 51.42901686 -102.02251528 47.66463858 -99.75 43.8125 C-98.43752369 41.65883973 -97.12502338 39.50519408 -95.8125 37.3515625 C-93.979625 34.30381093 -92.1516385 31.25317267 -90.32421875 28.20214844 C-79.53381254 10.26945723 -68.12745417 -3.88156044 -46.84375 -9.34375 C-29.89941295 -12.23668559 -14.49432491 -9.4060823 0 0 Z M-116 120 C-122.27648191 129.08243853 -123.91105401 135.93720131 -123 147 C-121.07819065 154.6177744 -116.13867155 161.39393026 -109.5 165.57421875 C-101.43355137 169.76349044 -94.09206976 171.2035967 -85.125 168.9375 C-77.74840191 166.52354476 -72.02847156 162.27682027 -68.0625 155.5625 C-63.82421436 146.8659485 -62.74308016 138.6734785 -65.90625 129.3203125 C-69.6129718 121.08037011 -75.61713944 115.42935205 -84 112 C-95.44201096 108.53793231 -107.72890808 111.35294935 -116 120 Z M11.69793701 134.0480957 C11.18800996 134.55490277 10.67808291 135.06170984 10.15270352 135.5838747 C8.45216781 137.27645879 6.75884012 138.97607067 5.06542969 140.67578125 C3.84506932 141.89343057 2.6242841 143.11065422 1.40310669 144.32748413 C-1.90703604 147.62851611 -5.21082959 150.93583478 -8.51324558 154.24459457 C-11.96911414 157.70552759 -15.42986073 161.16157724 -18.88983154 164.6184082 C-24.6970852 170.4220245 -30.50011155 176.22984267 -36.30078125 182.04003906 C-43.01186033 188.76201248 -49.73012796 195.47673669 -56.45215535 202.18776035 C-62.22151161 207.94804942 -67.98697216 213.71221592 -73.74917674 219.47965908 C-77.19165058 222.92525443 -80.63546972 226.36947592 -84.08280182 229.81021118 C-87.32125633 233.04290079 -90.5548028 236.28041993 -93.78458023 239.52177811 C-94.97248481 240.71233341 -96.16210614 241.90117852 -97.3535347 243.08820724 C-98.97563887 244.70487111 -100.59149567 246.32752848 -102.20587158 247.9519043 C-103.56637571 249.31353951 -103.56637571 249.31353951 -104.95436478 250.7026825 C-108.27474259 254.43157902 -108.33955658 257.9353864 -108.28515625 262.71484375 C-107.74055031 267.07915165 -105.20275457 269.7081525 -102.3125 272.8125 C-98.69147514 274.6719452 -95.05445467 275.43093755 -91 275 C-82.70358271 271.83776727 -77.16360536 265.72856325 -71.03198242 259.54956055 C-69.84439153 258.3673961 -68.65595276 257.18608291 -67.46673584 256.0055542 C-64.25318379 252.8101741 -61.0523373 249.60234718 -57.85422301 246.39152503 C-54.49974165 243.02688665 -51.13547755 239.67205253 -47.77278137 236.31562805 C-42.12947394 230.67958814 -36.49463096 225.03518872 -30.86450195 219.38598633 C-24.36107127 212.8607782 -17.84334191 206.35011906 -11.31801909 199.84680909 C-5.70792278 194.25487961 -0.10567776 188.65517408 5.49010962 183.0489257 C8.82883148 179.70397738 12.17017424 176.36176755 15.51862526 173.02655602 C18.66567732 169.89108075 21.80274095 166.74593914 24.93244934 163.59315491 C26.08069159 162.43963587 27.23232871 161.28948449 28.38762474 160.14303017 C29.96768798 158.57394613 31.53484164 156.99297577 33.09944153 155.40849304 C33.97858121 154.52784526 34.85772089 153.64719748 35.76350117 152.7398634 C38.75223783 149.07845742 40.75964999 145.34716805 41.25 140.55859375 C40.57807201 134.85770469 39.17867359 131.98431668 35 128 C32.11481031 126.25934837 29.92242876 125.7049693 26.5625 125.6875 C25.82128906 125.67074219 25.08007812 125.65398437 24.31640625 125.63671875 C18.96326611 126.47625 15.39339585 130.35570405 11.69793701 134.0480957 Z M5 239 C-1.83954723 247.9651208 -4.07320068 255.69743082 -3 267 C-1.05975259 274.62157067 3.85526821 281.42630676 10.53515625 285.57421875 C18.25096525 289.54007639 25.13771142 291.382301 33.75 289.3515625 C42.58008501 286.48178487 48.602695 282.17411385 52.9375 273.875 C56.78017661 265.72070997 56.79435613 258.0106933 54.046875 249.49609375 C50.76640349 241.67437249 45.06890107 236.25533255 37.4375 232.75 C26.41671554 228.62334668 13.42486206 230.34111399 5 239 Z " fill="#FFFFFF" transform="translate(286,58)"/>
</svg>
