<?xml version="1.0" encoding="UTF-8"?>
<svg version="1.1" xmlns="http://www.w3.org/2000/svg" width="512" height="512">
<path d="M0 0 C42.24 0 84.48 0 128 0 C128 11.55 128 23.1 128 35 C122.39 35 116.78 35 111 35 C111 57.77 111 80.54 111 104 C124.70111066 103.8817567 124.70111066 103.8817567 138.40185547 103.72973633 C140.14029381 103.72096113 141.87873839 103.71331965 143.6171875 103.70703125 C144.4944751 103.69168335 145.3717627 103.67633545 146.27563477 103.66052246 C156.88053131 103.65611233 165.39488109 106.48506037 173 114 C177.11722838 119.02101021 178.48556104 123.78044682 180 130 C181.20483284 129.99333817 181.20483284 129.99333817 182.43400574 129.98654175 C190.01125552 129.9464333 197.58845367 129.91599948 205.16578197 129.89637566 C209.06116968 129.88594764 212.95646951 129.87180643 216.85180664 129.84912109 C220.6124743 129.82735761 224.37305755 129.81542399 228.13378334 129.81024551 C229.56707398 129.80655604 231.00036012 129.79935141 232.43361473 129.78853989 C234.44422254 129.77397921 236.45491566 129.77318269 238.46557617 129.77294922 C239.60919113 129.768508 240.75280609 129.76406677 241.93107605 129.75949097 C245.89924523 130.07047311 248.79319947 130.93655732 251.79418945 133.58105469 C253.59828847 137.20021101 253.36843763 140.75243322 253.29296875 144.703125 C253.28872391 145.54091492 253.28447906 146.37870483 253.28010559 147.24188232 C253.26334408 149.91158502 253.22569711 152.58052637 253.1875 155.25 C253.17244987 157.06248908 253.15876203 158.87499002 253.14648438 160.6875 C253.11344889 165.12529231 253.06168443 169.56251717 253 174 C247.72 174 242.44 174 237 174 C236.67 165.09 236.34 156.18 236 147 C213.23 146.67 190.46 146.34 167 146 C167 155.24 167 164.48 167 174 C163.02658569 174.01401855 163.02658569 174.01401855 158.97290039 174.02832031 C150.19973749 174.06215751 141.42680814 174.117744 132.65383244 174.18390274 C127.33716193 174.22333393 122.02065598 174.25554385 116.70385742 174.27099609 C111.56838473 174.28619128 106.43336455 174.32068787 101.2980938 174.36830902 C99.34343853 174.38309328 97.38871864 174.39103931 95.43400764 174.39188385 C92.68607019 174.39426417 89.93937255 174.42142886 87.19165039 174.45410156 C86.39179214 174.4490712 85.5919339 174.44404083 84.76783752 174.43885803 C76.55004872 174.58905218 69.54967498 177.74206197 63.50390625 183.296875 C57.78197992 189.77677079 56.88133057 197.26001199 56.85955811 205.65252686 C56.85658698 206.29579902 56.85361586 206.93907118 56.8505547 207.60183644 C56.8419282 209.74336014 56.84036463 211.88482754 56.83886719 214.02636719 C56.83423474 215.56765867 56.8292095 217.10894901 56.82382202 218.65023804 C56.81073748 222.82810647 56.80426083 227.00595886 56.79981136 231.18384457 C56.79687436 233.79744365 56.79276839 236.41103842 56.78830719 239.02463531 C56.77464288 247.21200945 56.76497091 255.39937363 56.7611053 263.58675838 C56.75662651 273.01938584 56.73908247 282.45186825 56.7101047 291.88445163 C56.6884499 299.18828079 56.678399 306.49206924 56.67706418 313.79593015 C56.67601891 318.15238866 56.67017042 322.50871064 56.65224457 326.86513519 C56.63569792 330.96591414 56.63364015 335.06645485 56.64238358 339.1672554 C56.64315042 340.66597001 56.63885805 342.16469778 56.62892532 343.66337967 C56.56295031 354.24473014 56.88427267 364.53805398 64 373 C71.18663022 379.4017948 77.54827186 381.29413855 87.03466797 381.31884766 C87.92311905 381.32889328 88.81157013 381.3389389 89.72694397 381.34928894 C92.64868554 381.38005407 95.57033575 381.39713755 98.4921875 381.4140625 C100.52386253 381.43277951 102.55552984 381.45235332 104.58718872 381.4727478 C109.9234562 381.52401865 115.25974886 381.56367145 120.59613037 381.60089111 C126.04592087 381.64096236 131.49560705 381.69204048 136.9453125 381.7421875 C147.63013499 381.83888706 158.31501646 381.923311 169 382 C169 382.66 169 383.32 169 384 C167.43880578 384.79423861 165.87598036 385.58527123 164.3125 386.375 C163.44238281 386.81585938 162.57226562 387.25671875 161.67578125 387.7109375 C159.15227201 388.92664268 156.61262468 389.99260958 154 391 C154.01160156 391.71027344 154.02320313 392.42054688 154.03515625 393.15234375 C154.04417969 394.07144531 154.05320312 394.99054688 154.0625 395.9375 C154.07990234 397.31228516 154.07990234 397.31228516 154.09765625 398.71484375 C154 401 154 401 153 402 C150.46950598 402.07313567 147.96695163 402.09247527 145.4375 402.0625 C144.37112305 402.05573242 144.37112305 402.05573242 143.28320312 402.04882812 C141.52209987 402.03700864 139.76103964 402.01907263 138 402 C138 398.04 138 394.08 138 390 C137.15977389 390.00368717 136.31954779 390.00737434 135.45386028 390.01117325 C114.97926227 390.09963308 94.50469734 390.1657625 74.02994823 390.20724869 C64.12837535 390.227846 54.22693028 390.25591233 44.32543945 390.30175781 C35.69209575 390.34171241 27.05884464 390.36745338 18.42541105 390.37635398 C13.85694333 390.38155415 9.28874046 390.39371708 4.72035789 390.42292023 C0.41361493 390.4502258 -3.89275602 390.45841465 -8.19957733 390.45243073 C-9.7736711 390.45352423 -11.34777832 390.46138759 -12.9217968 390.4768219 C-24.89988933 390.5884377 -35.2919739 389.54273815 -44.28125 380.921875 C-51.46978143 372.88378985 -53.30569798 364.86073449 -53.26069641 354.3352356 C-53.26452196 353.38005346 -53.26834751 352.42487133 -53.27228898 351.44074428 C-53.28258304 348.24966498 -53.27863363 345.05876682 -53.2746582 341.86767578 C-53.27900666 339.57585484 -53.28419026 337.28403535 -53.29014587 334.99221802 C-53.30353275 328.77320192 -53.30411487 322.55424661 -53.30158257 316.33521891 C-53.30051264 311.14137498 -53.30539683 305.94754334 -53.310188 300.75370204 C-53.32191632 287.79887377 -53.32105871 274.84408426 -53.31463119 261.88925432 C-53.30946312 250.6504553 -53.32071584 239.411743 -53.33972941 228.17296113 C-53.35912303 216.62056802 -53.36706992 205.06822616 -53.36360615 193.51581562 C-53.36179369 187.0349995 -53.36442591 180.55426279 -53.37832069 174.07345963 C-53.39089996 167.97819879 -53.38895381 161.88311142 -53.37590981 155.78785324 C-53.3735447 153.55339754 -53.37627633 151.31892962 -53.38453293 149.08448792 C-53.39500741 146.02903521 -53.38689372 142.97416377 -53.3742218 139.91873169 C-53.38159609 139.0392402 -53.38897037 138.15974871 -53.39656812 137.25360596 C-53.31638456 128.03288988 -50.80337589 119.87678994 -44.2109375 113.18359375 C-35.63815998 105.25625701 -27.47653132 103.83791128 -16.10546875 103.90234375 C-15.26520142 103.90335083 -14.42493408 103.90435791 -13.5592041 103.90539551 C-10.43528875 103.9106079 -7.31139293 103.92456913 -4.1875 103.9375 C6.3003125 103.9684375 6.3003125 103.9684375 17 104 C17 81.23 17 58.46 17 35 C11.39 35 5.78 35 0 35 C0 23.45 0 11.9 0 0 Z M33 35 C33 57.77 33 80.54 33 104 C53.46 104 73.92 104 95 104 C95 81.23 95 58.46 95 35 C74.54 35 54.08 35 33 35 Z M-4 169 C-4 220.48 -4 271.96 -4 325 C0.95 325 5.9 325 11 325 C11 273.52 11 222.04 11 169 C6.05 169 1.1 169 -4 169 Z " fill="#FFFFFF" transform="translate(116,62)"/>
<path d="M0 0 C45.54 0 91.08 0 138 0 C138 58.74 138 117.48 138 178 C92.46 178 46.92 178 0 178 C0 119.26 0 60.52 0 0 Z M80.43075562 48.32873535 C79.8134256 48.95050659 79.19609558 49.57227783 78.56005859 50.21289062 C77.85948334 50.91361694 77.15890808 51.61434326 76.43710327 52.33630371 C75.68184357 53.10188599 74.92658386 53.86746826 74.1484375 54.65625 C73.37440582 55.43311157 72.60037415 56.20997314 71.80288696 57.01037598 C69.3222116 59.50228149 66.84856493 62.00103814 64.375 64.5 C62.69837373 66.18665239 61.02129624 67.87285637 59.34375 69.55859375 C55.22390912 73.7005326 51.10982408 77.84812314 47 82 C48.78372846 85.8431223 51.2262513 88.48441391 54.2265625 91.421875 C54.73424164 91.92672424 55.24192078 92.43157349 55.76498413 92.95172119 C57.38033842 94.55592096 59.00252209 96.15300856 60.625 97.75 C61.72441698 98.83938107 62.82338059 99.9292199 63.921875 101.01953125 C66.6093602 103.68501885 69.30299021 106.34415143 72 109 C76.98592875 104.82222235 81.66704284 100.46872723 86.24609375 95.8515625 C87.23005882 94.86547501 87.23005882 94.86547501 88.23390198 93.85946655 C90.30415268 91.78367138 92.37087651 89.70440573 94.4375 87.625 C95.85067862 86.2067992 97.26408794 84.78882824 98.67773438 83.37109375 C102.12116065 79.91671223 105.56143099 76.4592163 109 73 C104.00437329 67.07836472 98.72643537 61.54310313 93.25 56.0625 C91.95642578 54.75055664 91.95642578 54.75055664 90.63671875 53.41210938 C89.81300781 52.58646484 88.98929688 51.76082031 88.140625 50.91015625 C87.39329102 50.15871338 86.64595703 49.40727051 85.87597656 48.63305664 C83.55064078 46.60882824 82.81796284 46.3074016 80.43075562 48.32873535 Z " fill="#FFFFFF" transform="translate(247,251)"/>
<path d="M0 0 C1.14900032 0.00493217 1.14900032 0.00493217 2.32121277 0.00996399 C3.92899158 0.02033437 5.5367345 0.04019814 7.14428711 0.0690918 C9.61527891 0.11345739 12.08529846 0.13057537 14.55664062 0.14257812 C16.12110791 0.15599119 17.68556317 0.17091111 19.25 0.1875 C20.36239799 0.1985804 20.36239799 0.1985804 21.49726868 0.20988464 C26.67461202 0.30742452 26.67461202 0.30742452 27.79296875 1.42578125 C27.89224439 3.6890558 27.91929317 5.95549656 27.91995239 8.22094727 C27.92151238 8.93980134 27.92307237 9.65865541 27.92467964 10.39929295 C27.92869213 12.82611153 27.92549904 15.25286837 27.92236328 17.6796875 C27.92371721 19.41218096 27.9254971 21.14467413 27.92767334 22.87716675 C27.93224865 27.59603958 27.93045771 32.31489065 27.92729425 37.03376389 C27.92477116 41.9607423 27.92710805 46.88771878 27.92868042 51.81469727 C27.93050226 60.09033545 27.92809542 68.36596473 27.92333984 76.64160156 C27.9178972 86.22382986 27.91965984 95.80603688 27.92516625 105.38826466 C27.92969696 113.59969929 27.93034813 121.8111275 27.92772758 130.02256298 C27.92616457 134.93375688 27.92597168 139.84494077 27.92926407 144.75613403 C27.93214218 149.37220384 27.93016821 153.98824608 27.92436981 158.6043129 C27.92304189 160.30352864 27.92343687 162.00274668 27.92563248 163.70196152 C27.92834273 166.01154461 27.92496442 168.32103795 27.91995239 170.63061523 C27.91957537 171.92627914 27.91919834 173.22194305 27.91880989 174.55686951 C27.79296875 177.42578125 27.79296875 177.42578125 26.79296875 178.42578125 C24.35383693 178.56399999 21.9450567 178.63889795 19.50390625 178.6640625 C18.76725739 178.67213425 18.03060852 178.68020599 17.27163696 178.68852234 C15.70634323 178.70238355 14.14101901 178.71309656 12.57568359 178.72094727 C10.19829345 178.73806293 7.82232962 178.78191495 5.4453125 178.82617188 C3.9231873 178.83630735 2.40105027 178.84482077 0.87890625 178.8515625 C0.17446381 178.86907059 -0.52997864 178.88657867 -1.25576782 178.90461731 C-6.51477953 178.88188947 -10.27984066 177.86284141 -14.20703125 174.42578125 C-18.05044487 167.04594241 -17.63200944 159.55251061 -17.59521484 151.40014648 C-17.59928507 149.88324609 -17.60462947 148.36634865 -17.61114502 146.84945679 C-17.62476976 142.74827706 -17.61954042 138.64732486 -17.61000776 134.54614139 C-17.60238737 130.24527822 -17.60946324 125.94443392 -17.61416626 121.64356995 C-17.61961631 114.42355875 -17.61245133 107.20363976 -17.59814453 99.98364258 C-17.58181326 91.64588932 -17.58711298 83.30835612 -17.60362375 74.97060817 C-17.61725266 67.8001017 -17.6191516 60.62966133 -17.61130774 53.45914608 C-17.60663974 49.18163991 -17.60598243 44.90423706 -17.61591721 40.62673759 C-17.62460531 36.60552453 -17.61853151 32.58459433 -17.60123444 28.56341171 C-17.59727968 27.09086005 -17.59838629 25.61828444 -17.60502243 24.14574242 C-17.66228189 10.14562682 -17.66228189 10.14562682 -14.20703125 4.42578125 C-9.73206245 0.39197779 -5.81840053 -0.13926479 0 0 Z " fill="#FFFFFF" transform="translate(204.20703125,250.57421875)"/>
<path d="M0 0 C0.76121658 -0.00807175 1.52243317 -0.01614349 2.30671692 -0.02445984 C3.92328604 -0.0383196 5.53988467 -0.04903326 7.15649414 -0.05688477 C9.61727486 -0.07402886 12.07668787 -0.11788652 14.53710938 -0.16210938 C16.10806304 -0.17224223 17.67902813 -0.18075648 19.25 -0.1875 C20.34721626 -0.21376213 20.34721626 -0.21376213 21.46659851 -0.24055481 C26.61586936 -0.21894282 29.50914866 0.9723023 33.45703125 4.23828125 C35.86095327 7.84416428 35.7103458 9.46450111 35.71772766 13.75350952 C35.72346598 14.75049124 35.72346598 14.75049124 35.72932023 15.76761401 C35.73965573 17.9992901 35.73565711 20.23070917 35.73168945 22.46240234 C35.73603567 24.0606256 35.74121852 25.65884676 35.74717712 27.25706482 C35.76058917 31.60214904 35.76114327 35.9471464 35.75861382 40.2922473 C35.75754545 43.9180276 35.76242415 47.54379023 35.76721925 51.16956675 C35.7783224 59.72340946 35.77874752 68.27720826 35.77270508 76.83105469 C35.76666572 85.65781055 35.77897346 94.48440699 35.80027515 103.31113565 C35.81788546 110.88659348 35.82389334 118.46200054 35.8206374 126.03747809 C35.81882324 130.5631599 35.82147383 135.08872803 35.83535194 139.61439133 C35.84791616 143.87107426 35.84599959 148.12750863 35.83294106 152.3841877 C35.83057252 153.94627147 35.8333199 155.50837266 35.84156418 157.07043648 C35.85201049 159.20360869 35.84394891 161.33594363 35.83125305 163.46908569 C35.83142079 164.66259832 35.83158854 165.85611095 35.83176136 167.08579063 C35.41594456 170.58393111 34.56054561 172.43859569 32.45703125 175.23828125 C27.89502245 178.27934424 23.81024273 178.65934594 18.46875 178.56640625 C17.72494583 178.56453308 16.98114166 178.56265991 16.21479797 178.56072998 C14.65413888 178.55404389 13.09349555 178.54019847 11.53295898 178.51953125 C9.13444598 178.4881493 6.73658937 178.47853361 4.33789062 178.47265625 C2.81900233 178.46349445 1.30012075 178.45312132 -0.21875 178.44140625 C-0.93847488 178.43715637 -1.65819977 178.43290649 -2.3997345 178.42852783 C-7.42574539 178.35550461 -7.42574539 178.35550461 -8.54296875 177.23828125 C-8.64224439 174.9750067 -8.66929317 172.70856594 -8.66995239 170.44311523 C-8.67151238 169.72426116 -8.67307237 169.00540709 -8.67467964 168.26476955 C-8.67869213 165.83795097 -8.67549904 163.41119413 -8.67236328 160.984375 C-8.67371721 159.25188154 -8.6754971 157.51938837 -8.67767334 155.78689575 C-8.68224865 151.06802292 -8.68045771 146.34917185 -8.67729425 141.63029861 C-8.67477116 136.7033202 -8.67710805 131.77634372 -8.67868042 126.84936523 C-8.68050226 118.57372705 -8.67809542 110.29809777 -8.67333984 102.02246094 C-8.6678972 92.44023264 -8.66965984 82.85802562 -8.67516625 73.27579784 C-8.67969696 65.06436321 -8.68034813 56.852935 -8.67772758 48.64149952 C-8.67616457 43.73030562 -8.67597168 38.81912173 -8.67926407 33.90792847 C-8.68214218 29.29185866 -8.68016821 24.67581642 -8.67436981 20.0597496 C-8.67304189 18.36053386 -8.67343687 16.66131582 -8.67563248 14.96210098 C-8.67834273 12.65251789 -8.67496442 10.34302455 -8.66995239 8.03344727 C-8.66957537 6.73778336 -8.66919834 5.44211945 -8.66880989 4.10719299 C-8.42643417 -1.41846065 -4.52615998 0.04508427 0 0 Z " fill="#FFFFFF" transform="translate(408.54296875,250.76171875)"/>
<path d="M0 0 C1.39456867 0.00574201 2.78910972 0.01875397 4.18359375 0.03515625 C6.63796875 0.05578125 9.09234375 0.07640625 11.62109375 0.09765625 C11.62109375 6.69765625 11.62109375 13.29765625 11.62109375 20.09765625 C9.16671875 20.11828125 6.71234375 20.13890625 4.18359375 20.16015625 C3.40959229 20.16926025 2.63559082 20.17836426 1.83813477 20.18774414 C0.09887658 20.19490538 -1.64035929 20.14790327 -3.37890625 20.09765625 C-4.90100215 18.57556035 -4.50850146 17.21555543 -4.51171875 15.09765625 C-4.51300781 14.29328125 -4.51429688 13.48890625 -4.515625 12.66015625 C-4.51175781 11.81453125 -4.50789063 10.96890625 -4.50390625 10.09765625 C-4.50777344 9.25203125 -4.51164062 8.40640625 -4.515625 7.53515625 C-4.51433594 6.73078125 -4.51304687 5.92640625 -4.51171875 5.09765625 C-4.51059082 4.35515625 -4.50946289 3.61265625 -4.50830078 2.84765625 C-4.26744179 -0.40984797 -3.34355531 0.09663455 0 0 Z " fill="#FFFFFF" transform="translate(366.37890625,443.90234375)"/>
</svg>
