<?xml version="1.0" encoding="UTF-8"?>
<svg version="1.1" xmlns="http://www.w3.org/2000/svg" width="512" height="512">
<path d="M0 0 C21.17594434 16.88776941 33.22503793 39.87947366 36.38744712 66.52611303 C37.29183262 76.41345293 37.06806023 86.39087103 37.03376496 96.30925512 C37.02479568 99.87287281 37.0334022 103.43645867 37.03962708 107.00007629 C37.04904124 113.95152978 37.04258232 120.90287834 37.03036413 127.85432394 C37.01664907 135.96314867 37.01839007 144.07194927 37.02049746 152.18078266 C37.02367603 166.64951452 37.01208107 181.11819688 36.99243164 195.58691406 C36.97339699 209.60678613 36.9663547 223.62660031 36.97192383 237.64648438 C36.97798589 252.95237466 36.97779942 268.25823961 36.966438 283.5641278 C36.9652308 285.19656936 36.96402482 286.82901092 36.96282005 288.46145248 C36.96221651 289.26446562 36.96161298 290.06747875 36.96099115 290.89482561 C36.95711972 296.54042261 36.95750247 302.18601014 36.9594059 307.83160782 C36.96153091 314.70837045 36.95627966 321.58508252 36.94179235 328.46183093 C36.93456651 331.96681158 36.93045598 335.47171872 36.93503571 338.97670555 C36.93826139 342.78021609 36.9291658 346.58350559 36.91694641 350.38699341 C36.92072573 351.48786541 36.92450506 352.58873741 36.92839891 353.72296917 C36.86139521 365.51988136 34.60864355 375.64391028 26.6484375 384.765625 C18.76955368 392.26327251 9.27879252 396.56941975 -1.62321472 396.60528564 C-2.6674057 396.61099579 -3.71159668 396.61670593 -4.78742981 396.62258911 C-5.9225853 396.62370697 -7.05774078 396.62482483 -8.22729492 396.62597656 C-10.03309021 396.63342392 -10.03309021 396.63342392 -11.87536621 396.64102173 C-15.17110722 396.65310705 -18.46678497 396.66058266 -21.76254058 396.66503239 C-23.82553041 396.66797062 -25.88851478 396.67207687 -27.95150185 396.67653656 C-34.41746976 396.69020182 -40.88342507 396.6998726 -47.34940642 396.70373845 C-54.79205301 396.70821367 -62.23451545 396.72574056 -69.67710608 396.75473905 C-75.44377359 396.77642092 -81.21038954 396.78644623 -86.97709733 396.78777957 C-90.4147322 396.78882317 -93.85219374 396.79463509 -97.28978539 396.81259918 C-101.13107495 396.82971609 -104.97191985 396.82776516 -108.81323242 396.82128906 C-109.93826675 396.83050385 -111.06330109 396.83971863 -112.22242737 396.84921265 C-124.10339836 396.78669015 -134.2827632 393.60542955 -143.3515625 385.71875 C-151.71486935 377.01149763 -154.45906886 365.85032504 -154.47746277 354.06065369 C-154.48172775 352.81755432 -154.48599274 351.57445496 -154.49038696 350.29368591 C-154.49003752 348.93399045 -154.48957602 347.574295 -154.48901367 346.21459961 C-154.49200922 344.76831984 -154.49541266 343.32204087 -154.49919128 341.87576294 C-154.50799842 337.96006876 -154.5103681 334.04439647 -154.51100707 330.12869334 C-154.51171981 327.67603439 -154.51385844 325.22338093 -154.51650429 322.77072334 C-154.52574914 314.19585952 -154.52984054 305.62101121 -154.52905273 297.04614258 C-154.52845323 289.0840688 -154.53898229 281.12206305 -154.5547964 273.16000646 C-154.56792833 266.30110132 -154.57323422 259.44221825 -154.57259732 252.58330065 C-154.57234385 248.49727615 -154.57511047 244.41131207 -154.58577538 240.32530022 C-154.59555118 236.47486687 -154.59547155 232.62455049 -154.58825874 228.7741127 C-154.58722434 227.37222304 -154.58950646 225.97032573 -154.5956192 224.56844902 C-154.67999501 203.8518584 -151.21542223 186.74110832 -136.71875 171.33984375 C-120.7297502 155.99421652 -102.61048483 154.89036306 -81.65625 154.90234375 C-60.42133766 154.87646645 -42.8931474 153.59840211 -26.75390625 138.109375 C-23.21046333 134.22135092 -20.67666581 130.16087492 -18.34375 125.46484375 C-17.76173828 124.35496094 -17.76173828 124.35496094 -17.16796875 123.22265625 C-12.00670912 112.67491839 -11.99616423 101.40517322 -12.02807617 89.91333008 C-12.03124001 87.53485375 -12.00768406 85.1576208 -11.98242188 82.77929688 C-11.91790102 67.51400046 -14.27382368 53.57234013 -25.21875 42.08984375 C-35.28236971 32.80326436 -46.94829376 28.84107415 -60.59594727 29.06054688 C-73.40505633 29.5948422 -84.52554882 35.23649368 -93.34375 44.46484375 C-101.10281278 53.7649675 -104.38631575 65.47913707 -104.51953125 77.45703125 C-104.54337891 78.57464844 -104.56722656 79.69226563 -104.59179688 80.84375 C-104.63461819 83.16648217 -104.66594864 85.48945581 -104.68554688 87.8125 C-104.89544869 96.29643862 -106.06855443 101.78024873 -111.84375 108.27734375 C-117.80999141 113.49780498 -122.90787869 115.97555572 -130.97265625 115.78515625 C-137.05929737 114.96290819 -143.08402742 111.84289196 -147.34375 107.46484375 C-156.30912903 93.9148959 -154.57226304 75.6077402 -152.0859375 60.09375 C-148.4613209 42.3712825 -141.76311156 25.91732034 -129.34375 12.46484375 C-128.46074219 11.4903125 -127.57773438 10.51578125 -126.66796875 9.51171875 C-93.64988634 -25.81707263 -38.00486858 -29.2641897 0 0 Z M-110.62109375 239.30859375 C-116.98424209 247.27335086 -119.27191454 254.68668956 -118.78515625 264.8671875 C-116.42219361 284.12637854 -99.87135569 300.75982211 -85.19921875 312.27734375 C-84.25691406 312.99921875 -83.31460938 313.72109375 -82.34375 314.46484375 C-81.25571456 315.31799642 -80.16850557 316.1722039 -79.08203125 317.02734375 C-75.8657697 319.54762892 -72.61365332 322.01448582 -69.34375 324.46484375 C-68.46976563 325.12484375 -67.59578125 325.78484375 -66.6953125 326.46484375 C-65.91929687 327.02171875 -65.14328125 327.57859375 -64.34375 328.15234375 C-63.68375 328.63058594 -63.02375 329.10882813 -62.34375 329.6015625 C-59.5726884 330.79766526 -58.19185871 330.39985069 -55.34375 329.46484375 C-33.0858248 317.33035467 -6.85087248 295.05599946 1.06640625 270.24609375 C3.20937933 260.14147896 1.96258508 251.15340675 -3.62890625 242.46875 C-8.41368293 236.27119804 -15.53607167 232.26713169 -23.1796875 230.68359375 C-32.86440269 229.70463337 -40.38099654 232.24164076 -47.96875 238.08984375 C-52.1123092 241.80475889 -54.90535378 246.49873277 -57.34375 251.46484375 C-57.34375 252.12484375 -57.34375 252.78484375 -57.34375 253.46484375 C-58.00375 253.46484375 -58.66375 253.46484375 -59.34375 253.46484375 C-59.55 252.63984375 -59.75625 251.81484375 -59.96875 250.96484375 C-62.92983894 243.42752645 -68.22821847 237.37594927 -75.34375 233.46484375 C-87.48951917 228.94429764 -100.97340645 229.64042304 -110.62109375 239.30859375 Z " fill="#FFFFFF" transform="translate(319.34375,70.53515625)"/>
</svg>
