<?xml version="1.0" encoding="UTF-8"?>
<svg version="1.1" xmlns="http://www.w3.org/2000/svg" width="512" height="512">
<path d="M0 0 C2.73362753 1.26936947 4.92280422 2.62408666 7.1796875 4.6171875 C7.77144775 5.13547119 8.36320801 5.65375488 8.97290039 6.18774414 C9.60059326 6.74453857 10.22828613 7.30133301 10.875 7.875 C12.22493171 9.05896864 13.57519967 10.24255399 14.92578125 11.42578125 C15.60721191 12.02471191 16.28864258 12.62364258 16.99072266 13.24072266 C19.99491798 15.87112745 23.02712992 18.46819973 26.0625 21.0625 C27.22136573 22.05467399 28.3802199 23.0468615 29.5390625 24.0390625 C30.6926619 25.02609594 31.84630768 26.01307517 33 27 C43.33452676 35.84065954 53.62549327 44.73001347 63.89550781 53.64550781 C71.73976184 60.45410994 79.59841804 67.24493225 87.4921875 73.99609375 C89.9606452 76.10762393 92.42327728 78.22574034 94.8828125 80.34765625 C95.83788696 81.17027954 95.83788696 81.17027954 96.81225586 82.00952148 C98.03294372 83.06111523 99.25256464 84.11394916 100.47094727 85.16821289 C102.91433993 87.2706837 105.31386872 89.20924582 108 91 C108.40113831 93.68556213 108.40113831 93.68556213 108.43579102 97.14282227 C108.45493057 98.43499161 108.47407013 99.72716095 108.49378967 101.05848694 C108.49837837 102.47778996 108.50171882 103.89709749 108.50390625 105.31640625 C108.51354829 106.77172644 108.52364084 108.22704371 108.53416443 109.68235779 C108.55215405 112.73988571 108.55768333 115.7971592 108.5559082 118.85473633 C108.55560483 122.75332316 108.59639012 126.65025208 108.64822483 130.54844761 C108.68177826 133.55902927 108.68765982 136.56922001 108.68607903 139.57996941 C108.68959698 141.01558024 108.70274162 142.45120361 108.72607613 143.8866291 C108.84216473 151.77252775 108.59475711 157.76846038 103.87413025 164.27427673 C99.3399649 168.44939457 95.01515204 169.37715062 88.98486328 169.43237305 C87.95786725 169.44778373 87.95786725 169.44778373 86.91012383 169.46350574 C84.71342801 169.49318309 82.51718033 169.50290204 80.3203125 169.51171875 C78.95628316 169.52719947 77.59226812 169.54399895 76.22827148 169.56213379 C71.19400537 169.61987721 66.15947331 169.65217157 61.125 169.6875 C44.233125 169.8421875 44.233125 169.8421875 27 170 C26.67 143.93 26.34 117.86 26 91 C9.5 91 -7 91 -24 91 C-24.33 117.07 -24.66 143.14 -25 170 C-36.26125 169.9175 -47.5225 169.835 -59.125 169.75 C-62.67266113 169.73420898 -66.22032227 169.71841797 -69.87548828 169.70214844 C-74.22827148 169.65673828 -74.22827148 169.65673828 -76.26998901 169.63043213 C-77.68716953 169.61587747 -79.10444287 169.60904889 -80.521698 169.60845947 C-82.67670198 169.60603056 -84.83013347 169.57861078 -86.98486328 169.54589844 C-88.1973172 169.53701599 -89.40977112 169.52813354 -90.65896606 169.51898193 C-96.19726647 168.65868602 -100.47810254 165.27658977 -104 161 C-105.66154513 156.80471487 -106.28182097 153.1751076 -106.40161133 148.6784668 C-106.45464165 146.83075935 -106.45464165 146.83075935 -106.50874329 144.94572449 C-106.61156027 139.33895568 -106.70191756 133.7327119 -106.75512695 128.12524414 C-106.78628053 125.17061566 -106.84894567 122.21925777 -106.93969727 119.26586914 C-107.04977889 115.67936179 -107.10478275 112.09584993 -107.12152672 108.50773048 C-107.14402191 106.49479567 -107.22018011 104.48268781 -107.29756165 102.47111511 C-107.25674634 93.46372143 -107.25674634 93.46372143 -103.64926147 89.26211548 C-100.86129896 86.97681062 -97.99856648 84.99627112 -95 83 C-93.30795352 81.52868886 -91.63715306 80.03215783 -90 78.5 C-86.62539052 75.42346328 -83.18184136 72.48881783 -79.625 69.625 C-75.07139288 65.94363311 -70.76417484 62.07225527 -66.48095703 58.08642578 C-62.39357285 54.30523247 -58.11965827 50.80317332 -53.78125 47.3125 C-50.75980812 44.8002899 -47.87558227 42.17599173 -45 39.5 C-40.41239887 35.23081848 -35.66557272 31.24241483 -30.78125 27.3125 C-27.23414773 24.36322396 -23.87055257 21.24212476 -20.49584961 18.09912109 C-16.30977626 14.22446489 -11.94189477 10.61604321 -7.47265625 7.0703125 C-4.82238559 4.85128651 -2.41056437 2.47524857 0 0 Z " fill="#FFFFFF" transform="translate(175,126)"/>
<path d="M0 0 C1.05058594 -0.00515625 2.10117187 -0.0103125 3.18359375 -0.015625 C4.24707031 -0.00015625 5.31054688 0.0153125 6.40625 0.03125 C7.46972656 0.01578125 8.53320312 0.0003125 9.62890625 -0.015625 C17.2862654 0.02195713 25.08710813 0.8890439 30.86132812 6.39575195 C35.62397365 11.982312 39.00146867 18.75166295 42.5 25.17578125 C42.88357666 25.84923584 43.26715332 26.52269043 43.66235352 27.21655273 C44.90625 29.53125 44.90625 29.53125 46.16381836 32.44165039 C51.0936088 42.7515992 58.37384204 45.40785671 68.46875 49.34375 C86.77517748 56.68088896 86.77517748 56.68088896 90.90625 63.53125 C91.82956455 68.35931102 91.42925787 71.48523426 89.21875 75.90625 C85.73978148 79.8553494 83.60925005 81.38726155 78.29394531 81.83666992 C73.27613458 81.75421797 69.40703341 79.93552478 64.953125 77.76953125 C63.71915985 77.18802559 63.71915985 77.18802559 62.46026611 76.59477234 C60.7323036 75.77584632 59.00794734 74.94927163 57.28710938 74.11547852 C54.65937171 72.845259 52.01867601 71.60578587 49.375 70.36914062 C47.69185234 69.56689763 46.00953048 68.76291926 44.328125 67.95703125 C43.54266296 67.58910965 42.75720093 67.22118805 41.94793701 66.84211731 C37.53380403 64.67913164 34.69593627 62.74027466 31.90625 58.53125 C31.60536213 64.07684485 31.38998905 69.61751708 31.24707031 75.16943359 C31.18740576 77.04950841 31.10603042 78.92904348 31.00097656 80.80712891 C30.27680908 94.10483177 31.93830635 102.0708995 40.84179688 112.18066406 C41.63807495 113.04721619 41.63807495 113.04721619 42.45043945 113.93127441 C44.3168126 115.98246951 45.97768665 118.15928933 47.6328125 120.3828125 C49.09901607 122.29308817 50.56654454 124.20134354 52.05078125 126.09765625 C52.53160156 126.72800781 53.01242187 127.35835938 53.5078125 128.0078125 C54.13163818 128.813396 54.13163818 128.813396 54.76806641 129.63525391 C57.33704139 133.91467469 58.19639016 138.60666855 58.79174805 143.50146484 C58.93496994 144.65641449 59.07819183 145.81136414 59.22575378 147.00131226 C59.37168472 148.23580109 59.51761566 149.47028992 59.66796875 150.7421875 C59.82288284 152.02429108 59.97779694 153.30639465 60.1374054 154.62734985 C60.46352515 157.33505473 60.78474836 160.04328723 61.1027832 162.75195312 C61.50884137 166.20507255 61.92937988 169.65625138 62.35394573 173.10713768 C62.75921405 176.42193715 63.15027524 179.73837489 63.54296875 183.0546875 C63.69497238 184.28512787 63.84697601 185.51556824 64.00358582 186.78329468 C65.64695592 201.04983815 65.64695592 201.04983815 62.28125 207.78125 C59.02374338 211.55309977 55.88491503 213.95662564 50.921875 214.9140625 C46.52595843 215.16963904 43.34234752 214.14786849 39.546875 211.9921875 C34.64290041 207.62531489 33.18205336 202.70375235 32.40625 196.40625 C32.29224854 195.58310303 32.17824707 194.75995605 32.06079102 193.91186523 C31.23813894 187.74877117 30.57338677 181.56774373 29.90234375 175.38671875 C29.8148587 174.58437805 29.72737366 173.78203735 29.63723755 172.9553833 C29.19557584 168.89124478 28.76438298 164.8264502 28.3515625 160.75927734 C28.19151659 159.23664204 28.03136483 157.71401786 27.87109375 156.19140625 C27.80345322 155.49315231 27.73581268 154.79489838 27.66612244 154.07548523 C27.0521656 148.34795984 25.73031815 144.22026955 22.0859375 139.76171875 C21.55097656 139.10107422 21.01601563 138.44042969 20.46484375 137.75976562 C19.90925781 137.08623047 19.35367188 136.41269531 18.78125 135.71875 C17.93626953 134.67944336 17.93626953 134.67944336 17.07421875 133.61914062 C15.690336 131.91860674 14.30095449 130.22291006 12.90625 128.53125 C12.89392334 129.10528564 12.88159668 129.67932129 12.86889648 130.27075195 C12.15642132 149.7165742 5.69792072 165.15684087 -2.35444641 182.53482056 C-4.22404251 186.57553101 -5.98606442 190.63087743 -7.61328125 194.77734375 C-8.13208862 196.09532959 -8.13208862 196.09532959 -8.66137695 197.43994141 C-9.25269348 198.9644511 -9.83214677 200.49365896 -10.39526367 202.02880859 C-12.46878567 207.23913167 -15.50538975 210.4567589 -20.09375 213.53125 C-24.44625507 214.98208502 -28.67488755 215.38467929 -33.03125 213.84765625 C-37.36516192 211.59663735 -39.84514649 208.94197226 -42.09375 204.53125 C-43.28019779 199.21747851 -42.97279959 196.0017774 -40.96875 190.96875 C-40.71375732 190.31890137 -40.45876465 189.66905273 -40.19604492 188.99951172 C-38.20084696 184.01234745 -36.04556202 179.09284587 -33.90234375 174.16796875 C-33.6176825 173.51346237 -33.33302124 172.85895599 -33.03973389 172.18461609 C-31.59741735 168.87347288 -30.14582762 165.56691566 -28.67724609 162.26733398 C-23.00947755 149.47633479 -20.27853221 137.82883368 -18.90625 123.96875 C-18.81903687 123.11483673 -18.73182373 122.26092346 -18.64196777 121.38113403 C-16.08076308 95.5201304 -16.72377368 69.48307551 -17.09375 43.53125 C-17.64804687 44.10875 -18.20234375 44.68625 -18.7734375 45.28125 C-19.49789062 46.02375 -20.22234375 46.76625 -20.96875 47.53125 C-21.68804687 48.27375 -22.40734375 49.01625 -23.1484375 49.78125 C-25.09375 51.53125 -25.09375 51.53125 -27.09375 51.53125 C-27.14273437 52.80097656 -27.19171875 54.07070313 -27.2421875 55.37890625 C-28.4909019 85.36267382 -28.4909019 85.36267382 -33.09375 90.90625 C-37.23442424 94.52933996 -39.43335504 94.88586182 -44.7734375 94.80859375 C-48.41529351 94.37328773 -50.40634534 92.96271136 -53.09375 90.53125 C-56.46914412 85.33833597 -56.37512958 81.33497183 -55.90625 75.40625 C-55.81996338 74.10856689 -55.81996338 74.10856689 -55.73193359 72.78466797 C-55.53971845 70.0315709 -55.31878975 67.28184289 -55.09375 64.53125 C-55.02494629 63.61150391 -54.95614258 62.69175781 -54.88525391 61.74414062 C-54.68048899 59.0463986 -54.45443594 56.35145298 -54.21875 53.65625 C-54.15276611 52.83108887 -54.08678223 52.00592773 -54.01879883 51.15576172 C-53.94298584 50.37475098 -53.86717285 49.59374023 -53.7890625 48.7890625 C-53.6964917 47.77030029 -53.6964917 47.77030029 -53.60205078 46.73095703 C-52.00458758 39.81782378 -47.54987417 35.50663146 -42.71484375 30.6484375 C-41.9881398 29.91174835 -41.26143585 29.1750592 -40.51271057 28.41604614 C-38.97589833 26.86408596 -37.43502715 25.3161359 -35.89038086 23.77197266 C-33.54749221 21.4225376 -31.22964091 19.05019832 -28.91210938 16.67578125 C-27.41033112 15.16519688 -25.90712058 13.65603484 -24.40234375 12.1484375 C-23.71965927 11.44419647 -23.03697479 10.73995544 -22.33360291 10.01437378 C-16.0642008 3.83130424 -8.98106204 0.04350687 0 0 Z " fill="#FFFFFF" transform="translate(378.09375,240.46875)"/>
<path d="M0 0 C4.85047367 0.07445666 7.5223077 2.31512454 10.91015625 5.57421875 C12.12991815 6.68261109 13.34998053 7.79067284 14.5703125 8.8984375 C15.50254639 9.763479 15.50254639 9.763479 16.45361328 10.64599609 C19.52187846 13.4658892 22.6882466 16.16996348 25.84765625 18.88671875 C27.09546568 19.96827301 28.34286132 21.05030485 29.58984375 22.1328125 C33.37629271 25.41407206 37.17135019 28.68518549 40.97265625 31.94921875 C41.54048828 32.43777344 42.10832031 32.92632812 42.69335938 33.4296875 C45.86225468 36.14696778 49.07204327 38.79910627 52.34765625 41.38671875 C52.35176514 40.71616455 52.35587402 40.04561035 52.36010742 39.35473633 C52.39310268 36.30201484 52.46375245 33.25127345 52.53515625 30.19921875 C52.54385742 28.61657227 52.54385742 28.61657227 52.55273438 27.00195312 C52.6863409 22.29603424 52.82000715 19.2384358 55.33203125 15.18359375 C59.4616279 12.72295326 62.68817091 12.68320708 67.41015625 12.82421875 C68.21259766 12.81326172 69.01503906 12.80230469 69.84179688 12.79101562 C75.70932619 12.86405541 75.70932619 12.86405541 78.44596863 15.10481262 C80.70860009 17.81982876 80.83692115 18.94949386 80.80175781 22.43066406 C80.80145569 23.43139954 80.80115356 24.43213501 80.80084229 25.4631958 C80.78019714 26.53623962 80.759552 27.60928345 80.73828125 28.71484375 C80.73262146 29.81898621 80.72696167 30.92312866 80.72113037 32.06072998 C80.69874393 35.58650101 80.64854121 39.11125499 80.59765625 42.63671875 C80.57759428 45.02732907 80.55934299 47.41795533 80.54296875 49.80859375 C80.49887168 55.66831562 80.43193623 61.52744453 80.34765625 67.38671875 C80.95794678 67.67409912 81.5682373 67.96147949 82.19702148 68.25756836 C85.04472038 69.75269918 87.06929685 71.74625976 89.41015625 73.94921875 C93.12244216 77.40134446 96.89581763 80.70597059 100.84765625 83.88671875 C105.59793065 87.71932651 110.09358172 91.76815213 114.578125 95.90625 C117.3647393 98.4020188 120.23518587 100.74295007 123.16015625 103.07421875 C134.09773587 111.98748306 134.09773587 111.98748306 134.66015625 117.38671875 C133.07461055 121.01082321 131.00766154 123.05044849 128.12890625 125.7109375 C125.95676857 127.75446177 124.19933439 130.05497591 122.34765625 132.38671875 C119.19933588 133.96087893 116.70069097 134.33674525 113.34765625 133.38671875 C110.6850084 131.42595936 108.38705576 129.24529894 106.01171875 126.9453125 C103.43271817 124.46841312 100.76797569 122.23911306 97.97265625 120.01171875 C93.41985118 116.33100028 89.11348214 112.46023227 84.83081055 108.4753418 C80.72004668 104.67286861 76.42499102 101.14408576 72.0625 97.6328125 C69.2409213 95.29841285 66.54174913 92.86681277 63.84765625 90.38671875 C60.26973162 87.09340176 56.63225959 83.94020554 52.84765625 80.88671875 C48.09025957 77.04836461 43.58981707 72.99049516 39.09375 68.8515625 C36.42890459 66.45964578 33.699338 64.19416991 30.91015625 61.94921875 C26.91529249 58.72718781 23.10322008 55.37908454 19.34765625 51.88671875 C15.41190231 48.24465869 11.43982742 44.66559246 7.34765625 41.19921875 C6.48140625 40.46316406 5.61515625 39.72710937 4.72265625 38.96875 C2.26842782 37.01712924 2.26842782 37.01712924 -1.65234375 37.38671875 C-4.05496829 39.11811144 -4.05496829 39.11811144 -6.40234375 41.44921875 C-7.73265625 42.69445312 -7.73265625 42.69445312 -9.08984375 43.96484375 C-9.93546875 44.7640625 -10.78109375 45.56328125 -11.65234375 46.38671875 C-12.89502349 47.49911755 -14.14448449 48.6040137 -15.40234375 49.69921875 C-16.04558594 50.25996094 -16.68882812 50.82070312 -17.3515625 51.3984375 C-20.89972561 54.46467693 -24.46323999 57.51294081 -28.02636719 60.56176758 C-33.04725787 64.86055711 -38.04367358 69.18699922 -43.03417969 73.52099609 C-47.32727956 77.24651471 -51.64164083 80.94620846 -55.96484375 84.63671875 C-59.97581876 88.06112824 -63.9388948 91.52398603 -67.83984375 95.07421875 C-71.15317455 98.08486354 -74.54176304 100.95237053 -78.02734375 103.76171875 C-82.04059551 107.00623496 -85.87661295 110.37407113 -89.65234375 113.88671875 C-94.36663524 118.2708264 -99.21925995 122.4198811 -104.25390625 126.4375 C-106.22746056 128.04141466 -108.0561735 129.70561351 -109.90234375 131.44921875 C-113.5232675 134.00032412 -115.28146954 133.95942239 -119.65234375 133.38671875 C-122.14182174 131.7520921 -124.03762677 129.71300058 -126.02734375 127.51171875 C-126.55972656 126.95613281 -127.09210938 126.40054688 -127.640625 125.828125 C-132.46928361 120.72915981 -132.46928361 120.72915981 -133.02734375 116.63671875 C-132.17393923 109.24054622 -125.05303399 105.15456242 -119.61328125 100.80859375 C-116.69738476 98.42355968 -113.92062241 95.94083259 -111.15234375 93.38671875 C-106.70507263 89.29320784 -102.10516912 85.46229376 -97.40234375 81.66796875 C-93.61328968 78.52477617 -90.01965023 75.1851328 -86.3984375 71.8515625 C-83.73359209 69.45964578 -81.0040255 67.19416991 -78.21484375 64.94921875 C-73.67917932 61.2910086 -69.39533205 57.4392891 -65.13305664 53.47290039 C-61.04573369 49.69181317 -56.77191131 46.18981909 -52.43359375 42.69921875 C-49.41215039 40.18700742 -46.52794297 37.56269418 -43.65234375 34.88671875 C-39.04232736 30.59714115 -34.27451139 26.58260978 -29.3671875 22.6328125 C-25.60156468 19.51736916 -22.035954 16.20030225 -18.44140625 12.890625 C-14.65562505 9.49190546 -10.73098653 6.29429345 -6.76953125 3.1015625 C-3.38243593 0.35814027 -3.38243593 0.35814027 0 0 Z " fill="#FFFFFF" transform="translate(175.65234375,68.61328125)"/>
<path d="M0 0 C8.6689853 4.54535986 12.85440644 10.01419136 16.125 19.3125 C17.61409579 27.68734368 15.8737027 34.34048612 11.125 41.3125 C6.03836911 48.19596674 -0.65251359 51.32587152 -9.04296875 52.65625 C-16.72877049 53.02443212 -22.92041319 50.44088818 -28.6875 45.5625 C-34.88292743 39.68062824 -37.92515702 33.75835716 -38.25 25.1875 C-38.17984157 17.69057074 -35.25496479 12.20705177 -30.5625 6.5 C-21.48786691 -0.88632926 -11.50636158 -4.85302325 0 0 Z " fill="#FFFFFF" transform="translate(399.875,176.6875)"/>
<path d="M0 0 C3.90105219 1.36817478 6.92750994 4.05428448 10.17578125 6.5546875 C14.20825717 9.52515542 18.47883196 11.95549009 22.8359375 14.4140625 C25.171875 15.76171875 25.171875 15.76171875 26.171875 16.76171875 C26.6339906 21.82983899 25.3920229 25.33495965 23.359375 29.94921875 C22.83730469 31.15964844 22.31523437 32.37007813 21.77734375 33.6171875 C19.50561014 38.06669007 19.50561014 38.06669007 17.171875 39.76171875 C6.9442014 39.97932883 -2.55386974 32.53558402 -10.515625 26.82421875 C-11.57704712 26.08981567 -11.57704712 26.08981567 -12.65991211 25.34057617 C-16.040168 22.82764731 -17.61273599 21.32440662 -19.1484375 17.3125 C-18.69874102 12.32745003 -16.50221485 10.28290097 -13.015625 6.88671875 C-12.45552734 6.30664062 -11.89542969 5.7265625 -11.31835938 5.12890625 C-5.4547556 -0.86780203 -5.4547556 -0.86780203 0 0 Z " fill="#FFFFFF" transform="translate(225.828125,402.23828125)"/>
<path d="M0 0 C3.96878542 2.81564456 5.33271987 6.69560688 6.9375 11.125 C9.00374533 16.61236199 11.28916132 21.75174909 14.21484375 26.8515625 C15.25680504 29.70270035 15.03362567 31.15752941 14 34 C12.14453125 35.87890625 12.14453125 35.87890625 9.8125 37.5625 C8.99652344 38.15160156 8.18054688 38.74070312 7.33984375 39.34765625 C6.56769531 39.89292969 5.79554688 40.43820312 5 41 C4.44441406 41.45246094 3.88882813 41.90492188 3.31640625 42.37109375 C0.57569205 44.51761517 -0.91316991 45.00059405 -4.42578125 44.9765625 C-8 44 -8 44 -10.22265625 41.3671875 C-10.82980469 40.21476562 -11.43695313 39.06234375 -12.0625 37.875 C-12.39193604 37.2555249 -12.72137207 36.6360498 -13.06079102 35.99780273 C-22.55387639 17.68888958 -22.55387639 17.68888958 -23 8 C-21.53446321 4.67283541 -20.23822406 4.09588148 -16.85546875 2.734375 C-15.64503906 2.40953125 -14.43460938 2.0846875 -13.1875 1.75 C-11.98480469 1.41484375 -10.78210938 1.0796875 -9.54296875 0.734375 C-6.13861086 0.02873081 -3.44834933 -0.44246602 0 0 Z " fill="#FFFFFF" transform="translate(195,354)"/>
<path d="M0 0 C1.31883179 0.14175659 1.31883179 0.14175659 2.66430664 0.28637695 C4.05057251 0.46172974 4.05057251 0.46172974 5.46484375 0.640625 C7.3605909 0.85882302 9.25642371 1.07627816 11.15234375 1.29296875 C12.51359375 1.45514893 12.51359375 1.45514893 13.90234375 1.62060547 C17.70579621 2.03140805 21.52027572 2.17228857 25.34375 2.25390625 C28.64303372 3.27436782 29.6643531 4.96042696 31.40234375 7.890625 C31.79718142 10.7241659 31.96467923 13.07513929 31.90234375 15.890625 C31.9178125 16.58929688 31.93328125 17.28796875 31.94921875 18.0078125 C31.92286835 21.49924107 31.45752859 23.79004832 29.7734375 26.859375 C25.41995214 30.5888847 20.24913896 29.47994207 14.78710938 29.09570312 C10.24954278 28.7054947 5.73237571 28.21824464 1.21484375 27.640625 C-0.14821899 27.47723633 -0.14821899 27.47723633 -1.53881836 27.31054688 C-5.43210567 26.75232758 -7.98582873 26.33168872 -11.21484375 24.00390625 C-12.99623951 21.2814907 -12.73340893 19.38282926 -12.14453125 16.25 C-11.9640625 15.47140625 -11.78359375 14.6928125 -11.59765625 13.890625 C-11.3965625 12.94703125 -11.19546875 12.0034375 -10.98828125 11.03125 C-9.17933623 3.43368092 -9.17933623 3.43368092 -6.82177734 1.23266602 C-4.17699271 -0.36320458 -3.03058324 -0.35781373 0 0 Z " fill="#FFFFFF" transform="translate(278.59765625,426.109375)"/>
<path d="M0 0 C1.28197266 -0.02900391 1.28197266 -0.02900391 2.58984375 -0.05859375 C6.59702219 -0.02733651 8.80244217 0.09622339 12.05078125 2.55859375 C14.07285038 6.83709581 14.13343513 10.63091513 14.1875 15.3125 C14.23750453 17.10813201 14.28956382 18.90370806 14.34375 20.69921875 C14.36566406 21.55306152 14.38757813 22.4069043 14.41015625 23.28662109 C14.54542764 26.80735303 14.98072185 30.26973114 15.51171875 33.75 C15.4959954 36.26573533 14.94631417 37.56811608 13.5 39.625 C8.30435891 42.16880159 0.30527677 44.38970251 -5.5 43.625 C-8.53635775 41.75103248 -10.178744 40.52536222 -11.390625 37.12890625 C-11.81814932 33.62971267 -12.20942127 30.1378612 -12.5 26.625 C-12.57766602 25.77405762 -12.65533203 24.92311523 -12.73535156 24.04638672 C-12.97975498 21.24069483 -13.18384765 18.43479406 -13.375 15.625 C-13.44879883 14.71693604 -13.52259766 13.80887207 -13.59863281 12.87329102 C-13.81861213 8.8534308 -13.7821602 6.24764401 -12.1015625 2.5390625 C-8.19311743 -0.33652021 -4.73345152 -0.10709166 0 0 Z " fill="#FFFFFF" transform="translate(175.5,294.375)"/>
</svg>
