<?xml version="1.0" encoding="UTF-8"?>
<svg version="1.1" xmlns="http://www.w3.org/2000/svg" width="512" height="512">
<path d="M0 0 C18.59514635 16.43834254 33.68280358 35.16388208 45.51708984 57.03759766 C46.46318641 58.77487161 47.44014705 60.49522628 48.41796875 62.21484375 C73.20037379 107.29527795 76.2664871 163.99437727 62.64013672 212.88525391 C53.57698841 243.59789345 38.16753816 271.14243023 16.4453125 294.6875 C14.86316142 296.42153758 13.38271869 298.17511882 11.9296875 300.015625 C9.35439833 302.9871125 6.61736366 305.46035556 3.625 308 C2.26114643 309.16901735 0.91967402 310.36500486 -0.390625 311.59375 C-34.19913522 343.14835954 -82.47720244 361.58259085 -128.5078125 362.828125 C-129.78914062 362.86808594 -131.07046875 362.90804688 -132.390625 362.94921875 C-189.20699977 364.13331371 -241.707662 341.76843958 -282.5078125 302.828125 C-283.30960938 302.06757813 -284.11140625 301.30703125 -284.9375 300.5234375 C-321.46251507 265.00949551 -342.92831099 212.79995274 -343.83309937 162.1438446 C-344.02288598 146.85555817 -343.61884371 131.84742428 -340.5078125 116.828125 C-340.34152344 115.98749512 -340.17523438 115.14686523 -340.00390625 114.28076172 C-335.99911838 94.4385211 -329.19723109 75.59365012 -319.5078125 57.828125 C-319.18844727 57.2309668 -318.86908203 56.63380859 -318.54003906 56.01855469 C-306.02748832 32.70837133 -288.49071286 10.98367098 -267.5078125 -5.171875 C-266.77046875 -5.79835937 -266.033125 -6.42484375 -265.2734375 -7.0703125 C-236.72155639 -31.1917293 -200.02907152 -44.60383828 -163.5078125 -50.171875 C-162.82485107 -50.27790039 -162.14188965 -50.38392578 -161.43823242 -50.49316406 C-102.96942889 -58.28807324 -44.08500723 -38.17953897 0 0 Z M-247.5078125 41.828125 C-248.69890625 42.92447266 -248.69890625 42.92447266 -249.9140625 44.04296875 C-278.84341685 71.55331996 -294.18545339 111.83516304 -295.6328125 151.23046875 C-296.3840404 195.22425276 -279.68405668 235.37016032 -249.86328125 267.41015625 C-246.57455154 270.7861491 -243.17628644 273.87154024 -239.5078125 276.828125 C-238.56421875 277.59769531 -237.620625 278.36726563 -236.6484375 279.16015625 C-202.64999132 306.39066272 -160.13424778 317.59082643 -116.93359375 313.3671875 C-99.29841813 311.20197507 -82.44332446 305.56305025 -66.5078125 297.828125 C-65.88600098 297.53212402 -65.26418945 297.23612305 -64.62353516 296.93115234 C-38.28368649 284.25103274 -17.21641918 263.16846708 -1.5078125 238.828125 C-0.85941406 237.84328125 -0.21101563 236.8584375 0.45703125 235.84375 C21.52983186 202.01258712 26.76049035 158.0432705 18.17675781 119.62744141 C11.85879426 93.79228801 -0.10109294 70.86678841 -17.5078125 50.828125 C-18.29929687 49.90257812 -19.09078125 48.97703125 -19.90625 48.0234375 C-25.59580544 41.54416458 -31.63944364 36.03143474 -38.5078125 30.828125 C-39.03358887 30.4273877 -39.55936523 30.02665039 -40.10107422 29.61376953 C-102.94883873 -17.93515954 -190.65680813 -12.58918911 -247.5078125 41.828125 Z " fill="#FFFFFF" transform="translate(391.5078125,103.171875)"/>
<path d="M0 0 C14.19 0 28.38 0 43 0 C43 9.9 43 19.8 43 30 C45.97 30.33 48.94 30.66 52 31 C65.89089205 34.12419096 78.45691644 40.45931488 89 50 C89.76957031 50.67675781 90.53914062 51.35351562 91.33203125 52.05078125 C103.64925721 63.52867325 110.25660383 78.41479695 112 95 C112 96.98 112 98.96 112 101 C97.15 101 82.3 101 67 101 C65.02 95.06 65.02 95.06 63 89 C57.74005928 80.68929367 52.23079798 77.07693266 43 74 C43 88.85 43 103.7 43 119 C47.95 119.66 52.9 120.32 58 121 C76.94476 124.91901539 96.6671498 132.66561524 107.8125 149.3125 C116.24978535 163.40726903 118.47992893 180.34366899 114.875 196.375 C111.87425945 206.51301598 106.76287221 214.96506373 100 223 C99.236875 224.010625 98.47375 225.02125 97.6875 226.0625 C85.38654489 239.50773001 66.16634919 249.85713839 48 252 C46.35 252 44.7 252 43 252 C43 261.9 43 271.8 43 282 C28.81 282 14.62 282 0 282 C0 271.77 0 261.54 0 251 C-2.97 250.67 -5.94 250.34 -9 250 C-11.82410924 249.11373923 -14.41932738 248.21076106 -17.125 247.0625 C-18.21905151 246.59952515 -18.21905151 246.59952515 -19.33520508 246.12719727 C-41.32322988 236.42960928 -58.1780482 219.49880258 -66.96875 197.046875 C-69.74918184 188.83196274 -71 181.71615998 -71 173 C-56.15 173 -41.3 173 -26 173 C-24.02 178.94 -22.04 184.88 -20 191 C-14.63602714 199.44329061 -9.17468056 203.33012778 0 207 C0 190.83 0 174.66 0 158 C-4.29 157.34 -8.58 156.68 -13 156 C-31.12364985 151.58080867 -49.88052761 143.50252421 -60 127 C-60.44988281 126.27554688 -60.89976562 125.55109375 -61.36328125 124.8046875 C-68.88630647 111.35644772 -69.62518412 95.48793335 -66.1640625 80.75390625 C-60.61851739 62.87045372 -49.64535316 49.84440409 -33.1640625 40.8671875 C-22.31180344 35.16734017 -12.29453441 31.36605938 0 30 C0 20.1 0 10.2 0 0 Z M-15.94921875 81.78515625 C-20.32298582 86.77315695 -21.4323925 90.81287455 -21.3359375 97.4296875 C-20.78892295 101.61498485 -19.0908948 104.18601345 -16 107 C-10.64822463 110.74281945 -6.7561991 111.15547511 0 112 C0 99.79 0 87.58 0 75 C-6.13204144 75 -11.4193704 77.6365777 -15.94921875 81.78515625 Z M44 165 C44 178.86 44 192.72 44 207 C54.48227173 205.68971603 61.82044415 202.95299747 69 195 C71.91673278 190.22716454 72.45214216 186.53585586 71.5546875 181.1328125 C70.13533934 175.67531889 67.10046291 172.80723151 62.5625 169.75 C56.05704443 166.18573552 56.05704443 166.18573552 44 165 Z " fill="#FFFFFF" transform="translate(230,117)"/>
</svg>
