<?xml version="1.0" encoding="UTF-8"?>
<svg version="1.1" xmlns="http://www.w3.org/2000/svg" width="512" height="512">
<path d="M0 0 C3.20837149 15.51725848 6.41618438 31.03463232 9.62334919 46.55214024 C11.1128153 53.75869101 12.60245779 60.96520523 14.0925293 68.17163086 C15.39268583 74.45957396 16.69249738 80.74758826 17.99191064 87.035685 C18.67866493 90.3589551 19.36558109 93.68219154 20.05291176 97.00534248 C25.55977955 123.63344237 25.55977955 123.63344237 28 136 C23.43814857 137.55831743 18.90544375 138.75570849 14.1875 139.7265625 C13.0895813 139.95537613 13.0895813 139.95537613 11.96948242 140.18881226 C10.43023841 140.50828457 8.89059766 140.82585073 7.35058594 141.14160156 C5.00564247 141.62383963 2.66299431 142.11628222 0.3203125 142.609375 C-1.18216294 142.91989433 -2.68476319 143.22981051 -4.1875 143.5390625 C-4.88141846 143.68590485 -5.57533691 143.83274719 -6.2902832 143.98403931 C-10.37998504 144.81134017 -13.74344771 145 -18 145 C-20.31 137.74 -22.62 130.48 -25 123 C-28.29097656 125.20429688 -28.29097656 125.20429688 -31.6484375 127.453125 C-33.80502398 128.88843572 -35.9636827 130.32057723 -38.12255859 131.75244141 C-39.6084725 132.74036639 -41.09225076 133.73151211 -42.57373047 134.72607422 C-58.52164231 145.42612296 -58.52164231 145.42612296 -67 148 C-68.02432129 148.31163086 -69.04864258 148.62326172 -70.10400391 148.94433594 C-73.43475769 149.91878707 -76.77543018 150.84250027 -80.125 151.75 C-81.84589844 152.22373047 -81.84589844 152.22373047 -83.6015625 152.70703125 C-86.39967331 153.47651172 -89.19910795 154.24071818 -92 155 C-91.57589844 155.71655762 -91.15179688 156.43311523 -90.71484375 157.17138672 C-88.80539326 160.40328904 -86.90262197 163.63907344 -85 166.875 C-84.33226562 168.00292969 -83.66453125 169.13085938 -82.9765625 170.29296875 C-82.34492188 171.36933594 -81.71328125 172.44570312 -81.0625 173.5546875 C-80.47597656 174.54968262 -79.88945312 175.54467773 -79.28515625 176.56982422 C-78 179 -78 179 -78 181 C-79.85400391 182.3059082 -79.85400391 182.3059082 -82.4765625 183.80078125 C-83.44553467 184.35870361 -84.41450684 184.91662598 -85.4128418 185.49145508 C-87.00286011 186.39287231 -87.00286011 186.39287231 -88.625 187.3125 C-90.85322418 188.59312452 -93.08108159 189.87438739 -95.30859375 191.15625 C-96.43765137 191.80335938 -97.56670898 192.45046875 -98.72998047 193.1171875 C-103.40603017 195.80956433 -108.04800886 198.55776137 -112.6875 201.3125 C-121.172448 206.33832495 -129.6768492 211.33039231 -138.1875 216.3125 C-148.75581044 222.49966189 -159.30053169 228.72496933 -169.83032227 234.97753906 C-177.46583505 239.50797671 -185.12031953 244.00467587 -192.7845459 248.48629761 C-202.63960291 254.24902536 -212.46684465 260.05306436 -222.25 265.9375 C-223.26989014 266.55061035 -224.28978027 267.1637207 -225.34057617 267.79541016 C-226.32775635 268.3888623 -227.31493652 268.98231445 -228.33203125 269.59375 C-233.52848453 272.71742609 -238.72536128 275.84004866 -243.9375 278.9375 C-244.63584961 279.35700928 -245.33419922 279.77651855 -246.05371094 280.20874023 C-250.76987356 283 -250.76987356 283 -253 283 C-253 283.66 -253 284.32 -253 285 C-252.06285156 285.10183594 -251.12570313 285.20367187 -250.16015625 285.30859375 C-244.16331858 286.16399173 -238.42754206 288.14683891 -232.65039062 289.91601562 C-224.84240007 292.55477312 -224.84240007 292.55477312 -217.07055664 291.04077148 C-214.76135523 289.66366207 -212.53879023 288.19488401 -210.3125 286.6875 C-208.6335224 285.58806713 -206.9524676 284.49180097 -205.26953125 283.3984375 C-204.40666504 282.83608398 -203.54379883 282.27373047 -202.65478516 281.69433594 C-198.34223659 278.94198289 -193.93098801 276.36839487 -189.5 273.8125 C-188.69344971 273.34352295 -187.88689941 272.8745459 -187.0559082 272.39135742 C-179.93746167 268.2938766 -174.29388731 267.07285828 -166 268 C-161.69030824 269.57142502 -157.8182057 271.76261001 -154.03125 274.33984375 C-151.90264185 275.28181093 -151.90264185 275.28181093 -149.5625 273.91796875 C-148.2940625 273.06138672 -148.2940625 273.06138672 -147 272.1875 C-140.21512561 267.66769801 -134.10920969 267.09344216 -126 268 C-121.51751007 269.58169604 -117.57217462 271.70060941 -113.90625 274.73046875 C-113.2771875 275.14941406 -112.648125 275.56835938 -112 276 C-111.01 275.67 -110.02 275.34 -109 275 C-100.91530621 274.05835513 -94.68669236 275.28400232 -88 280 C-82.65175959 284.81442357 -78.59031979 290.21840972 -77.6875 297.53125 C-77.37938202 304.38687508 -78.48212473 310.08053744 -82 316 C-87.66781208 322.01332847 -94.52608879 326.6381069 -101.375 331.1875 C-103.32960558 332.50233885 -105.28402957 333.81744769 -107.23828125 335.1328125 C-108.20846191 335.78282227 -109.17864258 336.43283203 -110.17822266 337.10253906 C-113.55264841 339.37161995 -116.90562405 341.67065205 -120.25561523 343.97558594 C-208.77459101 404.86809758 -208.77459101 404.86809758 -238.3631134 399.5630188 C-240.55636027 399.15510355 -242.74696175 398.73470586 -244.9375 398.3125 C-246.10014877 398.09382263 -246.10014877 398.09382263 -247.2862854 397.87072754 C-264.64170599 394.60630357 -281.91473081 390.92222813 -299.1875 387.25 C-299.86282146 387.10664341 -300.53814293 386.96328682 -301.23392868 386.81558609 C-305.79660565 385.84675539 -310.35766371 384.87057329 -314.91796875 383.890625 C-316.07500305 383.64392563 -317.23203735 383.39722626 -318.4241333 383.14305115 C-325.35000879 381.64537674 -332.18516389 379.94195181 -339 378 C-338.67 379.32 -338.34 380.64 -338 382 C-337.67 388.27 -337.34 394.54 -337 401 C-355.48 401 -373.96 401 -393 401 C-393 354.8 -393 308.6 -393 261 C-377.82 261 -362.64 261 -347 261 C-345.60302038 263.79395924 -345.6524045 266.32309038 -345.4375 269.4375 C-345.35371094 270.59121094 -345.26992188 271.74492187 -345.18359375 272.93359375 C-344.900509 277.95215145 -344.96389334 282.9754426 -345 288 C-343.44104004 287.59104492 -343.44104004 287.59104492 -341.85058594 287.17382812 C-337.99036694 286.16256808 -334.12850341 285.15771786 -330.26611328 284.15478516 C-328.59541074 283.72000695 -326.92515783 283.28349709 -325.25537109 282.84521484 C-322.85370435 282.21515236 -320.45048382 281.59135681 -318.046875 280.96875 C-316.9294693 280.67345398 -316.9294693 280.67345398 -315.78948975 280.37219238 C-312.37821644 279.49462945 -309.54979742 279 -306 279 C-314.41300363 264.54235131 -322.86783688 250.11068226 -331.39111328 235.71777344 C-333.01072753 232.98187878 -334.62873044 230.24503837 -336.24609375 227.5078125 C-336.78395508 226.59757324 -337.32181641 225.68733398 -337.87597656 224.74951172 C-338.95002962 222.93111341 -340.02360527 221.11243303 -341.09667969 219.29345703 C-343.95335628 214.45312232 -346.82208174 209.62042032 -349.70703125 204.796875 C-350.3103125 203.78496094 -350.91359375 202.77304687 -351.53515625 201.73046875 C-352.69957566 199.77782696 -353.86742144 197.82722341 -355.0390625 195.87890625 C-355.55855469 195.00621094 -356.07804687 194.13351563 -356.61328125 193.234375 C-357.07516846 192.46319336 -357.53705566 191.69201172 -358.01293945 190.89746094 C-359 189 -359 189 -359 187 C-356.73461914 185.45043945 -356.73461914 185.45043945 -353.53515625 183.61328125 C-352.67182175 183.11284302 -352.67182175 183.11284302 -351.79104614 182.60229492 C-350.54146689 181.87898034 -349.28993084 181.15903836 -348.03671265 180.44204712 C-345.37097865 178.91684558 -342.71445087 177.37594845 -340.05751038 175.835495 C-338.69414406 175.04508924 -337.33031838 174.25547537 -335.96604919 173.46662903 C-329.66361635 169.81877948 -323.42086315 166.07725385 -317.1875 162.3125 C-306.26134487 155.73055168 -295.25699909 149.29061288 -284.22949219 142.88037109 C-278.27114248 139.41112333 -272.32282777 135.92474781 -266.375 132.4375 C-265.76174866 132.07795227 -265.14849731 131.71840454 -264.5166626 131.34796143 C-258.27339529 127.68686379 -252.03264495 124.02151359 -245.796875 120.34765625 C-244.84200195 119.7861084 -243.88712891 119.22456055 -242.90332031 118.64599609 C-241.07342147 117.56188555 -239.24963379 116.46738237 -237.43261719 115.36181641 C-233.55768995 113.01361927 -229.78990413 110.83465811 -225.59375 109.11328125 C-220.26623681 106.79358524 -216.31497214 104.73927568 -213.71386719 99.32080078 C-211.26269496 92.70346178 -209.56882563 85.89918661 -207.84423828 79.06445312 C-206.07089005 72.62747598 -203.14373132 66.87116944 -200 61 C-199.15308594 59.35644531 -199.15308594 59.35644531 -198.2890625 57.6796875 C-194.38760281 50.49464635 -190.12282769 44.20984724 -182.41015625 40.8828125 C-177.78662896 39.68588562 -173.25615125 39.33261651 -168.5 39 C-167.39906006 38.91951416 -166.29812012 38.83902832 -165.16381836 38.75610352 C-126.57990979 36.1030264 -87.6755382 34.64226121 -49 35 C-49.18699463 34.38479492 -49.37398926 33.76958984 -49.56665039 33.13574219 C-50.40900652 30.343512 -51.23588481 27.54692855 -52.0625 24.75 C-52.50432617 23.29787109 -52.50432617 23.29787109 -52.95507812 21.81640625 C-53.22900391 20.88183594 -53.50292969 19.94726562 -53.78515625 18.984375 C-54.04176025 18.12553711 -54.29836426 17.26669922 -54.56274414 16.38183594 C-55.03004345 13.83634624 -54.69750677 12.4485295 -54 10 C-47.27570538 8.56736329 -40.54945635 7.14419687 -33.82177734 5.72753906 C-31.53420875 5.24468353 -29.24709314 4.75967664 -26.96044922 4.27246094 C-23.67011905 3.5717822 -20.37822758 2.87890319 -17.0859375 2.1875 C-15.55747696 1.85939331 -15.55747696 1.85939331 -13.99813843 1.5246582 C-12.55732407 1.22434692 -12.55732407 1.22434692 -11.08740234 0.91796875 C-10.24801117 0.74031982 -9.40862 0.5626709 -8.54379272 0.37963867 C-5.66690489 -0.04971151 -2.9045619 -0.0621332 0 0 Z M-72.23046875 49.3671875 C-73.57805134 49.40658818 -74.92563646 49.44590273 -76.27322388 49.48513794 C-80.57809335 49.61151655 -84.88280397 49.74286287 -89.1875 49.875 C-89.91929348 49.89733704 -90.65108696 49.91967407 -91.405056 49.94268799 C-110.37839513 50.5223947 -129.34957579 51.13698896 -148.3125 52 C-149.14574799 52.03575134 -149.97899597 52.07150269 -150.8374939 52.1083374 C-155.89938345 52.32875334 -160.94724453 52.62269405 -166 53 C-167.86277588 53.12955078 -167.86277588 53.12955078 -169.76318359 53.26171875 C-176.91758198 53.97752075 -176.91758198 53.97752075 -182.55078125 58.078125 C-185.28844147 62.03377301 -187.32120474 66.32838835 -189.1875 70.75 C-189.69893555 71.92828369 -189.69893555 71.92828369 -190.22070312 73.13037109 C-192.69970605 78.96705641 -194.61129825 84.8086732 -196 91 C-188.89531445 87.57259476 -182.07925077 83.7998206 -175.3125 79.75 C-174.36076904 79.18587402 -173.40903809 78.62174805 -172.4284668 78.04052734 C-168.04309825 75.43672632 -163.67462734 72.81073578 -159.34375 70.1171875 C-158.65498779 69.69211914 -157.96622559 69.26705078 -157.2565918 68.82910156 C-155.99198157 68.0458468 -154.73267145 67.2539468 -153.47973633 66.45214844 C-151.80078125 65.4140625 -151.80078125 65.4140625 -149 64 C-144.79369696 65.40210101 -143.89875971 68.34360153 -141.9375 72.0625 C-138.62124223 78.16681142 -135.14512733 84.12465232 -131.4375 90 C-130.99591553 90.7000415 -130.55433105 91.40008301 -130.09936523 92.12133789 C-129.06919074 93.74942721 -128.03506378 95.37501468 -127 97 C-126.27039063 96.85175781 -125.54078125 96.70351562 -124.7890625 96.55078125 C-116.4639205 94.9067406 -116.4639205 94.9067406 -113 95 C-110.875 96.5625 -110.875 96.5625 -110 99 C-110 102.0625 -110 102.0625 -111 105 C-115.17440554 107.99571421 -119.99303869 109.79861454 -124.7109375 111.765625 C-125.55612946 112.12211121 -126.40132141 112.47859741 -127.27212524 112.84588623 C-129.9715967 113.98416259 -132.67307621 115.1175583 -135.375 116.25 C-150.01865908 122.38120254 -150.01865908 122.38120254 -164.5390625 128.796875 C-165.69873535 129.32120117 -166.8584082 129.84552734 -168.05322266 130.38574219 C-171.78320847 132.42904511 -174.17342698 134.58301768 -176.3125 138.25 C-177.26358662 142.05434648 -177.05332008 145.22941943 -176 149 C-173.59820021 152.94581394 -171.49745133 154.90062301 -167 156 C-160.13625579 156.54094108 -153.90966422 155.33736756 -147.265625 153.7265625 C-146.2456694 153.48723495 -145.22571381 153.24790741 -144.17485046 153.00132751 C-140.86379818 152.22038896 -137.5567939 151.42376338 -134.25 150.625 C-131.96038227 150.07798322 -129.67074999 149.53102733 -127.38110352 148.98413086 C-113.52862931 145.65801994 -99.70670122 142.21840581 -85.9375 138.5625 C-85.18480835 138.36593811 -84.4321167 138.16937622 -83.65661621 137.96685791 C-68.37986068 133.9570368 -56.7863265 127.07330383 -43.875 118.1875 C-42.42747187 117.19799908 -40.97955799 116.20906222 -39.53125 115.22070312 C-36.01635399 112.82027945 -32.50676034 110.4122917 -29 108 C-29.63441484 101.19173236 -31.26001419 94.88448608 -33.125 88.31640625 C-33.43195801 87.22029526 -33.73891602 86.12418427 -34.05517578 84.99485779 C-34.70135688 82.69217032 -35.35033308 80.39026558 -36.00195312 78.08911133 C-37.00309295 74.55157104 -37.9943875 71.01137872 -38.984375 67.47070312 C-39.61400743 65.23160881 -40.24419596 62.99267078 -40.875 60.75390625 C-41.17293457 59.69047501 -41.47086914 58.62704376 -41.77783203 57.53138733 C-42.05481934 56.5562468 -42.33180664 55.58110626 -42.6171875 54.57641602 C-42.86065918 53.71452164 -43.10413086 52.85262726 -43.35498047 51.96461487 C-43.82983256 50.01975015 -43.82983256 50.01975015 -45 49 C-54.04794576 48.59019249 -63.18165288 49.09505974 -72.23046875 49.3671875 Z M-250.32421875 153.578125 C-258.70890349 164.42707014 -262.12627337 176.18794311 -260.5 189.8125 C-258.09784041 202.1275715 -251.77054323 212.34045435 -241.65625 219.70703125 C-230.97434074 226.65365262 -219.11646081 228.85472823 -206.6015625 226.30859375 C-193.82751589 222.75032203 -183.96287912 215.34337175 -177 204 C-172.13420382 193.02116242 -170.47623102 182.0201325 -173.04296875 170.18359375 C-174.51304014 166.82943087 -176.81966047 165.77065726 -179.97265625 164.1171875 C-185.41579162 161.11769479 -187.03942323 157.09564376 -188.6875 151.4375 C-190.19717208 146.92075752 -191.54773579 145.10209332 -195.8125 142.9375 C-198.28929507 141.85569336 -198.28929507 141.85569336 -201 141 C-202.093125 140.63777344 -203.18625 140.27554688 -204.3125 139.90234375 C-221.37981475 135.72591398 -238.4848027 140.44532736 -250.32421875 153.578125 Z M-182.875 286 C-183.89883789 286.61379517 -183.89883789 286.61379517 -184.94335938 287.23999023 C-186.9785356 288.46897869 -188.99072554 289.72920699 -191 291 C-192.15868549 291.72032349 -193.3175277 292.44039496 -194.4765625 293.16015625 C-197.00165029 294.74893887 -199.50890367 296.35862085 -202 298 C-200.47242978 301.05514045 -198.10870658 301.15773597 -194.9375 302.25 C-185.72385177 305.70763823 -179.04090445 310.38336748 -174 319 C-171.68431941 325.76459421 -171.98229188 334.60581443 -174.90234375 341.125 C-179.09084537 348.27973586 -184.0690848 352.58631095 -192 355 C-199.8471234 356.50833801 -207.34217038 355.65467486 -215.19921875 354.63671875 C-216.43364212 354.48467484 -217.66806549 354.33263092 -218.93989563 354.17597961 C-221.53488294 353.85406242 -224.12921692 353.52683879 -226.72290039 353.19458008 C-230.68430016 352.68790927 -234.64736995 352.19908969 -238.61132812 351.71289062 C-241.14075581 351.39687857 -243.67005746 351.07985582 -246.19921875 350.76171875 C-247.37852463 350.61578781 -248.55783051 350.46985687 -249.77287292 350.31950378 C-261.16924797 348.84689106 -261.16924797 348.84689106 -266 347 C-267.5625 344.125 -267.5625 344.125 -268 341 C-267.25 338.6875 -267.25 338.6875 -266 337 C-259.95947806 333.97973903 -250.51442907 336.43313364 -244.04296875 337.3125 C-241.93946304 337.58601376 -239.83594709 337.85944881 -237.73242188 338.1328125 C-234.46085934 338.56500274 -231.18964998 338.99971289 -227.91870117 339.43652344 C-224.73177221 339.86000688 -221.54371884 340.27409804 -218.35546875 340.6875 C-217.39569626 340.81874268 -216.43592377 340.94998535 -215.44706726 341.08520508 C-203.19499772 342.90298173 -203.19499772 342.90298173 -191.4375 340.375 C-188.1075685 337.13045136 -186.23390176 334.55457411 -185.80078125 329.82421875 C-185.9345228 325.63599666 -186.65602732 322.72775038 -189.6875 319.75 C-201.54386575 311.41693057 -218.88384073 308.6443635 -232.625 304.625 C-234.32011215 304.12793045 -234.32011215 304.12793045 -236.04946899 303.62081909 C-249.21667908 299.76558065 -262.38768497 295.93696942 -275.6875 292.5625 C-276.75758301 292.28680176 -277.82766602 292.01110352 -278.93017578 291.72705078 C-279.90583496 291.48841309 -280.88149414 291.24977539 -281.88671875 291.00390625 C-282.69326904 290.80611572 -283.49981934 290.6083252 -284.33081055 290.40454102 C-291.70966754 289.28620515 -297.8617361 290.44230172 -304.9765625 292.3359375 C-305.90544281 292.57535065 -306.83432312 292.81476379 -307.79135132 293.06143188 C-310.73832311 293.82362408 -313.68154774 294.599341 -316.625 295.375 C-318.60915803 295.88885935 -320.59353134 296.4018882 -322.578125 296.9140625 C-333.37566337 299.66203784 -333.37566337 299.66203784 -344 303 C-343.59392946 309.93783338 -343.18464329 316.87547187 -342.77319336 323.81298828 C-342.63379267 326.16971612 -342.49510959 328.52648652 -342.35717773 330.88330078 C-342.15800739 334.28429613 -341.95619816 337.68512656 -341.75390625 341.0859375 C-341.6934462 342.12801361 -341.63298615 343.17008972 -341.57069397 344.2437439 C-341.1946289 350.51465185 -340.67886297 356.75450375 -340 363 C-329.72293658 365.84338491 -319.42284468 368.30387059 -308.98828125 370.49609375 C-307.48491397 370.81448545 -305.98159377 371.13309956 -304.47831726 371.45191956 C-301.3434283 372.11581265 -298.20795326 372.77684195 -295.07202148 373.43579102 C-291.92146727 374.09802073 -288.77174242 374.76397314 -285.62280273 375.43383789 C-269.83799204 378.79168595 -254.04713831 382.08793332 -238.16796875 384.97265625 C-237.0310408 385.18208359 -235.89411285 385.39151093 -234.72273254 385.60728455 C-194.6804853 392.69566365 -139.95434625 340.53790569 -108.74633789 318.79345703 C-104.97434518 316.14584136 -101.22783209 313.46381723 -97.51171875 310.73828125 C-96.552052 310.03505737 -96.552052 310.03505737 -95.57299805 309.31762695 C-93.28786107 307.4034745 -92.50092067 305.93396391 -92 303 C-92.18901587 297.70755557 -93.24669832 294.75330168 -97 291 C-99.54802475 288.99798055 -100.99900983 289.00000945 -104.2734375 288.96875 C-111.18121249 289.92504315 -117.02736249 294.31076232 -122.875 297.875 C-124.17117357 298.64966743 -125.46813608 299.42301627 -126.76586914 300.19506836 C-132.45021933 303.58773169 -138.09360285 307.04031884 -143.69140625 310.57421875 C-144.50818848 311.08678223 -145.3249707 311.5993457 -146.16650391 312.12744141 C-147.63442577 313.05503168 -149.09442923 313.9953273 -150.54443359 314.95068359 C-154.51328396 317.47378812 -157.28380524 318.69894685 -162 318 C-165 316 -165 316 -165.8125 313.625 C-166.03552103 310.50270561 -165.73984364 309.58190858 -164 307 C-161.92823541 305.54844636 -159.9379044 304.29647808 -157.7421875 303.06640625 C-156.80936447 302.52668434 -156.80936447 302.52668434 -155.85769653 301.97605896 C-153.86905637 300.82813979 -151.87246035 299.69498868 -149.875 298.5625 C-148.55410896 297.80504446 -147.23378988 297.04659056 -145.9140625 296.28710938 C-145.27204895 295.91774261 -144.6300354 295.54837585 -143.96856689 295.16781616 C-143.02119659 294.62261826 -143.02119659 294.62261826 -142.0546875 294.06640625 C-141.12109406 293.52978867 -141.12109406 293.52978867 -140.16864014 292.98233032 C-133.48165077 289.15619905 -133.48165077 289.15619905 -127 285 C-127 284.34 -127 283.68 -127 283 C-138.6495501 280.19547868 -148.39943391 288.90862391 -158 294.75 C-160.22840436 296.10022169 -162.45798548 297.44848598 -164.6875 298.796875 C-166.14736328 299.68391113 -166.14736328 299.68391113 -167.63671875 300.58886719 C-171.38467827 302.82680169 -173.57172471 303.45186483 -178 303 C-179.9375 301.375 -179.9375 301.375 -181 299 C-181.25 296.125 -181.25 296.125 -180 293 C-177.19203399 290.6753724 -174.11388914 288.88207901 -171 287 C-169.31337481 285.69200496 -167.63533988 284.37157538 -166 283 C-172.96156066 281.52129621 -176.91550629 282.20671365 -182.875 286 Z " fill="#FFFFFF" transform="translate(439,57)"/>
<path d="M0 0 C0.350625 0.825 0.70125 1.65 1.0625 2.5 C1.701875 3.325 2.34125 4.15 3 5 C5.23681098 5.26476538 7.33837114 5.11664557 9.5859375 4.9921875 C14.60065709 5.00841637 18.62448893 6.95997943 22.5625 9.9375 C24 12 24 12 23.875 13.92578125 C22.04836985 18.25587325 17.12221631 20.20099809 13 22 C10.734375 22.2421875 10.734375 22.2421875 8.6875 22.125 C4.93217963 21.65410862 4.93217963 21.65410862 2 23.875 C-0.2284549 25.75637427 -0.2284549 25.75637427 0 28 C4.45155252 27.60842825 8.75080102 27.14614723 13.0625 25.9375 C19.72065388 24.21033533 25.04982763 24.28189318 31.171875 27.65625 C35.13618588 30.57018791 37.46333678 34.39001033 39 39 C39.78110741 45.60740038 38.69190686 49.5180777 35 55 C34.505 55.99 34.505 55.99 34 57 C34.66 58.98 35.32 60.96 36 63 C32.04 65.31 28.08 67.62 24 70 C23.01 69.01 22.02 68.02 21 67 C21 66.34 21 65.68 21 65 C20.20335937 65.03480469 19.40671875 65.06960938 18.5859375 65.10546875 C11.12415779 65.29609816 6.48863342 64.93779656 0.625 60 C-1 58 -1 58 -1 55 C4.80855871 50.10795567 9.6141128 48.62444641 17 49 C19.94661338 47.91771628 19.94661338 47.91771628 22 46 C22.87822312 43.91466367 22.87822312 43.91466367 23 42 C19.50493834 40.78116787 17.52370167 41.26641673 14.0625 42.4375 C6.56480928 44.60841313 -1.30417379 45.68581546 -8.5625 42.375 C-12.93176029 38.11777202 -15.6991422 34.00857801 -16.3125 27.875 C-15.91691488 22.96974449 -14.20267595 19.34342928 -12 15 C-11.67 14.34 -11.34 13.68 -11 13 C-11.6492959 11.65812182 -12.31731862 10.32520503 -13 9 C-13 8.01 -13 7.02 -13 6 C-11.21118264 4.99491199 -9.41885304 3.99607264 -7.625 3 C-6.62726563 2.443125 -5.62953125 1.88625 -4.6015625 1.3125 C-2 0 -2 0 0 0 Z " fill="#FFFFFF" transform="translate(211,205)"/>
</svg>
