<?xml version="1.0" encoding="UTF-8"?>
<!DOCTYPE svg PUBLIC "-//W3C//DTD SVG 1.1//EN" "http://www.w3.org/Graphics/SVG/1.1/DTD/svg11.dtd">
<svg xmlns="http://www.w3.org/2000/svg" version="1.1" width="512px" height="512px" style="shape-rendering:geometricPrecision; text-rendering:geometricPrecision; image-rendering:optimizeQuality; fill-rule:evenodd; clip-rule:evenodd" xmlns:xlink="http://www.w3.org/1999/xlink">
<g><path style="opacity:0.968" fill="#fefffe" d="M 234.5,41.5 C 325.412,37.0339 394.912,73.0339 443,149.5C 471.592,202.159 478.259,257.492 463,315.5C 443.523,379.645 403.357,425.811 342.5,454C 262.97,485.278 188.97,475.611 120.5,425C 62.277,375.377 35.777,312.21 41,235.5C 51.5877,153.449 94.0877,94.6161 168.5,59C 189.799,50.0104 211.799,44.1771 234.5,41.5 Z M 237.5,77.5 C 314.841,73.7451 373.341,104.745 413,170.5C 436.729,216.024 441.063,263.357 426,312.5C 404.751,371.416 364.251,410.249 304.5,429C 244.437,444.389 190.104,433.055 141.5,395C 93.9896,353.782 72.4896,301.615 77,238.5C 85.1566,176.726 115.99,130.226 169.5,99C 191.01,87.7961 213.677,80.6295 237.5,77.5 Z"/></g>
<g><path style="opacity:0.975" fill="#fefffe" d="M 253.5,128.5 C 288.723,129.353 315.889,144.353 335,173.5C 346.497,195.015 346.164,216.349 334,237.5C 328.833,244 323,249.833 316.5,255C 307.665,260.585 298.665,265.919 289.5,271C 283.186,275.931 280.352,282.431 281,290.5C 278.889,294.944 275.389,297.444 270.5,298C 258.167,298.667 245.833,298.667 233.5,298C 228.611,297.444 225.111,294.944 223,290.5C 219.96,266.416 228.793,248.249 249.5,236C 261.093,230.292 271.926,223.458 282,215.5C 288.512,205.727 287.345,196.894 278.5,189C 259.989,177.116 241.989,177.783 224.5,191C 219.833,196.333 215.167,201.667 210.5,207C 206.625,208.52 202.625,208.854 198.5,208C 190.5,202 182.5,196 174.5,190C 170.359,185.375 169.526,180.209 172,174.5C 191.178,144.995 218.345,129.661 253.5,128.5 Z"/></g>
<g><path style="opacity:0.966" fill="#fefffe" d="M 244.5,311.5 C 266.527,309.743 280.361,319.409 286,340.5C 286.839,364.144 275.506,377.478 252,380.5C 226.334,376.177 215.334,361.177 219,335.5C 223.839,323.491 232.339,315.491 244.5,311.5 Z"/></g>
</svg>
